<?xml version="1.0" encoding="UTF-8"?>
<svg width="45px" height="31px" viewBox="0 0 45 31" version="1.1" xmlns="http://www.w3.org/2000/svg" xmlns:xlink="http://www.w3.org/1999/xlink">
    <title>Group 49</title>
    <g id="UI-" stroke="none" stroke-width="1" fill="none" fill-rule="evenodd">
        <g id="01_OMX-page" transform="translate(-457.000000, -163.000000)" fill-rule="nonzero">
            <g id="Group-49" transform="translate(457.000000, 163.000000)">
                <path d="M38.4897811,1.06896552 L15.2419355,1.06896552 C7.40180289,1.06896552 1.04651163,7.72706808 1.04651163,15.9407604 L1.04651163,22.1817091 C1.04651163,26.5376578 4.41721502,30.0689655 8.57505467,30.0689655 L8.57505467,30.0689655 C10.571641,30.0689655 12.4866037,29.2376322 13.8983386,27.7586322 L18.7041994,22.723786 C19.6687784,21.7132476 20.9768867,21.1458886 22.3403572,21.1458886 L27.5479484,21.1458886 C35.2674199,21.1458886 41.9321714,15.4804783 43.5227687,7.5664527 L43.5227687,7.5664527 C43.5958751,7.20135013 43.6327832,6.82955526 43.6327832,6.4570168 L43.6327832,6.4570168 C43.6327832,3.48117065 41.3302854,1.06896552 38.4897811,1.06896552 Z" id="Path" fill="#FFFFFF"></path>
                <path d="M39.0157258,0 L15.2419355,0 C6.83782258,0 0,7.12319512 0,15.8780488 L0,22.2247317 C0,27.063 3.77927419,31 8.42370968,31 C10.5670161,31 12.5818548,30.1637561 14.1445161,28.6530732 L22.1595968,28.6999512 C22.1777419,28.6999512 22.1958871,28.6999512 22.2140323,28.6999512 C25.8118548,28.6999512 29.0416935,26.6221951 30.6522581,23.265878 L31.5014516,21.4966098 C38.0808871,19.9980244 43.4431452,14.5866341 44.8715323,7.51863415 C44.9564516,7.0982439 45,6.6657561 45,6.23402439 C45,2.79680488 42.3152419,0 39.0157258,0 Z M29.3537903,22.5899268 C27.9907258,25.4298293 25.2580645,27.1877561 22.2133065,27.1877561 C22.1987903,27.1877561 22.1828226,27.1877561 22.1683065,27.1877561 L15.6099194,27.1491951 L19.2955645,23.3097317 C20.1520161,22.4175366 21.2900806,21.9268293 22.5007258,21.9268293 L27.8259677,21.9268293 C28.4690323,21.9268293 29.1026613,21.8769268 29.7312097,21.8035854 L29.3537903,22.5899268 Z M43.451129,7.20712195 C41.9044355,14.8595854 35.3329839,20.4146341 27.8259677,20.4146341 L27.5625,20.4146341 C28.035,19.7356585 28.3064516,18.9054634 28.3064516,18.0238537 L28.3064516,17.3902439 L26.8548387,17.3902439 L26.8548387,18.0238537 C26.8548387,19.0937317 26.2168548,20.0388537 25.2624194,20.4146341 L22.5007258,20.4146341 C20.9025,20.4146341 19.4000806,21.0626098 18.2692742,22.2406098 L13.3548387,27.3601463 C12.0375,28.7324634 10.2868548,29.4878049 8.42370968,29.4878049 C4.57983871,29.4878049 1.4516129,26.2290244 1.4516129,22.2247317 L1.4516129,15.8780488 C1.4516129,7.95641463 7.63766129,1.51219512 15.2419355,1.51219512 L24.506129,1.51219512 L25.4954032,2.02785366 C26.3337097,2.46412195 26.8548387,3.34195122 26.8548387,4.31882927 L26.8548387,15.8780488 L28.3064516,15.8780488 L28.3064516,4.31882927 C28.3064516,3.24668293 27.9043548,2.25543902 27.2220968,1.51219512 L39.0157258,1.51219512 C41.5146774,1.51219512 43.5483871,3.63078049 43.5483871,6.23402439 C43.5483871,6.56141463 43.5157258,6.88804878 43.451129,7.20712195 Z" id="Shape" fill="#EC9023"></path>
                <path d="M3.13953488,12.4645413 L4.61566172,12.8275862 C5.92167162,8.01796747 10.4789748,4.65907612 15.6976744,4.65907612 L15.6976744,3.20689655 C9.78324994,3.20689655 4.61871315,7.0137853 3.13953488,12.4645413 Z" id="Path" fill="#EC9023"></path>
                <path d="M3.13953488,16.0344828 L4.12867631,16.0344828 C4.12867631,15.4023638 4.14796457,14.7662186 4.18604651,14.1461783 L3.20481822,13.8965517 C3.161296,14.5991298 3.13953488,15.3188194 3.13953488,16.0344828 Z" id="Path" fill="#EC9023"></path>
            </g>
        </g>
    </g>
</svg>