<?xml version="1.0" encoding="UTF-8"?>
<svg width="15px" height="15px" viewBox="0 0 15 15" version="1.1" xmlns="http://www.w3.org/2000/svg" xmlns:xlink="http://www.w3.org/1999/xlink">
    <title>Shape</title>
    <g id="UI-" stroke="none" stroke-width="1" fill="none" fill-rule="evenodd">
        <g id="01_OMX-page" transform="translate(-22.000000, -168.000000)" fill="#6A53B3" fill-rule="nonzero">
            <path d="M37,169.890022 C37.0002455,168.846368 36.1543691,168.000246 35.110715,168 C34.246338,168 33.4919829,168.586293 33.2789789,169.424065 L29.898175,169.731128 C29.462098,168.78358 28.3402661,168.36895 27.3927994,168.805109 C26.4452509,169.241186 26.0307036,170.363018 26.4666987,171.310485 C26.8195223,172.076955 27.6378932,172.516471 28.4717359,172.387293 L31.1919982,177.439302 C31.0621657,177.582315 30.9550088,177.744237 30.8741295,177.919666 L27.4934074,177.612603 C27.2376716,176.600712 26.2100624,175.987895 25.1982525,176.243631 C24.1864426,176.499449 23.5735445,177.526976 23.8292802,178.538786 C23.8857648,178.761941 23.9823615,178.972816 24.1145681,179.16118 L22,182.121706 L23.0251534,182.854041 L25.1392303,179.894169 C26.036925,180.153507 26.9893034,179.716611 27.3784736,178.867051 L30.7591957,179.174114 C31.0153408,180.185924 32.0431956,180.798413 33.0549236,180.542268 C34.0666517,180.286205 34.6790586,179.258432 34.4229954,178.24654 C34.3128096,177.811445 34.0513435,177.429643 33.6852583,177.16965 L35.2265493,171.775705 C36.2226417,171.713162 36.998772,170.887915 37,169.890022 Z M35.1103876,169.260096 C35.4582996,169.260096 35.7402311,169.542191 35.7402311,169.890022 C35.7402311,170.237934 35.4582996,170.519947 35.1103876,170.519947 C34.7624756,170.519947 34.4804623,170.237934 34.4804623,169.890022 C34.4808716,169.542273 34.7626393,169.260506 35.1103876,169.260096 Z M32.3006505,176.841057 L29.5803881,171.789048 C29.7880711,171.560736 29.9365681,171.285026 30.012945,170.986067 L33.3936671,170.679004 C33.5323407,170.978863 33.7468182,171.237382 34.0157337,171.429266 L32.4745246,176.82272 C32.4158298,176.82665 32.3577899,176.832216 32.3006505,176.841057 Z M27.5516928,170.519865 C27.5516928,170.171953 27.8337062,169.890022 28.1816182,169.890022 C28.5294483,169.890022 28.8115435,170.171953 28.8115435,170.519865 C28.8115435,170.867695 28.5294483,171.14979 28.1816182,171.14979 C27.8337881,171.149381 27.5521022,170.867613 27.5516928,170.519865 Z M25.6620806,178.708485 C25.3141686,178.708485 25.0321552,178.426472 25.0321552,178.07856 C25.0321552,177.730648 25.3141686,177.448634 25.6620806,177.448634 C26.0099107,177.448634 26.2920059,177.730648 26.2920059,178.07856 C26.2915966,178.426308 26.009747,178.708076 25.6620806,178.708485 Z M32.59085,179.33841 C32.242938,179.33841 31.9609246,179.056315 31.9609246,178.708485 C31.9609246,178.360573 32.242938,178.07856 32.59085,178.07856 C32.938762,178.07856 33.2206934,178.360573 33.2206934,178.708485 C33.220366,179.056152 32.9385164,179.338001 32.59085,179.33841 Z" id="Shape"></path>
        </g>
    </g>
</svg>