<svg width="526" height="403" viewBox="0 0 526 403" fill="none" xmlns="http://www.w3.org/2000/svg">
<path d="M160.323 153.319C151.683 165.559 144.323 178.779 132.323 188.639C111.843 205.479 80.7227 209.799 63.5827 230.179C45.2027 252.019 53.2827 282.979 72.9827 301.299C86.0827 313.479 103.723 321.299 122.043 325.939C161.723 336.059 426.403 324.819 439.523 319.019C457.123 311.259 465.023 296.399 463.743 279.579C461.743 252.079 438.223 229.579 412.463 214.419C386.703 199.259 357.403 188.659 333.363 171.379C319.623 161.479 307.903 149.619 294.783 139.079C283.791 129.884 271.266 122.694 257.783 117.839C221.943 105.699 179.483 126.219 160.323 153.319Z" fill="#F68C27"/>
<path d="M42.7238 295.58C42.7238 296.648 42.4071 297.692 41.8138 298.58C41.2204 299.468 40.377 300.16 39.3903 300.569C38.4036 300.977 37.3178 301.084 36.2703 300.876C35.2228 300.668 34.2606 300.153 33.5054 299.398C32.7502 298.643 32.236 297.681 32.0276 296.633C31.8192 295.586 31.9262 294.5 32.3349 293.513C32.7436 292.526 33.4357 291.683 34.3237 291.09C35.2118 290.496 36.2558 290.18 37.3238 290.18C38.756 290.18 40.1295 290.749 41.1422 291.761C42.1549 292.774 42.7238 294.148 42.7238 295.58V295.58Z" stroke="#F68C27" stroke-width="1.5" stroke-linecap="round" stroke-linejoin="round"/>
<path d="M450.523 145.998C450.523 147.066 450.206 148.11 449.613 148.998C449.019 149.886 448.176 150.578 447.189 150.987C446.202 151.395 445.117 151.502 444.069 151.294C443.022 151.086 442.06 150.571 441.304 149.816C440.549 149.061 440.035 148.099 439.826 147.051C439.618 146.004 439.725 144.918 440.134 143.931C440.542 142.944 441.235 142.101 442.123 141.508C443.011 140.914 444.055 140.598 445.123 140.598C446.555 140.598 447.928 141.167 448.941 142.179C449.954 143.192 450.523 144.565 450.523 145.998Z" stroke="#F68C27" stroke-width="1.5" stroke-linecap="round" stroke-linejoin="round"/>
<path d="M258.545 179.02V11.5" stroke="#111111" stroke-width="1.5" stroke-linecap="round" stroke-linejoin="round"/>
<path d="M258.545 10.8379C276.905 -2.36206 300.425 0.577946 321.525 5.81795C337.325 9.81795 353.525 14.6579 369.525 14.2379C375.145 14.0779 385.525 14.0979 385.525 14.0979V125.278C385.525 125.278 374.425 126.818 370.405 126.978C354.225 127.618 337.705 122.578 321.625 118.598C300.525 113.378 277.005 110.418 258.645 123.618L258.545 10.8379Z" fill="white" stroke="#111111" stroke-width="1.5" stroke-linecap="round" stroke-linejoin="round"/>
<path d="M362 62C362 70.7024 359.419 79.2093 354.585 86.4451C349.75 93.6809 342.878 99.3204 334.838 102.651C326.798 105.981 317.951 106.852 309.416 105.155C300.881 103.457 293.041 99.2662 286.887 93.1127C280.734 86.9592 276.543 79.1191 274.845 70.584C273.148 62.0488 274.019 53.2019 277.349 45.1619C280.68 37.122 286.319 30.2501 293.555 25.4153C300.791 20.5806 309.298 18 318 18C329.67 18 340.861 22.6357 349.113 30.8873C357.364 39.1389 362 50.3305 362 62Z" fill="#8485DB"/>
<path d="M316.56 73.48C316.8 73.9867 316.92 74.48 316.92 74.96C316.92 75.84 316.56 76.5867 315.84 77.2C315.147 77.8133 314.347 78.12 313.44 78.12C312.827 78.12 312.267 77.96 311.76 77.64C311.253 77.32 310.853 76.84 310.56 76.2L308.76 72.16H295.8L293.96 76.2C293.667 76.84 293.253 77.32 292.72 77.64C292.213 77.96 291.653 78.12 291.04 78.12C290.133 78.12 289.307 77.8133 288.56 77.2C287.84 76.5867 287.48 75.84 287.48 74.96C287.48 74.48 287.6 73.9867 287.84 73.48L298.4 51.8C298.747 51.08 299.253 50.5333 299.92 50.16C300.613 49.76 301.373 49.56 302.2 49.56C303 49.56 303.747 49.76 304.44 50.16C305.133 50.5333 305.653 51.08 306 51.8L316.56 73.48ZM306.28 66.64L302.28 57.72L298.28 66.64H306.28ZM323.39 78C322.296 78 321.456 77.7067 320.87 77.12C320.283 76.5333 319.99 75.6933 319.99 74.6V53.2C319.99 52.1067 320.283 51.2667 320.87 50.68C321.456 50.0933 322.296 49.8 323.39 49.8H331.47C334.59 49.8 337.27 50.3733 339.51 51.52C341.776 52.64 343.51 54.2533 344.71 56.36C345.91 58.4667 346.51 60.9733 346.51 63.88C346.51 66.8133 345.91 69.3467 344.71 71.48C343.536 73.5867 341.816 75.2 339.55 76.32C337.31 77.44 334.616 78 331.47 78H323.39ZM330.95 72.08C333.696 72.08 335.75 71.4133 337.11 70.08C338.496 68.72 339.19 66.6533 339.19 63.88C339.19 61.1067 338.496 59.0533 337.11 57.72C335.75 56.3867 333.696 55.72 330.95 55.72H327.35V72.08H330.95Z" fill="white"/>
<path d="M280.244 100.098L323.224 64.2577L327.624 60.5576L360.564 33.0977" fill="white"/>
<path d="M280.244 100.098L323.224 64.2577L327.624 60.5576L360.564 33.0977" stroke="#111111" stroke-width="1.5" stroke-linecap="round" stroke-linejoin="round"/>
<path d="M201.804 128.88C199.759 128.89 197.799 129.701 196.344 131.14C195.922 128.825 194.697 126.733 192.885 125.232C191.072 123.731 188.789 122.917 186.435 122.934C184.082 122.951 181.81 123.797 180.02 125.323C178.229 126.85 177.033 128.959 176.644 131.28C174.954 130.121 172.953 129.5 170.904 129.5C168.466 129.566 166.122 130.459 164.258 132.033C162.394 133.606 161.119 135.767 160.644 138.16C160.624 138.266 160.627 138.376 160.653 138.481C160.68 138.586 160.729 138.684 160.798 138.768C160.867 138.852 160.953 138.92 161.051 138.967C161.149 139.014 161.256 139.039 161.364 139.04H209.924C210.146 137.827 210.104 136.581 209.803 135.385C209.502 134.19 208.948 133.073 208.178 132.11C207.408 131.147 206.441 130.361 205.342 129.803C204.242 129.246 203.036 128.931 201.804 128.88Z" stroke="#111111" stroke-width="1.5" stroke-linecap="round" stroke-linejoin="round"/>
<path d="M405.523 150.759C403.486 150.765 401.533 151.569 400.083 152.999C399.661 150.684 398.436 148.592 396.623 147.091C394.811 145.59 392.527 144.776 390.174 144.793C387.821 144.81 385.549 145.656 383.758 147.182C381.967 148.709 380.772 150.818 380.383 153.139C378.692 151.983 376.692 151.362 374.643 151.359C372.201 151.421 369.853 152.312 367.984 153.886C366.116 155.46 364.839 157.623 364.363 160.019C364.342 160.127 364.346 160.239 364.373 160.345C364.401 160.452 364.452 160.551 364.523 160.635C364.594 160.72 364.683 160.787 364.783 160.833C364.884 160.878 364.993 160.901 365.103 160.899H413.663C413.881 159.686 413.837 158.441 413.533 157.246C413.229 156.052 412.673 154.937 411.901 153.976C411.13 153.015 410.161 152.23 409.061 151.676C407.961 151.121 406.754 150.808 405.523 150.759V150.759Z" stroke="#111111" stroke-width="1.5" stroke-linecap="round" stroke-linejoin="round"/>
<path d="M403.503 221.177C403.503 222.245 403.186 223.289 402.593 224.177C402 225.065 401.156 225.758 400.17 226.166C399.183 226.575 398.097 226.682 397.05 226.474C396.002 226.265 395.04 225.751 394.285 224.996C393.53 224.241 393.015 223.278 392.807 222.231C392.599 221.183 392.705 220.098 393.114 219.111C393.523 218.124 394.215 217.281 395.103 216.687C395.991 216.094 397.035 215.777 398.103 215.777C399.535 215.777 400.909 216.346 401.922 217.359C402.934 218.372 403.503 219.745 403.503 221.177V221.177Z" stroke="#F4E552" stroke-width="1.5" stroke-linecap="round" stroke-linejoin="round"/>
<path d="M124.884 242.92C124.884 243.988 124.567 245.032 123.974 245.92C123.381 246.808 122.537 247.5 121.55 247.908C120.564 248.317 119.478 248.424 118.431 248.216C117.383 248.007 116.421 247.493 115.666 246.738C114.91 245.983 114.396 245.021 114.188 243.973C113.979 242.926 114.086 241.84 114.495 240.853C114.904 239.866 115.596 239.023 116.484 238.43C117.372 237.836 118.416 237.52 119.484 237.52C120.916 237.52 122.29 238.088 123.302 239.101C124.315 240.114 124.884 241.487 124.884 242.92Z" stroke="#F4E552" stroke-width="1.5" stroke-linecap="round" stroke-linejoin="round"/>
<path d="M106.524 181.277C106.524 182.788 106.076 184.265 105.237 185.521C104.397 186.778 103.204 187.757 101.808 188.335C100.412 188.913 98.8756 189.065 97.3936 188.77C95.9116 188.475 94.5503 187.747 93.4818 186.679C92.4134 185.611 91.6857 184.249 91.3909 182.767C91.0962 181.285 91.2474 179.749 91.8257 178.353C92.404 176.957 93.3832 175.764 94.6396 174.924C95.896 174.085 97.3731 173.637 98.8841 173.637C100.91 173.637 102.854 174.442 104.286 175.874C105.719 177.307 106.524 179.25 106.524 181.277V181.277Z" stroke="#F68C27" stroke-width="1.5" stroke-linecap="round" stroke-linejoin="round"/>
<path d="M496.645 264.238C496.645 265.749 496.197 267.226 495.358 268.482C494.518 269.739 493.325 270.718 491.929 271.296C490.533 271.874 488.997 272.026 487.515 271.731C486.033 271.436 484.671 270.708 483.603 269.64C482.534 268.571 481.807 267.21 481.512 265.728C481.217 264.246 481.369 262.71 481.947 261.314C482.525 259.918 483.504 258.725 484.761 257.885C486.017 257.046 487.494 256.598 489.005 256.598C491.032 256.598 492.975 257.403 494.408 258.835C495.84 260.268 496.645 262.211 496.645 264.238V264.238Z" stroke="#F68C27" stroke-width="1.5" stroke-linecap="round" stroke-linejoin="round"/>
<path d="M445.121 196.098H474.521" stroke="#111111" stroke-width="1.5" stroke-linecap="round" stroke-linejoin="round"/>
<path d="M489.002 207.84H525.062" stroke="#111111" stroke-width="1.5" stroke-linecap="round" stroke-linejoin="round"/>
<path d="M470.941 207.84H479.801" stroke="#111111" stroke-width="1.5" stroke-linecap="round" stroke-linejoin="round"/>
<path d="M127.744 115.777H157.144" stroke="#111111" stroke-width="1.5" stroke-linecap="round" stroke-linejoin="round"/>
<path d="M109.523 127.539H142.443" stroke="#111111" stroke-width="1.5" stroke-linecap="round" stroke-linejoin="round"/>
<path d="M88.3223 127.539H98.8823" stroke="#111111" stroke-width="1.5" stroke-linecap="round" stroke-linejoin="round"/>
<path d="M22.1426 239.578H55.0626" stroke="#111111" stroke-width="1.5" stroke-linecap="round" stroke-linejoin="round"/>
<path d="M0.943359 239.578H11.5034" stroke="#111111" stroke-width="1.5" stroke-linecap="round" stroke-linejoin="round"/>
<path d="M238.063 364.218L191.423 274.878L167.903 229.778C167.451 228.917 166.77 228.198 165.936 227.7C165.101 227.201 164.145 226.943 163.173 226.953C162.201 226.964 161.25 227.242 160.426 227.758C159.602 228.274 158.937 229.008 158.503 229.878L141.103 264.718L91.3633 364.218" stroke="#111111" stroke-width="1.5" stroke-linecap="round" stroke-linejoin="round"/>
<path d="M425.382 364.22L377.002 271.68L355.002 229.68C354.55 228.82 353.869 228.1 353.034 227.602C352.2 227.104 351.243 226.845 350.271 226.856C349.299 226.866 348.349 227.145 347.525 227.661C346.701 228.177 346.036 228.91 345.602 229.78L330.042 261L278.502 364.12" fill="white"/>
<path d="M425.382 364.22L377.002 271.68L355.002 229.68C354.55 228.82 353.869 228.1 353.034 227.602C352.2 227.104 351.243 226.845 350.271 226.856C349.299 226.866 348.349 227.145 347.525 227.661C346.701 228.177 346.036 228.91 345.602 229.78L330.042 261L278.502 364.12" stroke="#111111" stroke-width="1.5" stroke-linecap="round" stroke-linejoin="round"/>
<path d="M358.142 349.258L302.142 241.958L269.662 179.698C269.103 178.58 268.242 177.64 267.175 176.987C266.109 176.334 264.881 175.994 263.631 176.004C262.381 176.015 261.158 176.376 260.103 177.046C259.048 177.717 258.202 178.67 257.662 179.798L230.062 235.098L173.002 349.258" fill="#8485DB"/>
<path d="M358.142 349.258L302.142 241.958L269.662 179.698C269.103 178.58 268.242 177.64 267.175 176.987C266.109 176.334 264.881 175.994 263.631 176.004C262.381 176.015 261.158 176.376 260.103 177.046C259.048 177.717 258.202 178.67 257.662 179.798L230.062 235.098L173.002 349.258" stroke="#111111" stroke-width="1.5" stroke-linecap="round" stroke-linejoin="round"/>
<path d="M358.125 349.24H340.545L289.205 250.84L256.705 188.58C256.19 187.605 255.449 186.769 254.545 186.14L257.745 179.8C258.295 178.698 259.139 177.77 260.184 177.118C261.229 176.467 262.433 176.116 263.664 176.106C264.896 176.095 266.106 176.426 267.161 177.06C268.217 177.694 269.076 178.608 269.645 179.7L302.125 242L358.125 349.24Z" fill="#5B5DDD"/>
<path d="M358.142 349.258L302.142 241.958L269.662 179.698C269.103 178.58 268.242 177.64 267.175 176.987C266.109 176.334 264.881 175.994 263.631 176.004C262.381 176.015 261.158 176.376 260.103 177.046C259.048 177.717 258.202 178.67 257.662 179.798L230.062 235.098L173.002 349.258" stroke="#111111" stroke-width="1.5" stroke-linecap="round" stroke-linejoin="round"/>
<path d="M56.8203 338.638C75.0403 338.638 75.0403 348.038 93.2603 348.038C111.48 348.038 111.48 338.638 129.7 338.638C147.92 338.638 147.9 348.038 166.12 348.038C184.34 348.038 184.32 338.638 202.54 338.638C220.76 338.638 220.76 347.998 239 347.998C257.24 347.998 257.2 338.598 275.42 338.598C293.64 338.598 293.64 347.998 311.86 347.998C330.08 347.998 330.08 338.598 348.32 338.598C366.56 338.598 366.54 347.998 384.76 347.998C402.98 347.998 402.98 338.598 421.22 338.598C439.46 338.598 439.44 347.998 457.68 347.998V402.738H56.8203V338.638Z" fill="white"/>
<path d="M395.104 346.699C403.984 344.119 407.284 338.699 421.204 338.699C439.424 338.699 439.424 348.099 457.664 348.099" stroke="#111111" stroke-width="1.5" stroke-linecap="round" stroke-linejoin="round"/>
<path d="M384.742 347.997C386.302 347.997 387.742 347.997 389.062 347.797" stroke="#111111" stroke-width="1.5" stroke-linecap="round" stroke-linejoin="round"/>
<path d="M56.8203 338.638C75.0403 338.638 75.0403 348.038 93.2603 348.038C111.48 348.038 111.48 338.638 129.7 338.638C147.92 338.638 147.9 348.038 166.12 348.038C184.34 348.038 184.32 338.638 202.54 338.638C220.76 338.638 220.76 347.998 239 347.998C257.24 347.998 257.2 338.598 275.42 338.598C293.64 338.598 293.64 347.998 311.86 347.998C330.08 347.998 330.08 338.598 348.32 338.598C363.2 338.598 365.92 344.878 376.32 347.158" stroke="#111111" stroke-width="1.5" stroke-linecap="round" stroke-linejoin="round"/>
<path d="M284.68 366.317C294.4 368.757 297.38 374.677 311.84 374.677C330.06 374.677 330.06 365.277 348.3 365.277C366.54 365.277 366.52 374.677 384.74 374.677C402.96 374.677 402.96 365.277 421.2 365.277C439.44 365.277 439.42 374.677 457.66 374.677" stroke="#111111" stroke-width="1.5" stroke-linecap="round" stroke-linejoin="round"/>
<path d="M271.383 365.437C272.623 365.337 273.963 365.277 275.383 365.277" stroke="#111111" stroke-width="1.5" stroke-linecap="round" stroke-linejoin="round"/>
<path d="M145.764 368.877C151.144 371.537 155.584 374.677 166.124 374.677C184.324 374.677 184.324 365.277 202.544 365.277C220.764 365.277 220.764 374.677 238.984 374.677C253.404 374.677 256.404 368.777 266.064 366.317" stroke="#111111" stroke-width="1.5" stroke-linecap="round" stroke-linejoin="round"/>
<path d="M56.8203 365.277C75.0403 365.277 75.0403 374.677 93.2603 374.677C111.48 374.677 111.48 365.277 129.7 365.277" stroke="#111111" stroke-width="1.5" stroke-linecap="round" stroke-linejoin="round"/>
<path d="M302.14 241.998C296.737 245.117 290.609 246.759 284.37 246.759C278.132 246.759 272.003 245.117 266.6 241.998C258.14 237.018 251.64 229.638 240.96 231.798C238 232.358 234.06 234.158 230.16 235.098L257.76 179.798C258.3 178.67 259.146 177.717 260.201 177.046C261.256 176.376 262.479 176.015 263.729 176.004C264.979 175.994 266.207 176.334 267.274 176.987C268.34 177.64 269.201 178.58 269.76 179.698L302.14 241.998Z" fill="white" stroke="#111111" stroke-width="1.5" stroke-linecap="round" stroke-linejoin="round"/>
<path d="M191.422 274.878C187.162 276.541 182.583 277.224 178.024 276.878C173.465 276.532 169.041 275.165 165.082 272.878C157.842 268.638 152.302 262.298 143.182 264.178C142.503 264.301 141.834 264.475 141.182 264.698L158.582 229.858C159.015 228.988 159.681 228.255 160.505 227.739C161.329 227.223 162.279 226.944 163.251 226.934C164.223 226.924 165.179 227.182 166.014 227.68C166.849 228.179 167.53 228.898 167.982 229.758L191.422 274.878Z" fill="white" stroke="#111111" stroke-width="1.5" stroke-linecap="round" stroke-linejoin="round"/>
<path d="M377.003 271.678C370.56 272.451 364.042 271.095 358.443 267.818C351.203 263.538 345.643 257.238 336.443 259.078C334.283 259.634 332.153 260.301 330.062 261.078L345.622 229.858C346.056 228.988 346.722 228.255 347.546 227.739C348.369 227.223 349.32 226.944 350.292 226.934C351.264 226.924 352.22 227.182 353.055 227.68C353.89 228.179 354.57 228.898 355.023 229.758L377.003 271.678Z" fill="white" stroke="#111111" stroke-width="1.5" stroke-linecap="round" stroke-linejoin="round"/>
<path d="M281.005 211.038C283.041 211.044 284.994 211.848 286.445 213.278C286.869 210.964 288.096 208.873 289.91 207.374C291.724 205.875 294.009 205.063 296.362 205.082C298.715 205.101 300.986 205.95 302.776 207.478C304.565 209.007 305.758 211.117 306.145 213.438C307.828 212.263 309.832 211.635 311.885 211.638C314.327 211.701 316.675 212.592 318.543 214.166C320.412 215.74 321.689 217.902 322.165 220.298C322.186 220.407 322.182 220.518 322.154 220.625C322.127 220.731 322.075 220.83 322.004 220.915C321.934 220.999 321.845 221.067 321.744 221.112C321.644 221.158 321.535 221.18 321.425 221.178H272.885C272.67 219.968 272.716 218.725 273.02 217.533C273.324 216.342 273.879 215.229 274.648 214.269C275.417 213.309 276.381 212.525 277.477 211.967C278.574 211.41 279.776 211.094 281.005 211.038Z" fill="white" stroke="#111111" stroke-width="1.5" stroke-linecap="round" stroke-linejoin="round"/>
<path d="M210.023 300.977L198.863 328.677" stroke="#111111" stroke-width="1.5" stroke-linecap="round" stroke-linejoin="round"/>
<path d="M215.72 288.199L213.16 294.359" stroke="#111111" stroke-width="1.5" stroke-linecap="round" stroke-linejoin="round"/>
<path d="M226.801 263.558C226.361 265.018 226.121 266.958 227.401 267.798C227.804 268.012 228.256 268.112 228.711 268.087C229.166 268.063 229.605 267.914 229.982 267.658C230.72 267.119 231.346 266.439 231.822 265.658C235.792 259.841 238.61 253.317 240.121 246.438C240.55 244.914 240.55 243.302 240.121 241.778C239.541 240.058 237.621 238.638 236.121 240.078C234.621 241.518 233.461 245.418 232.501 247.558C230.25 252.76 228.346 258.105 226.801 263.558Z" fill="#FCEED0"/>
<path d="M336.865 268.977L331.385 280.017" stroke="#111111" stroke-width="1.5" stroke-linecap="round" stroke-linejoin="round"/>
<path d="M141.224 288.199L135.744 299.239" stroke="#111111" stroke-width="1.5" stroke-linecap="round" stroke-linejoin="round"/>
<path d="M144.242 283.798L146.302 279.078" stroke="#111111" stroke-width="1.5" stroke-linecap="round" stroke-linejoin="round"/>
<path d="M169.783 316.66C170.184 315.289 170.386 313.868 170.383 312.44C170.383 306.44 167.083 301.68 163.043 301.68C159.003 301.68 155.683 306.5 155.683 312.44C155.694 313.694 155.856 314.943 156.163 316.16C154.411 318.985 153.509 322.255 153.563 325.58C153.563 333.08 157.723 339.18 162.843 339.18C167.963 339.18 172.103 333.18 172.103 325.58C172.144 322.452 171.343 319.371 169.783 316.66Z" fill="white" stroke="#111111" stroke-width="1.5" stroke-linecap="round" stroke-linejoin="round"/>
<path d="M162.842 347.439V329.559" stroke="#111111" stroke-width="1.5" stroke-linecap="round" stroke-linejoin="round"/>
<path d="M375.465 316.26C375.465 323.12 371.665 328.7 366.985 328.7C362.305 328.7 358.525 323.12 358.525 316.26C358.525 309.4 362.305 303.82 366.985 303.82C371.665 303.82 375.465 309.4 375.465 316.26Z" fill="white" stroke="#111111" stroke-width="1.5" stroke-linecap="round" stroke-linejoin="round"/>
<path d="M366.98 342.238V319.898" stroke="#111111" stroke-width="1.5" stroke-linecap="round" stroke-linejoin="round"/>
<path d="M403.003 290.457C403.332 289.149 403.5 287.805 403.503 286.457C403.503 279.917 399.883 274.637 395.503 274.637C391.123 274.637 387.503 279.917 387.503 286.457C387.505 287.206 387.558 287.955 387.663 288.697C384.809 292.357 383.317 296.897 383.443 301.537C383.443 310.737 388.523 318.177 394.783 318.177C401.043 318.177 406.123 310.737 406.123 301.537C406.121 297.627 405.041 293.793 403.003 290.457Z" fill="white" stroke="#111111" stroke-width="1.5" stroke-linecap="round" stroke-linejoin="round"/>
<path d="M394.641 346.937V305.617" stroke="#111111" stroke-width="1.5" stroke-linecap="round" stroke-linejoin="round"/>
<path d="M176.023 194.317C176.023 194.317 182.683 193.157 186.603 204.117C186.603 204.117 192.083 193.157 197.183 193.537" stroke="#111111" stroke-width="1.5" stroke-linecap="round" stroke-linejoin="round"/>
<path d="M197.582 209.797C197.582 209.797 204.242 208.637 208.142 219.597C208.142 219.597 213.642 208.637 218.722 209.017" stroke="#111111" stroke-width="1.5" stroke-linecap="round" stroke-linejoin="round"/>
<path d="M267.203 17.2984C267.203 17.2984 271.023 12.0784 279.203 13.9984L267.203 17.2984Z" fill="white"/>
<path d="M267.203 17.2984C267.203 17.2984 271.023 12.0784 279.203 13.9984" stroke="#111111" stroke-width="1.5" stroke-linecap="round" stroke-linejoin="round"/>
<path d="M368.025 119.3C370.958 119.266 373.879 118.938 376.745 118.32L368.025 119.3Z" fill="white"/>
<path d="M368.025 119.3C370.958 119.266 373.879 118.938 376.745 118.32" stroke="#111111" stroke-width="1.5" stroke-linecap="round" stroke-linejoin="round"/>
</svg>
