<?xml version="1.0" encoding="UTF-8"?>
<svg width="62px" height="62px" viewBox="0 0 62 62" version="1.1" xmlns="http://www.w3.org/2000/svg" xmlns:xlink="http://www.w3.org/1999/xlink">
    <!-- Generator: sketchtool 61.2 (101010) - https://sketch.com -->
    <title>21955D5E-844D-424B-A46C-FE2D6157CD0D@1.00x</title>
    <desc>Created with sketchtool.</desc>
    <g id="Page-2" stroke="none" stroke-width="1" fill="none" fill-rule="evenodd">
        <g id="Artboard" transform="translate(-154.000000, -28.000000)" fill="#FF7600" fill-rule="nonzero">
            <g id="Group-7" transform="translate(154.000000, 28.000000)">
                <path d="M58.368,55.3003809 L6.776832,55.3003809 L15.527936,37.7991969 C16.8387138,38.0855921 18.206117,37.7018135 19.176448,36.7751969 L25.811968,41.7733409 C25.6770427,42.1727512 25.6055197,42.5908326 25.6,43.0123809 C25.5902891,45.0006938 27.0099405,46.7088029 28.9664918,47.0629071 C30.9230429,47.4170113 32.851313,46.3148219 33.5390969,44.4492294 C34.2268807,42.5836368 33.4755011,40.493547 31.757312,39.4928929 L32.412672,32.7539489 C32.53248,32.7539489 32.648192,32.7723809 32.768,32.7723809 C36.0532561,32.7752444 39.2626099,31.7847032 41.974784,29.9307809 L51.081216,39.0372129 C51.8536373,39.8226085 52.9880388,40.1332352 54.0528273,39.8509124 C55.117616,39.5685895 55.9490912,38.7367215 56.2309111,37.6717996 C56.5127309,36.6068777 56.2015685,35.4726232 55.415808,34.7005729 L46.3104,25.5951649 C47.8454908,23.3497143 48.793563,20.7554534 49.068032,18.0493089 L52.47488,17.7513249 C53.1656425,19.689429 55.1895352,20.8117968 57.1993576,20.3713263 C59.2091801,19.9308557 60.5781572,18.0649101 60.3950319,16.0155528 C60.2119066,13.9661955 58.5337875,12.3725305 56.4777117,12.2953782 C54.4216359,12.2182259 52.6288026,13.6816466 52.292608,15.7115169 L49.13152,15.9879969 C48.9257915,7.30663888 41.9792815,0.295350498 33.300207,0.0090519247 C24.6211325,-0.277246648 17.2276608,6.26100554 16.4502543,14.9099326 C15.6728479,23.5588598 21.7818513,31.3107783 30.372864,32.5767969 L29.758464,38.9255969 C29.737984,38.9255969 29.719552,38.9194529 29.699072,38.9194529 C28.6599248,38.9215151 27.6608938,39.3208344 26.906624,40.0356129 L20.271104,35.0374689 C20.4051961,34.6372391 20.4756847,34.2184542 20.48,33.7963809 C20.4914484,31.9029168 19.2035579,30.2483972 17.3651798,29.794852 C15.5268017,29.341307 13.6171597,30.2069651 12.746626,31.8884849 C11.8760924,33.5700045 12.2715955,35.6290514 13.703168,36.8683809 L6.144,51.9867169 L6.144,3.07638088 C6.144,1.37976213 4.76861875,0.00438087702 3.072,0.00438087702 C1.37538125,0.00438087702 2.84217094e-14,1.37976213 2.84217094e-14,3.07638088 L2.84217094e-14,56.3243809 C0.00338546688,59.1506754 2.29370557,61.4409954 5.12,61.4443809 L58.368,61.4443809 C60.0646187,61.4443809 61.44,60.0689996 61.44,58.3723809 C61.44,56.6757622 60.0646187,55.3003809 58.368,55.3003809 L58.368,55.3003809 Z M56.32,14.3403809 C57.4510792,14.3403809 58.368,15.2573017 58.368,16.3883809 C58.368,17.51946 57.4510792,18.4363809 56.32,18.4363809 C55.1889208,18.4363809 54.272,17.51946 54.272,16.3883809 C54.272,15.2573017 55.1889208,14.3403809 56.32,14.3403809 Z M53.971968,36.1515809 C54.1664444,36.3393389 54.2762831,36.5980586 54.2762831,36.8683809 C54.2762831,37.1387032 54.1664444,37.3974229 53.971968,37.5851809 C53.5729307,37.9801783 52.9302373,37.9801783 52.5312,37.5851809 L43.5968,28.6507809 C44.1054551,28.200494 44.5862571,27.719692 45.036544,27.2110369 L53.971968,36.1515809 Z M18.432,16.3883809 C18.432,8.4708267 24.8504458,2.05238088 32.768,2.05238088 C40.6855542,2.05238088 47.104,8.4708267 47.104,16.3883809 C47.104,24.3059351 40.6855542,30.7243809 32.768,30.7243809 C24.8539551,30.7159152 18.4404657,24.3024258 18.432,16.3883809 Z M29.696,40.9643809 C30.8270792,40.9643809 31.744,41.8813017 31.744,43.0123809 C31.744,44.14346 30.8270792,45.0603809 29.696,45.0603809 C28.5649208,45.0603809 27.648,44.14346 27.648,43.0123809 C27.648,41.8813017 28.5649208,40.9643809 29.696,40.9643809 Z M16.384,31.7483809 C17.5150792,31.7483809 18.432,32.6653017 18.432,33.7963809 C18.432,34.92746 17.5150792,35.8443809 16.384,35.8443809 C15.2529208,35.8443809 14.336,34.92746 14.336,33.7963809 C14.336,32.6653017 15.2529208,31.7483809 16.384,31.7483809 Z M58.368,59.3963809 L5.12,59.3963809 C3.42338125,59.3963809 2.048,58.0209996 2.048,56.3243809 L2.048,3.07638088 C2.048,2.51084129 2.50646042,2.05238088 3.072,2.05238088 C3.63753958,2.05238088 4.096,2.51084129 4.096,3.07638088 L4.096,56.3243809 C4.096,56.8899204 4.55446042,57.3483809 5.12,57.3483809 L58.368,57.3483809 C58.9335395,57.3483809 59.392,57.8068413 59.392,58.3723809 C59.392,58.9379204 58.9335395,59.3963809 58.368,59.3963809 Z" id="Shape"></path>
                <path d="M45.056,16.3883809 C45.056,9.60190587 39.554475,4.10038088 32.768,4.10038088 C25.981525,4.10038088 20.48,9.60190587 20.48,16.3883809 C20.48,23.1748559 25.981525,28.6763809 32.768,28.6763809 C39.5514337,28.6690441 45.0486632,23.1718146 45.056,16.3883809 Z M32.768,20.4843809 C31.6369208,20.4843809 30.72,19.56746 30.72,18.4363809 C30.72,17.3053017 31.6369208,16.3883809 32.768,16.3883809 C33.8990792,16.3883809 34.816,17.3053017 34.816,18.4363809 C34.816,19.56746 33.8990792,20.4843809 32.768,20.4843809 Z M33.002496,26.6160929 L33.404928,22.4678689 C35.1382153,22.1937876 36.5029071,20.8435217 36.795392,19.1132449 L42.761216,18.5961249 C41.7386143,23.1948613 37.7122192,26.5038565 33.002496,26.6160929 Z M22.528,16.3883809 C22.528,10.732985 27.1126042,6.14838088 32.768,6.14838088 C38.4233958,6.14838088 43.008,10.732985 43.008,16.3883809 C43.008,16.4334369 43.001856,16.4764449 43.000832,16.5204769 L36.61312,17.0744609 C35.9837271,15.2816414 34.2014865,14.159334 32.3127167,14.3664234 C30.423947,14.5735128 28.9272294,16.0553333 28.7012576,17.941937 C28.4752858,19.8285409 29.5797097,21.6219184 31.366144,22.2692129 L30.956544,26.4583969 C26.0832096,25.5787125 22.5358244,21.3404684 22.528,16.3883809 L22.528,16.3883809 Z" id="Shape"></path>
            </g>
        </g>
    </g>
</svg>