<?xml version="1.0" encoding="UTF-8"?>
<svg width="62px" height="62px" viewBox="0 0 62 62" version="1.1" xmlns="http://www.w3.org/2000/svg" xmlns:xlink="http://www.w3.org/1999/xlink">
    <!-- Generator: sketchtool 61.2 (101010) - https://sketch.com -->
    <title>923061A0-425B-4329-BC62-34B5B5C985E6@1.00x</title>
    <desc>Created with sketchtool.</desc>
    <g id="Page-2" stroke="none" stroke-width="1" fill="none" fill-rule="evenodd">
        <g id="Artboard" transform="translate(-270.000000, -28.000000)" fill="#FF7600" fill-rule="nonzero">
            <g id="Group-6" transform="translate(270.000000, 28.000000)">
                <path d="M5.12,45.056 L21.5552,45.056 C23.4074253,50.3380571 27.567377,54.4870885 32.8542845,56.3254234 C38.141192,58.1637583 43.977856,57.4906959 48.707584,54.49728 L54.441984,60.23168 C55.2085078,61.0033929 56.2509241,61.4378857 57.3386274,61.4390411 C58.4263305,61.4401918 59.4696658,61.0079101 60.237824,60.237824 C61.835464,58.6385714 61.835464,56.0473806 60.237824,54.448128 L54.49728,48.707584 C58.7109683,42.0596516 58.2080912,33.463338 53.248,27.352064 L53.248,5.12 C53.2446146,2.29370557 50.9542945,0.00338546688 48.128,6.39488462e-14 L5.12,6.39488462e-14 C2.29370557,0.00338546688 0.00338546688,2.29370557 3.90798505e-14,5.12 L3.90798505e-14,39.936 C0.00338546688,42.7622945 2.29370557,45.0526146 5.12,45.056 Z M5.12,43.008 C3.42338125,43.008 2.048,41.6326187 2.048,39.936 L2.048,10.24 L51.2,10.24 L51.2,25.212928 C45.2388817,19.8246266 36.4694975,18.9308082 29.5438517,23.0056279 C22.618206,27.0804475 19.1403139,35.1801558 20.955136,43.008 L5.12,43.008 Z M58.790912,55.897088 C59.175294,56.2821257 59.3906716,56.804286 59.3895235,57.3483468 C59.3883661,57.8924076 59.170778,58.4136504 58.784768,58.797056 C57.9757256,59.5682619 56.7028414,59.5655537 55.897088,58.790912 L50.404352,53.298176 C51.4729984,52.4435415 52.4435415,51.4729984 53.298176,50.404352 L58.790912,55.897088 Z M38.912,55.296 C29.8633667,55.296 22.528,47.9606333 22.528,38.912 C22.528,29.8633667 29.8633667,22.528 38.912,22.528 C47.9606333,22.528 55.296,29.8633667 55.296,38.912 C55.2852791,47.9561889 47.9561889,55.2852791 38.912,55.296 Z M5.12,2.048 L48.128,2.048 C49.8246187,2.048 51.2,3.42338125 51.2,5.12 L51.2,8.192 L2.048,8.192 L2.048,5.12 C2.048,3.42338125 3.42338125,2.048 5.12,2.048 Z" id="Shape"></path>
                <circle id="Oval" cx="5.12" cy="5.12" r="1.024"></circle>
                <circle id="Oval" cx="9.216" cy="5.12" r="1.024"></circle>
                <circle id="Oval" cx="13.312" cy="5.12" r="1.024"></circle>
                <path d="M46.08,6.144 C46.08,6.70953958 46.5384605,7.168 47.104,7.168 C47.6695395,7.168 48.128,6.70953958 48.128,6.144 C48.6935395,6.144 49.152,5.68553958 49.152,5.12 C49.152,4.55446042 48.6935395,4.096 48.128,4.096 C48.128,3.53046042 47.6695395,3.072 47.104,3.072 C46.5384605,3.072 46.08,3.53046042 46.08,4.096 C45.5144605,4.096 45.056,4.55446042 45.056,5.12 C45.056,5.68553958 45.5144605,6.144 46.08,6.144 Z" id="Shape"></path>
                <path d="M31.744,6.144 L41.984,6.144 C42.5495395,6.144 43.008,5.68553958 43.008,5.12 C43.008,4.55446042 42.5495395,4.096 41.984,4.096 L31.744,4.096 C31.1784605,4.096 30.72,4.55446042 30.72,5.12 C30.72,5.68553958 31.1784605,6.144 31.744,6.144 Z" id="Shape"></path>
                <path d="M9.939968,12.588032 C9.54009615,12.1882809 8.89190385,12.1882809 8.492032,12.588032 L4.396032,16.684032 C3.99628089,17.0839039 3.99628089,17.7320961 4.396032,18.131968 L8.492032,22.227968 C8.89382798,22.6160355 9.53250281,22.6104857 9.92749423,22.2154942 C10.3224857,21.8205028 10.3280355,21.181828 9.939968,20.780032 L6.567936,17.408 L9.939968,14.035968 C10.3397191,13.6360961 10.3397191,12.9879039 9.939968,12.588032 L9.939968,12.588032 Z" id="Shape"></path>
                <path d="M21.203968,22.227968 L25.299968,18.131968 C25.6997191,17.7320961 25.6997191,17.0839039 25.299968,16.684032 L21.203968,12.588032 C20.802172,12.1999645 20.1634972,12.2055143 19.7685058,12.6005058 C19.3735143,12.9954972 19.3679645,13.634172 19.756032,14.035968 L23.128064,17.408 L19.756032,20.780032 C19.4898364,21.0371323 19.3830783,21.417859 19.4767901,21.7758795 C19.5705019,22.1339001 19.8500999,22.4134981 20.2081205,22.5072099 C20.566141,22.6009217 20.9468677,22.4941636 21.203968,22.227968 L21.203968,22.227968 Z" id="Shape"></path>
                <path d="M16.744448,12.352512 C16.4898617,12.2567021 16.207616,12.2661247 15.9599866,12.378701 C15.7123572,12.4912772 15.5196958,12.6977549 15.424512,12.952576 L12.352512,21.144576 C12.2569682,21.3989071 12.2664116,21.6807823 12.3787635,21.9281485 C12.4911153,22.1755146 12.6971651,22.3680928 12.951552,22.463488 C13.0670646,22.5056818 13.1890233,22.5275096 13.312,22.5280002 C13.7391322,22.5282668 14.1215647,22.2633803 14.271488,21.863424 L17.343488,13.671424 C17.4390318,13.4170929 17.4295884,13.1352177 17.3172365,12.8878515 C17.2048847,12.6404854 16.9988349,12.4479072 16.744448,12.352512 L16.744448,12.352512 Z" id="Shape"></path>
                <path d="M38.912,24.576 C30.9944458,24.576 24.576,30.9944458 24.576,38.912 C24.576,46.8295542 30.9944458,53.248 38.912,53.248 C46.8295542,53.248 53.248,46.8295542 53.248,38.912 C53.2395343,30.9979551 46.8260449,24.5844657 38.912,24.576 Z M38.912,51.2 C33.941968,51.2 29.4613172,48.206125 27.5593683,43.614414 C25.6574194,39.0227031 26.7087285,33.7374153 30.2230718,30.2230718 C33.7374153,26.7087285 39.0227031,25.6574194 43.614414,27.5593683 C48.206125,29.4613172 51.2,33.941968 51.2,38.912 C51.1926632,45.6954337 45.6954337,51.1926632 38.912,51.2 Z" id="Shape"></path>
                <path d="M46.380032,34.092032 L44.332032,36.140032 C43.9439645,36.541828 43.9495143,37.1805028 44.3445058,37.5754942 C44.7394972,37.9704857 45.378172,37.9760355 45.779968,37.587968 L46.08,37.287936 L46.08,43.008 C46.08,43.5735395 46.5384605,44.032 47.104,44.032 C47.6695395,44.032 48.128,43.5735395 48.128,43.008 L48.128,34.816 C48.1279116,34.4018986 47.878423,34.0286115 47.4958383,33.8701537 C47.1132535,33.711696 46.6728902,33.7992623 46.380032,34.092032 Z" id="Shape"></path>
                <path d="M33.160192,33.869824 C32.7774437,33.7112905 32.3368812,33.7989987 32.044032,34.092032 L29.996032,36.140032 C29.6079645,36.541828 29.6135143,37.1805028 30.0085058,37.5754942 C30.4034972,37.9704857 31.042172,37.9760355 31.443968,37.587968 L31.744,37.287936 L31.744,43.008 C31.744,43.5735395 32.2024605,44.032 32.768,44.032 C33.3335395,44.032 33.792,43.5735395 33.792,43.008 L33.792,34.816 C33.7921042,34.4018646 33.5427489,34.0284378 33.160192,33.869824 Z" id="Shape"></path>
                <path d="M38.912,33.792 C37.2153813,33.792 35.84,35.1673813 35.84,36.864 L35.84,40.96 C35.84,42.6566187 37.2153813,44.032 38.912,44.032 C40.6086187,44.032 41.984,42.6566187 41.984,40.96 L41.984,36.864 C41.984,35.1673813 40.6086187,33.792 38.912,33.792 Z M39.936,40.96 C39.936,41.5255395 39.4775395,41.984 38.912,41.984 C38.3464605,41.984 37.888,41.5255395 37.888,40.96 L37.888,36.864 C37.888,36.2984605 38.3464605,35.84 38.912,35.84 C39.4775395,35.84 39.936,36.2984605 39.936,36.864 L39.936,40.96 Z" id="Shape"></path>
            </g>
        </g>
    </g>
</svg>