<svg width="68" height="82" viewBox="0 0 68 82" fill="none" xmlns="http://www.w3.org/2000/svg">
<path fill-rule="evenodd" clip-rule="evenodd" d="M4.262 62.0893L33.881 77.5383L63.536 61.8383V19.6843L33.917 4.44929L4.262 19.6843V62.0893ZM0 18.7263V63.0133C0.00316264 63.5048 0.140436 63.9861 0.397017 64.4054C0.653598 64.8246 1.01975 65.1658 1.456 65.3923L32.673 81.6923C33.059 81.885 33.4846 81.9853 33.916 81.9853C34.3474 81.9853 34.773 81.885 35.159 81.6923L66.412 65.1793C66.8441 64.951 67.2051 64.6084 67.4557 64.1888C67.7063 63.7693 67.8368 63.289 67.833 62.8003V18.7623C67.8297 18.2709 67.6923 17.7898 67.4357 17.3708C67.1792 16.9517 66.8131 16.6107 66.377 16.3843L35.159 0.293289C34.7793 0.100485 34.3594 0 33.9335 0C33.5076 0 33.0877 0.100485 32.708 0.293289L1.456 16.3463C1.0196 16.5728 0.653351 16.9142 0.396759 17.3336C0.140168 17.7531 0.00298103 18.2346 0 18.7263H0Z" fill="#8985DB"/>
<path d="M35.5859 52.8574H32.9473V45.0781L33.1934 36.7793L26.6719 52.8574H24.6621L18.1543 36.793L18.4004 45.0781V52.8574H15.7617V32.9512H18.0312H19.1797L25.6738 49.2207L32.168 32.9512H35.5859V52.8574ZM46.0996 43.957C43.9941 43.3464 42.3945 42.5853 41.3008 41.6738C40.207 40.7533 39.6602 39.5592 39.6602 38.0918C39.6602 37.0618 39.9382 36.1367 40.4941 35.3164C41.0592 34.4961 41.8522 33.8535 42.873 33.3887C43.903 32.9147 45.0833 32.6777 46.4141 32.6777C47.8633 32.6777 49.1165 32.9557 50.1738 33.5117C51.2402 34.0677 52.0514 34.806 52.6074 35.7266C53.1725 36.6471 53.4551 37.6361 53.4551 38.6934H50.7891C50.7891 37.5267 50.4199 36.5924 49.6816 35.8906C48.9434 35.1797 47.8542 34.8242 46.4141 34.8242C45.0742 34.8242 44.0579 35.1204 43.3652 35.7129C42.6725 36.3053 42.3262 37.0846 42.3262 38.0508C42.3262 38.6159 42.4857 39.1126 42.8047 39.541C43.1237 39.9694 43.6204 40.3568 44.2949 40.7031C44.9694 41.0495 45.8581 41.3776 46.9609 41.6875C48.4922 42.1159 49.7318 42.6081 50.6797 43.1641C51.6367 43.7201 52.3431 44.3763 52.7988 45.1328C53.2637 45.8802 53.4961 46.7689 53.4961 47.7988C53.4961 48.8652 53.209 49.804 52.6348 50.6152C52.0697 51.4173 51.263 52.0371 50.2148 52.4746C49.1667 52.9121 47.9453 53.1309 46.5508 53.1309C45.2839 53.1309 44.0716 52.8984 42.9141 52.4336C41.7656 51.9596 40.8314 51.2669 40.1113 50.3555C39.3913 49.444 39.0312 48.3548 39.0312 47.0879H41.6836C41.6836 47.9629 41.9023 48.6921 42.3398 49.2754C42.7865 49.8587 43.3743 50.2917 44.1035 50.5742C44.8418 50.8568 45.6576 50.998 46.5508 50.998C47.9089 50.998 48.9616 50.7155 49.709 50.1504C50.4564 49.5853 50.8301 48.8105 50.8301 47.8262C50.8301 47.179 50.6934 46.6413 50.4199 46.2129C50.1556 45.7754 49.6862 45.3835 49.0117 45.0371C48.3372 44.6816 47.3665 44.3216 46.0996 43.957Z" fill="#FC9D68"/>
<path d="M35.5859 52.8574V53.1574H35.8859V52.8574H35.5859ZM32.9473 52.8574H32.6473V53.1574H32.9473V52.8574ZM32.9473 45.0781L32.6473 45.0692V45.0781H32.9473ZM33.1934 36.7793L33.4932 36.7882L32.9154 36.6665L33.1934 36.7793ZM26.6719 52.8574V53.1574H26.8739L26.9499 52.9702L26.6719 52.8574ZM24.6621 52.8574L24.3841 52.9701L24.46 53.1574H24.6621V52.8574ZM18.1543 36.793L18.4323 36.6803L17.8544 36.8019L18.1543 36.793ZM18.4004 45.0781H18.7005L18.7003 45.0692L18.4004 45.0781ZM18.4004 52.8574V53.1574H18.7004V52.8574H18.4004ZM15.7617 52.8574H15.4617V53.1574H15.7617V52.8574ZM15.7617 32.9512V32.6512H15.4617V32.9512H15.7617ZM19.1797 32.9512L19.4583 32.84L19.383 32.6512H19.1797V32.9512ZM25.6738 49.2207L25.3952 49.3319L25.6738 50.0299L25.9525 49.3319L25.6738 49.2207ZM32.168 32.9512V32.6512H31.9647L31.8893 32.84L32.168 32.9512ZM35.5859 32.9512H35.8859V32.6512H35.5859V32.9512ZM35.5859 52.5574H32.9473V53.1574H35.5859V52.5574ZM33.2473 52.8574V45.0781H32.6473V52.8574H33.2473ZM33.2471 45.087L33.4932 36.7882L32.8935 36.7704L32.6474 45.0692L33.2471 45.087ZM32.9154 36.6665L26.3939 52.7447L26.9499 52.9702L33.4714 36.8921L32.9154 36.6665ZM26.6719 52.5574H24.6621V53.1574H26.6719V52.5574ZM24.9402 52.7448L18.4323 36.6803L17.8762 36.9056L24.3841 52.9701L24.9402 52.7448ZM17.8544 36.8019L18.1005 45.087L18.7003 45.0692L18.4542 36.7841L17.8544 36.8019ZM18.1004 45.0781V52.8574H18.7004V45.0781H18.1004ZM18.4004 52.5574H15.7617V53.1574H18.4004V52.5574ZM16.0617 52.8574V32.9512H15.4617V52.8574H16.0617ZM15.7617 33.2512H18.0312V32.6512H15.7617V33.2512ZM18.0312 33.2512H19.1797V32.6512H18.0312V33.2512ZM18.9011 33.0624L25.3952 49.3319L25.9525 49.1095L19.4583 32.84L18.9011 33.0624ZM25.9525 49.3319L32.4466 33.0624L31.8893 32.84L25.3952 49.1095L25.9525 49.3319ZM32.168 33.2512H35.5859V32.6512H32.168V33.2512ZM35.2859 32.9512V52.8574H35.8859V32.9512H35.2859ZM46.0996 43.957L46.016 44.2452L46.0166 44.2453L46.0996 43.957ZM41.3008 41.6738L41.1076 41.9034L41.1087 41.9043L41.3008 41.6738ZM40.4941 35.3164L40.2471 35.1462L40.2458 35.1481L40.4941 35.3164ZM42.873 33.3887L42.9974 33.6617L42.9985 33.6612L42.873 33.3887ZM50.1738 33.5117L50.0342 33.7772L50.0351 33.7777L50.1738 33.5117ZM52.6074 35.7266L52.3506 35.8817L52.3518 35.8835L52.6074 35.7266ZM53.4551 38.6934V38.9934H53.7551V38.6934H53.4551ZM50.7891 38.6934H50.4891V38.9934H50.7891V38.6934ZM49.6816 35.8906L49.4735 36.1067L49.4749 36.1081L49.6816 35.8906ZM44.2949 40.7031L44.1579 40.97L44.2949 40.7031ZM46.9609 41.6875L46.8798 41.9763L46.8801 41.9764L46.9609 41.6875ZM50.6797 43.1641L50.5279 43.4228L50.529 43.4235L50.6797 43.1641ZM52.7988 45.1328L52.5418 45.2876L52.5441 45.2913L52.7988 45.1328ZM52.6348 50.6152L52.3899 50.4419L52.3895 50.4424L52.6348 50.6152ZM42.9141 52.4336L42.7996 52.7109L42.8023 52.712L42.9141 52.4336ZM39.0312 47.0879V46.7879H38.7312V47.0879H39.0312ZM41.6836 47.0879H41.9836V46.7879H41.6836V47.0879ZM42.3398 49.2754L42.0998 49.4554L42.1016 49.4578L42.3398 49.2754ZM44.1035 50.5742L43.9951 50.854L43.9963 50.8544L44.1035 50.5742ZM50.4199 46.2129L50.1631 46.3681L50.167 46.3743L50.4199 46.2129ZM49.0117 45.0371L48.8718 45.3025L48.8747 45.304L49.0117 45.0371ZM46.1832 43.6689C44.0982 43.0642 42.5423 42.3179 41.4928 41.4434L41.1087 41.9043C42.2467 42.8526 43.8901 43.6285 46.016 44.2452L46.1832 43.6689ZM41.494 41.4443C40.47 40.5825 39.9602 39.4734 39.9602 38.0918H39.3602C39.3602 39.6451 39.9441 40.9241 41.1076 41.9034L41.494 41.4443ZM39.9602 38.0918C39.9602 37.1194 40.2215 36.2533 40.7425 35.4847L40.2458 35.1481C39.6548 36.0201 39.3602 37.0043 39.3602 38.0918H39.9602ZM40.7412 35.4866C41.2717 34.7165 42.0196 34.1069 42.9974 33.6617L42.7487 33.1156C41.6848 33.6001 40.8468 34.2757 40.2471 35.1462L40.7412 35.4866ZM42.9985 33.6612C43.9828 33.2082 45.1192 32.9777 46.4141 32.9777V32.3777C45.0475 32.3777 43.8232 32.6212 42.7476 33.1161L42.9985 33.6612ZM46.4141 32.9777C47.8249 32.9777 49.0282 33.2482 50.0342 33.7772L50.3135 33.2462C49.2049 32.6632 47.9017 32.3777 46.4141 32.3777V32.9777ZM50.0351 33.7777C51.0587 34.3114 51.8264 35.0136 52.3506 35.8817L52.8642 35.5715C52.2765 34.5984 51.4218 33.824 50.3125 33.2457L50.0351 33.7777ZM52.3518 35.8835C52.8885 36.7579 53.1551 37.6927 53.1551 38.6934H53.7551C53.7551 37.5794 53.4565 36.5363 52.8631 35.5696L52.3518 35.8835ZM53.4551 38.3934H50.7891V38.9934H53.4551V38.3934ZM51.0891 38.6934C51.0891 37.4576 50.695 36.4401 49.8883 35.6732L49.4749 36.1081C50.1448 36.7448 50.4891 37.5958 50.4891 38.6934H51.0891ZM49.8897 35.6745C49.0763 34.8912 47.9001 34.5242 46.4141 34.5242V35.1242C47.8082 35.1242 48.8104 35.4682 49.4735 36.1067L49.8897 35.6745ZM46.4141 34.5242C45.0354 34.5242 43.9378 34.8284 43.1702 35.4849L43.5602 35.9409C44.178 35.4125 45.113 35.1242 46.4141 35.1242V34.5242ZM43.1702 35.4849C42.4065 36.1381 42.0262 37.0029 42.0262 38.0508H42.6262C42.6262 37.1663 42.9386 36.4726 43.5602 35.9409L43.1702 35.4849ZM42.0262 38.0508C42.0262 38.6765 42.2042 39.2369 42.5641 39.7202L43.0453 39.3618C42.7672 38.9883 42.6262 38.5553 42.6262 38.0508H42.0262ZM42.5641 39.7202C42.9195 40.1974 43.4586 40.6109 44.1579 40.97L44.432 40.4363C43.7823 40.1026 43.3279 39.7414 43.0453 39.3618L42.5641 39.7202ZM44.1579 40.97C44.8568 41.3289 45.7663 41.6634 46.8798 41.9763L47.0421 41.3987C45.9498 41.0918 45.082 40.7701 44.432 40.4363L44.1579 40.97ZM46.8801 41.9764C48.3965 42.4006 49.6097 42.8843 50.5279 43.4228L50.8315 42.9053C49.8538 42.3319 48.5878 41.8311 47.0418 41.3986L46.8801 41.9764ZM50.529 43.4235C51.4532 43.9604 52.118 44.584 52.5419 45.2876L53.0558 44.978C52.5682 44.1686 51.8202 43.4797 50.8304 42.9047L50.529 43.4235ZM52.5441 45.2913C52.9746 45.9835 53.1961 46.8152 53.1961 47.7988H53.7961C53.7961 46.7226 53.5527 45.7769 53.0536 44.9744L52.5441 45.2913ZM53.1961 47.7988C53.1961 48.8079 52.9256 49.6852 52.3899 50.4419L52.8796 50.7886C53.4924 49.9229 53.7961 48.9225 53.7961 47.7988H53.1961ZM52.3895 50.4424C51.8618 51.1914 51.1037 51.7785 50.0993 52.1978L50.3304 52.7515C51.4224 52.2957 52.2775 51.6432 52.88 50.788L52.3895 50.4424ZM50.0993 52.1978C49.095 52.6169 47.9144 52.8309 46.5508 52.8309V53.4309C47.9762 53.4309 49.2383 53.2073 50.3304 52.7515L50.0993 52.1978ZM46.5508 52.8309C45.3215 52.8309 44.1473 52.6055 43.0259 52.1552L42.8023 52.712C43.9959 53.1913 45.2462 53.4309 46.5508 53.4309V52.8309ZM43.0285 52.1563C41.9241 51.7005 41.0327 51.0379 40.3467 50.1695L39.8759 50.5414C40.63 51.496 41.6071 52.2188 42.7996 52.7109L43.0285 52.1563ZM40.3467 50.1695C39.6724 49.3159 39.3313 48.2938 39.3313 47.0879H38.7312C38.7312 48.4158 39.1102 49.5721 39.8759 50.5414L40.3467 50.1695ZM39.0312 47.3879H41.6836V46.7879H39.0312V47.3879ZM41.3836 47.0879C41.3836 48.0145 41.6161 48.8104 42.0998 49.4554L42.5798 49.0954C42.1886 48.5737 41.9836 47.9113 41.9836 47.0879H41.3836ZM42.1016 49.4578C42.5839 50.0877 43.218 50.5528 43.9951 50.854L44.2119 50.2945C43.5307 50.0305 42.989 49.6297 42.578 49.093L42.1016 49.4578ZM43.9963 50.8544C44.773 51.1516 45.6256 51.298 46.5508 51.298V50.698C45.6895 50.698 44.9106 50.5619 44.2107 50.294L43.9963 50.8544ZM46.5508 51.298C47.9459 51.298 49.0716 51.0084 49.8899 50.3897L49.5281 49.9111C48.8515 50.4226 47.8718 50.698 46.5508 50.698V51.298ZM49.8899 50.3897C50.7166 49.7646 51.1301 48.899 51.1301 47.8262H50.5301C50.5301 48.7221 50.1961 49.406 49.5281 49.9111L49.8899 50.3897ZM51.1301 47.8262C51.1301 47.1373 50.9844 46.5397 50.6728 46.0515L50.167 46.3743C50.4023 46.7429 50.5301 47.2207 50.5301 47.8262H51.1301ZM50.6767 46.0578C50.3729 45.5549 49.8504 45.1305 49.1488 44.7702L48.8747 45.304C49.522 45.6364 49.9383 45.9959 50.1631 46.368L50.6767 46.0578ZM49.1516 44.7717C48.4505 44.4022 47.4572 44.0355 46.1826 43.6687L46.0166 44.2453C47.2759 44.6077 48.224 44.9611 48.8718 45.3025L49.1516 44.7717Z" fill="#FC9D68"/>
<path d="M34.5859 52H31.9473V44.2207L32.1934 35.9219L25.6719 52H23.6621L17.1543 35.9355L17.4004 44.2207V52H14.7617V32.0938H17.0312H18.1797L24.6738 48.3633L31.168 32.0938H34.5859V52ZM45.0996 43.0996C42.9941 42.4889 41.3945 41.7279 40.3008 40.8164C39.207 39.8958 38.6602 38.7018 38.6602 37.2344C38.6602 36.2044 38.9382 35.2793 39.4941 34.459C40.0592 33.6387 40.8522 32.9961 41.873 32.5312C42.903 32.0573 44.0833 31.8203 45.4141 31.8203C46.8633 31.8203 48.1165 32.0983 49.1738 32.6543C50.2402 33.2103 51.0514 33.9486 51.6074 34.8691C52.1725 35.7897 52.4551 36.7786 52.4551 37.8359H49.7891C49.7891 36.6693 49.4199 35.735 48.6816 35.0332C47.9434 34.3223 46.8542 33.9668 45.4141 33.9668C44.0742 33.9668 43.0579 34.263 42.3652 34.8555C41.6725 35.4479 41.3262 36.2272 41.3262 37.1934C41.3262 37.7585 41.4857 38.2552 41.8047 38.6836C42.1237 39.112 42.6204 39.4993 43.2949 39.8457C43.9694 40.1921 44.8581 40.5202 45.9609 40.8301C47.4922 41.2585 48.7318 41.7507 49.6797 42.3066C50.6367 42.8626 51.3431 43.5189 51.7988 44.2754C52.2637 45.0228 52.4961 45.9115 52.4961 46.9414C52.4961 48.0078 52.209 48.9466 51.6348 49.7578C51.0697 50.5599 50.263 51.1797 49.2148 51.6172C48.1667 52.0547 46.9453 52.2734 45.5508 52.2734C44.2839 52.2734 43.0716 52.041 41.9141 51.5762C40.7656 51.1022 39.8314 50.4095 39.1113 49.498C38.3913 48.5866 38.0312 47.4974 38.0312 46.2305H40.6836C40.6836 47.1055 40.9023 47.8346 41.3398 48.418C41.7865 49.0013 42.3743 49.4342 43.1035 49.7168C43.8418 49.9993 44.6576 50.1406 45.5508 50.1406C46.9089 50.1406 47.9616 49.8581 48.709 49.293C49.4564 48.7279 49.8301 47.9531 49.8301 46.9688C49.8301 46.3216 49.6934 45.7839 49.4199 45.3555C49.1556 44.918 48.6862 44.526 48.0117 44.1797C47.3372 43.8242 46.3665 43.4642 45.0996 43.0996Z" fill="#E77830"/>
<path d="M34.5859 52V52.3H34.8859V52H34.5859ZM31.9473 52H31.6473V52.3H31.9473V52ZM31.9473 44.2207L31.6473 44.2118V44.2207H31.9473ZM32.1934 35.9219L32.4932 35.9308L31.9154 35.8091L32.1934 35.9219ZM25.6719 52V52.3H25.8739L25.9499 52.1128L25.6719 52ZM23.6621 52L23.3841 52.1126L23.46 52.3H23.6621V52ZM17.1543 35.9355L17.4323 35.8229L16.8544 35.9445L17.1543 35.9355ZM17.4004 44.2207H17.7005L17.7003 44.2118L17.4004 44.2207ZM17.4004 52V52.3H17.7004V52H17.4004ZM14.7617 52H14.4617V52.3H14.7617V52ZM14.7617 32.0938V31.7937H14.4617V32.0938H14.7617ZM18.1797 32.0938L18.4583 31.9825L18.383 31.7937H18.1797V32.0938ZM24.6738 48.3633L24.3952 48.4745L24.6738 49.1725L24.9525 48.4745L24.6738 48.3633ZM31.168 32.0938V31.7937H30.9647L30.8893 31.9825L31.168 32.0938ZM34.5859 32.0938H34.8859V31.7937H34.5859V32.0938ZM34.5859 51.7H31.9473V52.3H34.5859V51.7ZM32.2473 52V44.2207H31.6473V52H32.2473ZM32.2471 44.2296L32.4932 35.9308L31.8935 35.913L31.6474 44.2118L32.2471 44.2296ZM31.9154 35.8091L25.3939 51.8872L25.9499 52.1128L32.4714 36.0346L31.9154 35.8091ZM25.6719 51.7H23.6621V52.3H25.6719V51.7ZM23.9402 51.8874L17.4323 35.8229L16.8762 36.0482L23.3841 52.1126L23.9402 51.8874ZM16.8544 35.9445L17.1005 44.2296L17.7003 44.2118L17.4542 35.9266L16.8544 35.9445ZM17.1004 44.2207V52H17.7004V44.2207H17.1004ZM17.4004 51.7H14.7617V52.3H17.4004V51.7ZM15.0617 52V32.0938H14.4617V52H15.0617ZM14.7617 32.3938H17.0312V31.7937H14.7617V32.3938ZM17.0312 32.3938H18.1797V31.7937H17.0312V32.3938ZM17.9011 32.205L24.3952 48.4745L24.9525 48.2521L18.4583 31.9825L17.9011 32.205ZM24.9525 48.4745L31.4466 32.205L30.8893 31.9825L24.3952 48.2521L24.9525 48.4745ZM31.168 32.3938H34.5859V31.7937H31.168V32.3938ZM34.2859 32.0938V52H34.8859V32.0938H34.2859ZM45.0996 43.0996L45.016 43.3877L45.0166 43.3879L45.0996 43.0996ZM40.3008 40.8164L40.1076 41.0459L40.1087 41.0469L40.3008 40.8164ZM39.4941 34.459L39.2471 34.2888L39.2458 34.2907L39.4941 34.459ZM41.873 32.5312L41.9974 32.8043L41.9985 32.8038L41.873 32.5312ZM49.1738 32.6543L49.0342 32.9198L49.0351 32.9203L49.1738 32.6543ZM51.6074 34.8691L51.3506 35.0242L51.3518 35.0261L51.6074 34.8691ZM52.4551 37.8359V38.1359H52.7551V37.8359H52.4551ZM49.7891 37.8359H49.4891V38.1359H49.7891V37.8359ZM48.6816 35.0332L48.4735 35.2493L48.4749 35.2506L48.6816 35.0332ZM43.2949 39.8457L43.1579 40.1126L43.2949 39.8457ZM45.9609 40.8301L45.8798 41.1189L45.8801 41.119L45.9609 40.8301ZM49.6797 42.3066L49.5279 42.5654L49.529 42.566L49.6797 42.3066ZM51.7988 44.2754L51.5418 44.4302L51.5441 44.4338L51.7988 44.2754ZM51.6348 49.7578L51.3899 49.5845L51.3895 49.585L51.6348 49.7578ZM41.9141 51.5762L41.7996 51.8535L41.8023 51.8546L41.9141 51.5762ZM38.0312 46.2305V45.9305H37.7312V46.2305H38.0312ZM40.6836 46.2305H40.9836V45.9305H40.6836V46.2305ZM41.3398 48.418L41.0998 48.598L41.1016 48.6003L41.3398 48.418ZM43.1035 49.7168L42.9951 49.9965L42.9963 49.997L43.1035 49.7168ZM49.4199 45.3555L49.1631 45.5107L49.167 45.5169L49.4199 45.3555ZM48.0117 44.1797L47.8718 44.4451L47.8747 44.4466L48.0117 44.1797ZM45.1832 42.8115C43.0982 42.2067 41.5423 41.4605 40.4928 40.5859L40.1087 41.0469C41.2467 41.9952 42.8901 42.7711 45.016 43.3877L45.1832 42.8115ZM40.494 40.5869C39.47 39.725 38.9602 38.616 38.9602 37.2344H38.3602C38.3602 38.7876 38.9441 40.0666 40.1076 41.0459L40.494 40.5869ZM38.9602 37.2344C38.9602 36.2619 39.2215 35.3959 39.7425 34.6273L39.2458 34.2907C38.6548 35.1627 38.3602 36.1469 38.3602 37.2344H38.9602ZM39.7412 34.6292C40.2717 33.8591 41.0196 33.2495 41.9974 32.8043L41.7487 32.2582C40.6848 32.7427 39.8468 33.4183 39.2471 34.2888L39.7412 34.6292ZM41.9985 32.8038C42.9828 32.3508 44.1192 32.1203 45.4141 32.1203V31.5203C44.0475 31.5203 42.8232 31.7638 41.7476 32.2587L41.9985 32.8038ZM45.4141 32.1203C46.8249 32.1203 48.0282 32.3908 49.0342 32.9198L49.3135 32.3888C48.2049 31.8058 46.9017 31.5203 45.4141 31.5203V32.1203ZM49.0351 32.9203C50.0587 33.454 50.8264 34.1562 51.3506 35.0242L51.8642 34.714C51.2765 33.741 50.4218 32.9666 49.3125 32.3883L49.0351 32.9203ZM51.3518 35.0261C51.8885 35.9005 52.1551 36.8353 52.1551 37.8359H52.7551C52.7551 36.722 52.4565 35.6789 51.8631 34.7122L51.3518 35.0261ZM52.4551 37.5359H49.7891V38.1359H52.4551V37.5359ZM50.0891 37.8359C50.0891 36.6001 49.695 35.5826 48.8883 34.8158L48.4749 35.2506C49.1448 35.8874 49.4891 36.7384 49.4891 37.8359H50.0891ZM48.8897 34.8171C48.0763 34.0338 46.9001 33.6668 45.4141 33.6668V34.2668C46.8082 34.2668 47.8104 34.6108 48.4735 35.2493L48.8897 34.8171ZM45.4141 33.6668C44.0354 33.6668 42.9378 33.971 42.1702 34.6275L42.5602 35.0835C43.178 34.5551 44.113 34.2668 45.4141 34.2668V33.6668ZM42.1702 34.6275C41.4065 35.2807 41.0262 36.1455 41.0262 37.1934H41.6262C41.6262 36.3089 41.9386 35.6151 42.5602 35.0835L42.1702 34.6275ZM41.0262 37.1934C41.0262 37.819 41.2042 38.3795 41.5641 38.8628L42.0453 38.5044C41.7672 38.1309 41.6262 37.6979 41.6262 37.1934H41.0262ZM41.5641 38.8628C41.9195 39.34 42.4586 39.7535 43.1579 40.1126L43.432 39.5788C42.7823 39.2452 42.3279 38.8839 42.0453 38.5044L41.5641 38.8628ZM43.1579 40.1126C43.8568 40.4715 44.7663 40.806 45.8798 41.1189L46.0421 40.5413C44.9498 40.2343 44.082 39.9126 43.432 39.5788L43.1579 40.1126ZM45.8801 41.119C47.3965 41.5432 48.6097 42.0269 49.5279 42.5654L49.8315 42.0479C48.8538 41.4744 47.5878 40.9737 46.0418 40.5412L45.8801 41.119ZM49.529 42.566C50.4532 43.103 51.118 43.7266 51.5419 44.4302L52.0558 44.1206C51.5682 43.3112 50.8202 42.6223 49.8304 42.0472L49.529 42.566ZM51.5441 44.4338C51.9746 45.1261 52.1961 45.9578 52.1961 46.9414H52.7961C52.7961 45.8651 52.5527 44.9195 52.0536 44.1169L51.5441 44.4338ZM52.1961 46.9414C52.1961 47.9505 51.9256 48.8277 51.3899 49.5845L51.8796 49.9311C52.4924 49.0655 52.7961 48.0651 52.7961 46.9414H52.1961ZM51.3895 49.585C50.8618 50.334 50.1037 50.9211 49.0993 51.3403L49.3304 51.894C50.4224 51.4383 51.2775 50.7858 51.88 49.9306L51.3895 49.585ZM49.0993 51.3403C48.095 51.7595 46.9144 51.9734 45.5508 51.9734V52.5734C46.9762 52.5734 48.2383 52.3499 49.3304 51.894L49.0993 51.3403ZM45.5508 51.9734C44.3215 51.9734 43.1473 51.7481 42.0259 51.2978L41.8023 51.8546C42.9959 52.3339 44.2462 52.5734 45.5508 52.5734V51.9734ZM42.0285 51.2989C40.9241 50.8431 40.0327 50.1804 39.3467 49.3121L38.8759 49.684C39.63 50.6386 40.6071 51.3613 41.7996 51.8535L42.0285 51.2989ZM39.3467 49.3121C38.6724 48.4585 38.3313 47.4364 38.3313 46.2305H37.7312C37.7312 47.5584 38.1102 48.7147 38.8759 49.684L39.3467 49.3121ZM38.0312 46.5305H40.6836V45.9305H38.0312V46.5305ZM40.3836 46.2305C40.3836 47.157 40.6161 47.953 41.0998 48.598L41.5798 48.238C41.1886 47.7163 40.9836 47.0539 40.9836 46.2305H40.3836ZM41.1016 48.6003C41.5839 49.2303 42.218 49.6954 42.9951 49.9965L43.2119 49.4371C42.5307 49.1731 41.989 48.7723 41.578 48.2356L41.1016 48.6003ZM42.9963 49.997C43.773 50.2942 44.6256 50.4406 45.5508 50.4406V49.8406C44.6895 49.8406 43.9106 49.7045 43.2107 49.4366L42.9963 49.997ZM45.5508 50.4406C46.9459 50.4406 48.0716 50.151 48.8899 49.5323L48.5281 49.0537C47.8515 49.5652 46.8718 49.8406 45.5508 49.8406V50.4406ZM48.8899 49.5323C49.7166 48.9072 50.1301 48.0416 50.1301 46.9688H49.5301C49.5301 47.8647 49.1961 48.5485 48.5281 49.0537L48.8899 49.5323ZM50.1301 46.9688C50.1301 46.2799 49.9844 45.6822 49.6728 45.1941L49.167 45.5169C49.4023 45.8855 49.5301 46.3633 49.5301 46.9688H50.1301ZM49.6767 45.2003C49.3729 44.6975 48.8504 44.2731 48.1488 43.9128L47.8747 44.4466C48.522 44.779 48.9383 45.1384 49.1631 45.5106L49.6767 45.2003ZM48.1516 43.9143C47.4505 43.5448 46.4572 43.1781 45.1826 42.8113L45.0166 43.3879C46.2759 43.7503 47.224 44.1036 47.8718 44.4451L48.1516 43.9143Z" fill="#E77830"/>
</svg>
