<svg width="68" height="82" viewBox="0 0 68 82" fill="none" xmlns="http://www.w3.org/2000/svg">
<path fill-rule="evenodd" clip-rule="evenodd" d="M4.262 62.0893L33.881 77.5383L63.536 61.8383V19.6843L33.917 4.44929L4.262 19.6843V62.0893ZM0 18.7263V63.0133C0.00316264 63.5048 0.140436 63.9861 0.397017 64.4054C0.653598 64.8246 1.01975 65.1658 1.456 65.3923L32.673 81.6923C33.059 81.885 33.4846 81.9853 33.916 81.9853C34.3474 81.9853 34.773 81.885 35.159 81.6923L66.412 65.1793C66.8441 64.951 67.2051 64.6084 67.4557 64.1888C67.7063 63.7693 67.8368 63.289 67.833 62.8003V18.7623C67.8297 18.2709 67.6923 17.7898 67.4357 17.3708C67.1792 16.9517 66.8131 16.6107 66.377 16.3843L35.159 0.293289C34.7793 0.100485 34.3594 0 33.9335 0C33.5076 0 33.0877 0.100485 32.708 0.293289L1.456 16.3463C1.0196 16.5728 0.653351 16.9142 0.396759 17.3336C0.140168 17.7531 0.00298103 18.2346 0 18.7263H0Z" fill="#8985DB"/>
<path d="M29.0097 51.7598H26.735V45.0535L26.9471 37.8993L21.3251 51.7598H19.5926L13.9824 37.9111L14.1945 45.0535V51.7598H11.9198V34.5992H13.8763H14.8664L20.4648 48.6247L26.0632 34.5992H29.0097V51.7598ZM38.0732 44.087C36.2582 43.5606 34.8792 42.9045 33.9363 42.1187C32.9934 41.3251 32.522 40.2958 32.522 39.0308C32.522 38.1429 32.7616 37.3453 33.2409 36.6382C33.7281 35.931 34.4117 35.3771 35.2917 34.9763C36.1796 34.5677 37.1971 34.3634 38.3443 34.3634C39.5936 34.3634 40.674 34.6031 41.5855 35.0824C42.5048 35.5617 43.2041 36.1982 43.6834 36.9918C44.1706 37.7854 44.4142 38.6379 44.4142 39.5493H42.1159C42.1159 38.5436 41.7976 37.7382 41.1612 37.1332C40.5247 36.5203 39.5858 36.2139 38.3443 36.2139C37.1893 36.2139 36.3132 36.4692 35.716 36.98C35.1188 37.4907 34.8203 38.1625 34.8203 38.9954C34.8203 39.4826 34.9578 39.9108 35.2328 40.2801C35.5078 40.6494 35.936 40.9833 36.5175 41.2819C37.0989 41.5805 37.865 41.8634 38.8158 42.1305C40.1358 42.4998 41.2044 42.9241 42.0216 43.4034C42.8466 43.8827 43.4556 44.4484 43.8484 45.1006C44.2492 45.7449 44.4495 46.511 44.4495 47.3989C44.4495 48.3182 44.202 49.1275 43.707 49.8268C43.2198 50.5183 42.5245 51.0526 41.6209 51.4298C40.7173 51.8069 39.6644 51.9955 38.4622 51.9955C37.37 51.9955 36.325 51.7951 35.3271 51.3944C34.337 50.9858 33.5316 50.3886 32.9109 49.6029C32.2902 48.8172 31.9798 47.8782 31.9798 46.786H34.2663C34.2663 47.5403 34.4549 48.1689 34.832 48.6718C35.2171 49.1747 35.7239 49.5479 36.3525 49.7915C36.9889 50.0351 37.6921 50.1569 38.4622 50.1569C39.6329 50.1569 40.5405 49.9133 41.1848 49.4261C41.8291 48.939 42.1512 48.2711 42.1512 47.4225C42.1512 46.8646 42.0334 46.401 41.7976 46.0317C41.5698 45.6546 41.1651 45.3167 40.5837 45.0181C40.0022 44.7117 39.1654 44.4013 38.0732 44.087ZM46.7832 51.7598V50.204L52.4052 43.9456C53.1045 43.1677 53.6427 42.5155 54.0199 41.9891C54.397 41.4548 54.6602 40.9755 54.8095 40.5512C54.9667 40.119 55.0452 39.6711 55.0452 39.2075C55.0452 38.634 54.9274 38.1154 54.6917 37.6518C54.4559 37.1803 54.1141 36.811 53.6663 36.5439C53.2184 36.2689 52.688 36.1314 52.0751 36.1314C50.9594 36.1314 50.1108 36.4496 49.5293 37.086C48.9479 37.7225 48.6572 38.575 48.6572 39.6436H46.4532C46.4532 38.6615 46.6692 37.7696 47.1014 36.9682C47.5336 36.1667 48.1739 35.5342 49.0225 35.0706C49.8711 34.5992 50.8887 34.3634 52.0751 34.3634C53.1359 34.3634 54.0552 34.556 54.8331 34.941C55.611 35.3181 56.2081 35.8524 56.6246 36.5439C57.041 37.2353 57.2493 38.0368 57.2493 38.9483C57.2493 39.8911 56.9585 40.8655 56.3771 41.8712C55.8035 42.8691 55.0217 43.9063 54.0316 44.9827L49.4351 49.9918H58.0389V51.7598H46.7832Z" fill="#FC9D68"/>
<path d="M29.0097 51.7598V52.0184H29.2683V51.7598H29.0097ZM26.735 51.7598H26.4764V52.0184H26.735V51.7598ZM26.735 45.0535L26.4764 45.0458V45.0535H26.735ZM26.9471 37.8993L27.2056 37.907L26.7075 37.8021L26.9471 37.8993ZM21.3251 51.7598V52.0184H21.4993L21.5648 51.857L21.3251 51.7598ZM19.5926 51.7598L19.3529 51.8569L19.4183 52.0184H19.5926V51.7598ZM13.9824 37.9111L14.2221 37.814L13.7239 37.9187L13.9824 37.9111ZM14.1945 45.0535H14.4533L14.4531 45.0458L14.1945 45.0535ZM14.1945 51.7598V52.0184H14.4532V51.7598H14.1945ZM11.9198 51.7598H11.6612V52.0184H11.9198V51.7598ZM11.9198 34.5992V34.3405H11.6612V34.5992H11.9198ZM14.8664 34.5992L15.1065 34.5033L15.0416 34.3405H14.8664V34.5992ZM20.4648 48.6247L20.2246 48.7205L20.4648 49.3223L20.705 48.7205L20.4648 48.6247ZM26.0632 34.5992V34.3405H25.8879L25.823 34.5033L26.0632 34.5992ZM29.0097 34.5992H29.2683V34.3405H29.0097V34.5992ZM29.0097 51.5011H26.735V52.0184H29.0097V51.5011ZM26.9936 51.7598V45.0535H26.4764V51.7598H26.9936ZM26.9935 45.0611L27.2056 37.907L26.6886 37.8916L26.4765 45.0458L26.9935 45.0611ZM26.7075 37.8021L21.0855 51.6626L21.5648 51.857L27.1868 37.9965L26.7075 37.8021ZM21.3251 51.5011H19.5926V52.0184H21.3251V51.5011ZM19.8323 51.6627L14.2221 37.814L13.7427 38.0082L19.3529 51.8569L19.8323 51.6627ZM13.7239 37.9187L13.936 45.0611L14.4531 45.0458L14.2409 37.9034L13.7239 37.9187ZM13.9359 45.0535V51.7598H14.4532V45.0535H13.9359ZM14.1945 51.5011H11.9198V52.0184H14.1945V51.5011ZM12.1784 51.7598V34.5992H11.6612V51.7598H12.1784ZM11.9198 34.8578H13.8763V34.3405H11.9198V34.8578ZM13.8763 34.8578H14.8664V34.3405H13.8763V34.8578ZM14.6262 34.695L20.2246 48.7205L20.705 48.5288L15.1065 34.5033L14.6262 34.695ZM20.705 48.7205L26.3034 34.695L25.823 34.5033L20.2246 48.5288L20.705 48.7205ZM26.0632 34.8578H29.0097V34.3405H26.0632V34.8578ZM28.7511 34.5992V51.7598H29.2683V34.5992H28.7511ZM38.0732 44.087L38.0012 44.3354L38.0017 44.3355L38.0732 44.087ZM33.9363 42.1187L33.7698 42.3166L33.7707 42.3174L33.9363 42.1187ZM33.2409 36.6382L33.0279 36.4914L33.0268 36.4931L33.2409 36.6382ZM35.2917 34.9763L35.3989 35.2117L35.3998 35.2113L35.2917 34.9763ZM41.5855 35.0824L41.4651 35.3113L41.4659 35.3117L41.5855 35.0824ZM43.6834 36.9918L43.462 37.1255L43.463 37.1271L43.6834 36.9918ZM44.4142 39.5493V39.808H44.6728V39.5493H44.4142ZM42.1159 39.5493H41.8572V39.808H42.1159V39.5493ZM41.1612 37.1332L40.9818 37.3195L40.983 37.3206L41.1612 37.1332ZM35.2328 40.2801L35.4402 40.1256L35.2328 40.2801ZM36.5175 41.2819L36.3993 41.512L36.5175 41.2819ZM38.8158 42.1305L38.7458 42.3795L38.7461 42.3796L38.8158 42.1305ZM42.0216 43.4034L41.8907 43.6265L41.8917 43.627L42.0216 43.4034ZM43.8484 45.1006L43.6269 45.2341L43.6288 45.2372L43.8484 45.1006ZM43.707 49.8268L43.4959 49.6774L43.4956 49.6779L43.707 49.8268ZM35.3271 51.3944L35.2284 51.6335L35.2307 51.6344L35.3271 51.3944ZM31.9798 46.786V46.5274H31.7212V46.786H31.9798ZM34.2663 46.786H34.5249V46.5274H34.2663V46.786ZM34.832 48.6718L34.6251 48.827L34.6267 48.829L34.832 48.6718ZM36.3525 49.7915L36.259 50.0326L36.26 50.033L36.3525 49.7915ZM41.7976 46.0317L41.5762 46.1655L41.5796 46.1709L41.7976 46.0317ZM40.5837 45.0181L40.4631 45.2469L40.4655 45.2482L40.5837 45.0181ZM38.1453 43.8386C36.3479 43.3173 35.0066 42.674 34.1019 41.92L33.7707 42.3174C34.7518 43.1349 36.1685 43.8038 38.0012 44.3354L38.1453 43.8386ZM34.1028 41.9209C33.2201 41.1779 32.7806 40.2218 32.7806 39.0308H32.2633C32.2633 40.3698 32.7667 41.4724 33.7698 42.3166L34.1028 41.9209ZM32.7806 39.0308C32.7806 38.1924 33.0059 37.4459 33.455 36.7833L33.0268 36.4931C32.5173 37.2448 32.2633 38.0933 32.2633 39.0308H32.7806ZM33.4539 36.7849C33.9112 36.121 34.556 35.5955 35.3989 35.2117L35.1845 34.741C34.2674 35.1586 33.5449 35.741 33.0279 36.4915L33.4539 36.7849ZM35.3998 35.2113C36.2484 34.8208 37.228 34.6221 38.3443 34.6221V34.1048C37.1662 34.1048 36.1108 34.3147 35.1836 34.7414L35.3998 35.2113ZM38.3443 34.6221C39.5606 34.6221 40.5979 34.8553 41.4651 35.3113L41.7059 34.8535C40.7502 34.3509 39.6267 34.1048 38.3443 34.1048V34.6221ZM41.4659 35.3117C42.3483 35.7718 43.0101 36.3771 43.462 37.1255L43.9048 36.8581C43.3982 36.0192 42.6613 35.3516 41.7051 34.8531L41.4659 35.3117ZM43.463 37.1271C43.9258 37.8809 44.1555 38.6867 44.1555 39.5493H44.6728C44.6728 38.589 44.4154 37.6898 43.9038 36.8565L43.463 37.1271ZM44.4142 39.2907H42.1159V39.808H44.4142V39.2907ZM42.3745 39.5493C42.3745 38.484 42.0348 37.6068 41.3394 36.9457L40.983 37.3206C41.5605 37.8696 41.8572 38.6032 41.8572 39.5493H42.3745ZM41.3406 36.9469C40.6393 36.2716 39.6254 35.9552 38.3443 35.9552V36.4725C39.5462 36.4725 40.4102 36.769 40.9818 37.3195L41.3406 36.9469ZM38.3443 35.9552C37.1558 35.9552 36.2096 36.2175 35.5479 36.7834L35.8841 37.1765C36.4167 36.721 37.2227 36.4725 38.3443 36.4725V35.9552ZM35.5479 36.7834C34.8895 37.3466 34.5616 38.0921 34.5616 38.9954H35.0789C35.0789 38.2329 35.3482 37.6348 35.8841 37.1765L35.5479 36.7834ZM34.5616 38.9954C34.5616 39.5348 34.7151 40.0179 35.0253 40.4345L35.4402 40.1256C35.2004 39.8036 35.0789 39.4303 35.0789 38.9954H34.5616ZM35.0253 40.4345C35.3317 40.846 35.7965 41.2024 36.3993 41.512L36.6356 41.0518C36.0755 40.7642 35.6838 40.4528 35.4402 40.1256L35.0253 40.4345ZM36.3993 41.512C37.0018 41.8214 37.7859 42.1098 38.7458 42.3795L38.8857 41.8815C37.9441 41.6169 37.196 41.3396 36.6356 41.0518L36.3993 41.512ZM38.7461 42.3796C40.0533 42.7453 41.0992 43.1622 41.8907 43.6265L42.1524 43.1803C41.3096 42.686 40.2183 42.2543 38.8854 41.8814L38.7461 42.3796ZM41.8917 43.627C42.6884 44.0899 43.2615 44.6275 43.6269 45.2341L44.07 44.9672C43.6496 44.2694 43.0048 43.6755 42.1515 43.1798L41.8917 43.627ZM43.6288 45.2372C44 45.834 44.1909 46.5509 44.1909 47.3989H44.7081C44.7081 46.4711 44.4983 45.6559 44.068 44.964L43.6288 45.2372ZM44.1909 47.3989C44.1909 48.2688 43.9577 49.025 43.4959 49.6774L43.9181 49.9763C44.4463 49.23 44.7081 48.3676 44.7081 47.3989H44.1909ZM43.4956 49.6779C43.0407 50.3235 42.3871 50.8297 41.5212 51.1911L41.7205 51.6684C42.6618 51.2755 43.399 50.713 43.9184 49.9758L43.4956 49.6779ZM41.5212 51.1911C40.6555 51.5524 39.6377 51.7369 38.4622 51.7369V52.2541C39.691 52.2541 40.779 52.0614 41.7205 51.6684L41.5212 51.1911ZM38.4622 51.7369C37.4025 51.7369 36.3902 51.5426 35.4234 51.1544L35.2307 51.6344C36.2597 52.0476 37.3375 52.2541 38.4622 52.2541V51.7369ZM35.4257 51.1553C34.4737 50.7624 33.7052 50.1912 33.1138 49.4426L32.708 49.7632C33.3581 50.5861 34.2004 51.2092 35.2284 51.6335L35.4257 51.1553ZM33.1138 49.4426C32.5325 48.7067 32.2384 47.8256 32.2384 46.786H31.7212C31.7212 47.9308 32.0478 48.9276 32.708 49.7632L33.1138 49.4426ZM31.9798 47.0446H34.2663V46.5274H31.9798V47.0446ZM34.0077 46.786C34.0077 47.5848 34.2081 48.2709 34.6252 48.827L35.0389 48.5166C34.7017 48.0669 34.5249 47.4959 34.5249 46.786H34.0077ZM34.6267 48.829C35.0425 49.3721 35.5891 49.773 36.259 50.0326L36.4459 49.5503C35.8586 49.3228 35.3916 48.9773 35.0374 48.5146L34.6267 48.829ZM36.26 50.033C36.9296 50.2893 37.6646 50.4155 38.4622 50.4155V49.8982C37.7197 49.8982 37.0483 49.7809 36.4449 49.5499L36.26 50.033ZM38.4622 50.4155C39.6648 50.4155 40.6353 50.1658 41.3407 49.6324L41.0288 49.2198C40.4456 49.6608 39.601 49.8982 38.4622 49.8982V50.4155ZM41.3407 49.6324C42.0534 49.0935 42.4099 48.3473 42.4099 47.4225H41.8926C41.8926 48.1948 41.6047 48.7844 41.0288 49.2198L41.3407 49.6324ZM42.4099 47.4225C42.4099 46.8286 42.2843 46.3134 42.0156 45.8926L41.5796 46.1709C41.7825 46.4886 41.8926 46.9005 41.8926 47.4225H42.4099ZM42.019 45.898C41.7571 45.4645 41.3066 45.0986 40.7018 44.788L40.4655 45.2482C41.0236 45.5347 41.3825 45.8446 41.5763 46.1654L42.019 45.898ZM40.7043 44.7893C40.0999 44.4708 39.2436 44.1547 38.1448 43.8385L38.0017 44.3355C39.0873 44.6479 39.9046 44.9525 40.4631 45.2469L40.7043 44.7893ZM46.7832 51.7598H46.5246V52.0184H46.7832V51.7598ZM46.7832 50.204L46.5908 50.0312L46.5246 50.1049V50.204H46.7832ZM52.4052 43.9456L52.2128 43.7727L52.2128 43.7727L52.4052 43.9456ZM54.0199 41.9891L54.2301 42.1397L54.2311 42.1382L54.0199 41.9891ZM54.8095 40.5512L54.5665 40.4628L54.5656 40.4653L54.8095 40.5512ZM54.6917 37.6518L54.4603 37.7674L54.4611 37.769L54.6917 37.6518ZM53.6663 36.5439L53.5309 36.7643L53.5338 36.766L53.6663 36.5439ZM48.6572 39.6436V39.9023H48.9158V39.6436H48.6572ZM46.4532 39.6436H46.1945V39.9023H46.4532V39.6436ZM49.0225 35.0706L49.1465 35.2976L49.1481 35.2967L49.0225 35.0706ZM54.8331 34.941L54.7184 35.1728L54.7203 35.1737L54.8331 34.941ZM56.3771 41.8712L56.1532 41.7418L56.1529 41.7423L56.3771 41.8712ZM54.0316 44.9827L53.8413 44.8077L53.8411 44.8079L54.0316 44.9827ZM49.4351 49.9918L49.2445 49.817L48.8467 50.2505H49.4351V49.9918ZM58.0389 49.9918H58.2975V49.7332H58.0389V49.9918ZM58.0389 51.7598V52.0184H58.2975V51.7598H58.0389ZM47.0418 51.7598V50.204H46.5246V51.7598H47.0418ZM46.9756 50.3768L52.5976 44.1184L52.2128 43.7727L46.5908 50.0312L46.9756 50.3768ZM52.5975 44.1185C53.2998 43.3372 53.8451 42.6771 54.2301 42.1397L53.8096 41.8385C53.4403 42.3539 52.9091 42.9981 52.2128 43.7727L52.5975 44.1185ZM54.2311 42.1382C54.6164 41.5924 54.8936 41.0915 55.0535 40.637L54.5656 40.4653C54.4269 40.8595 54.1776 41.3171 53.8086 41.8399L54.2311 42.1382ZM55.0526 40.6395C55.2201 40.1788 55.3039 39.701 55.3039 39.2075H54.7866C54.7866 39.6412 54.7132 40.0592 54.5665 40.4628L55.0526 40.6395ZM55.3039 39.2075C55.3039 38.5975 55.1782 38.0381 54.9222 37.5346L54.4611 37.769C54.6766 38.1927 54.7866 38.6704 54.7866 39.2075H55.3039ZM54.923 37.5361C54.6654 37.021 54.2895 36.6145 53.7988 36.3218L53.5338 36.766C53.9387 37.0075 54.2465 37.3397 54.4603 37.7674L54.923 37.5361ZM53.8016 36.3235C53.3067 36.0196 52.7277 35.8727 52.0751 35.8727V36.39C52.6483 36.39 53.1301 36.5182 53.5309 36.7643L53.8016 36.3235ZM52.0751 35.8727C50.9094 35.8727 49.9823 36.2068 49.3384 36.9116L49.7203 37.2605C50.2393 36.6924 51.0094 36.39 52.0751 36.39V35.8727ZM49.3384 36.9116C48.7036 37.6064 48.3985 38.5266 48.3985 39.6436H48.9158C48.9158 38.6234 49.1922 37.8385 49.7203 37.2605L49.3384 36.9116ZM48.6572 39.385H46.4532V39.9023H48.6572V39.385ZM46.7118 39.6436C46.7118 38.7008 46.9188 37.8517 47.329 37.0909L46.8738 36.8454C46.4197 37.6875 46.1945 38.6221 46.1945 39.6436H46.7118ZM47.329 37.0909C47.736 36.3363 48.339 35.7387 49.1465 35.2976L48.8986 34.8437C48.0089 35.3297 47.3312 35.9972 46.8738 36.8454L47.329 37.0909ZM49.1481 35.2967C49.9507 34.8508 50.9229 34.6221 52.0751 34.6221V34.1048C50.8544 34.1048 49.7916 34.3475 48.8969 34.8445L49.1481 35.2967ZM52.0751 34.6221C53.1048 34.6221 53.9832 34.8089 54.7184 35.1728L54.9478 34.7092C54.1272 34.303 53.167 34.1048 52.0751 34.1048V34.6221ZM54.7203 35.1737C55.4564 35.5306 56.0143 36.0319 56.403 36.6773L56.8461 36.4105C56.402 35.673 55.7656 35.1057 54.9459 34.7083L54.7203 35.1737ZM56.403 36.6773C56.7922 37.3235 56.9906 38.0776 56.9906 38.9483H57.5079C57.5079 37.996 57.2899 37.1472 56.8461 36.4105L56.403 36.6773ZM56.9906 38.9483C56.9906 39.8363 56.7171 40.7663 56.1532 41.7418L56.601 42.0006C57.1999 40.9646 57.5079 39.946 57.5079 38.9483H56.9906ZM56.1529 41.7423C55.591 42.7199 54.8217 43.7417 53.8413 44.8077L54.222 45.1578C55.2217 44.0708 56.016 43.0183 56.6013 42.0001L56.1529 41.7423ZM53.8411 44.8079L49.2445 49.817L49.6256 50.1667L54.2222 45.1576L53.8411 44.8079ZM49.4351 50.2505H58.0389V49.7332H49.4351V50.2505ZM57.7803 49.9918V51.7598H58.2975V49.9918H57.7803ZM58.0389 51.5011H46.7832V52.0184H58.0389V51.5011Z" fill="#FC9D68"/>
<path d="M28.1474 51H25.8727V44.2937L26.0848 37.1395L20.4628 51H18.7303L13.1201 37.1513L13.3322 44.2937V51H11.0575V33.8394H13.014H14.004L19.6025 47.8649L25.2009 33.8394H28.1474V51ZM37.2109 43.3272C35.3959 42.8008 34.0169 42.1447 33.074 41.359C32.1311 40.5654 31.6597 39.536 31.6597 38.271C31.6597 37.3831 31.8993 36.5856 32.3786 35.8784C32.8658 35.1712 33.5494 34.6173 34.4294 34.2166C35.3173 33.808 36.3348 33.6037 37.482 33.6037C38.7313 33.6037 39.8117 33.8433 40.7232 34.3226C41.6425 34.8019 42.3418 35.4384 42.8211 36.232C43.3083 37.0256 43.5519 37.8781 43.5519 38.7896H41.2536C41.2536 37.7838 40.9353 36.9784 40.2989 36.3734C39.6624 35.7605 38.7235 35.4541 37.482 35.4541C36.327 35.4541 35.4509 35.7095 34.8537 36.2202C34.2565 36.7309 33.958 37.4027 33.958 38.2356C33.958 38.7228 34.0955 39.151 34.3705 39.5203C34.6455 39.8896 35.0737 40.2236 35.6552 40.5221C36.2366 40.8207 37.0027 41.1036 37.9535 41.3707C39.2735 41.74 40.3421 42.1643 41.1593 42.6436C41.9843 43.1229 42.5933 43.6887 42.9861 44.3408C43.3869 44.9851 43.5872 45.7512 43.5872 46.6391C43.5872 47.5585 43.3397 48.3678 42.8447 49.0671C42.3575 49.7585 41.6622 50.2928 40.7585 50.67C39.8549 51.0471 38.8021 51.2357 37.5999 51.2357C36.5077 51.2357 35.4627 51.0354 34.4648 50.6346C33.4747 50.226 32.6693 49.6289 32.0486 48.8431C31.4279 48.0574 31.1175 47.1184 31.1175 46.0263H33.404C33.404 46.7806 33.5926 47.4092 33.9697 47.912C34.3548 48.4149 34.8616 48.7881 35.4902 49.0317C36.1266 49.2753 36.8298 49.3971 37.5999 49.3971C38.7706 49.3971 39.6782 49.1535 40.3225 48.6663C40.9668 48.1792 41.2889 47.5113 41.2889 46.6627C41.2889 46.1048 41.1711 45.6412 40.9353 45.2719C40.7075 44.8948 40.3028 44.5569 39.7214 44.2583C39.1399 43.9519 38.3031 43.6415 37.2109 43.3272ZM45.9209 51V49.4442L51.5429 43.1858C52.2422 42.4079 52.7804 41.7558 53.1576 41.2293C53.5347 40.695 53.7979 40.2157 53.9472 39.7914C54.1044 39.3592 54.1829 38.9114 54.1829 38.4478C54.1829 37.8742 54.0651 37.3556 53.8294 36.892C53.5936 36.4206 53.2518 36.0513 52.804 35.7841C52.3561 35.5091 51.8257 35.3716 51.2128 35.3716C50.0971 35.3716 49.2485 35.6898 48.667 36.3263C48.0856 36.9627 47.7949 37.8153 47.7949 38.8839H45.5909C45.5909 37.9017 45.8069 37.0099 46.2391 36.2084C46.6713 35.407 47.3116 34.7744 48.1602 34.3109C49.0088 33.8394 50.0264 33.6037 51.2128 33.6037C52.2736 33.6037 53.1929 33.7962 53.9708 34.1812C54.7487 34.5584 55.3458 35.0927 55.7623 35.7841C56.1787 36.4756 56.3869 37.277 56.3869 38.1885C56.3869 39.1314 56.0962 40.1057 55.5148 41.1114C54.9412 42.1093 54.1594 43.1465 53.1693 44.223L48.5727 49.2321H57.1766V51H45.9209Z" fill="#E77830"/>
<path d="M28.1474 51V51.2586H28.406V51H28.1474ZM25.8727 51H25.6141V51.2586H25.8727V51ZM25.8727 44.2937L25.6141 44.286V44.2937H25.8727ZM26.0848 37.1395L26.3433 37.1472L25.8452 37.0423L26.0848 37.1395ZM20.4628 51V51.2586H20.637L20.7025 51.0972L20.4628 51ZM18.7303 51L18.4906 51.0971L18.556 51.2586H18.7303V51ZM13.1201 37.1513L13.3598 37.0542L12.8616 37.159L13.1201 37.1513ZM13.3322 44.2937H13.591L13.5907 44.286L13.3322 44.2937ZM13.3322 51V51.2586H13.5909V51H13.3322ZM11.0575 51H10.7989V51.2586H11.0575V51ZM11.0575 33.8394V33.5808H10.7989V33.8394H11.0575ZM14.004 33.8394L14.2442 33.7435L14.1793 33.5808H14.004V33.8394ZM19.6025 47.8649L19.3623 47.9608L19.6025 48.5625L19.8427 47.9608L19.6025 47.8649ZM25.2009 33.8394V33.5808H25.0256L24.9607 33.7435L25.2009 33.8394ZM28.1474 33.8394H28.406V33.5808H28.1474V33.8394ZM28.1474 50.7414H25.8727V51.2586H28.1474V50.7414ZM26.1313 51V44.2937H25.6141V51H26.1313ZM26.1312 44.3014L26.3433 37.1472L25.8263 37.1319L25.6142 44.286L26.1312 44.3014ZM25.8452 37.0423L20.2232 50.9028L20.7025 51.0972L26.3245 37.2367L25.8452 37.0423ZM20.4628 50.7414H18.7303V51.2586H20.4628V50.7414ZM18.97 50.9029L13.3598 37.0542L12.8804 37.2484L18.4906 51.0971L18.97 50.9029ZM12.8616 37.159L13.0737 44.3014L13.5907 44.286L13.3786 37.1436L12.8616 37.159ZM13.0736 44.2937V51H13.5909V44.2937H13.0736ZM13.3322 50.7414H11.0575V51.2586H13.3322V50.7414ZM11.3161 51V33.8394H10.7989V51H11.3161ZM11.0575 34.098H13.014V33.5808H11.0575V34.098ZM13.014 34.098H14.004V33.5808H13.014V34.098ZM13.7639 33.9353L19.3623 47.9608L19.8427 47.769L14.2442 33.7435L13.7639 33.9353ZM19.8427 47.9608L25.4411 33.9353L24.9607 33.7435L19.3623 47.769L19.8427 47.9608ZM25.2009 34.098H28.1474V33.5808H25.2009V34.098ZM27.8888 33.8394V51H28.406V33.8394H27.8888ZM37.2109 43.3272L37.1389 43.5756L37.1394 43.5758L37.2109 43.3272ZM33.074 41.359L32.9075 41.5568L32.9084 41.5576L33.074 41.359ZM32.3786 35.8784L32.1656 35.7317L32.1645 35.7333L32.3786 35.8784ZM34.4294 34.2166L34.5366 34.4519L34.5375 34.4515L34.4294 34.2166ZM40.7232 34.3226L40.6028 34.5515L40.6036 34.552L40.7232 34.3226ZM42.8211 36.232L42.5997 36.3657L42.6007 36.3673L42.8211 36.232ZM43.5519 38.7896V39.0482H43.8105V38.7896H43.5519ZM41.2536 38.7896H40.9949V39.0482H41.2536V38.7896ZM40.2989 36.3734L40.1195 36.5597L40.1207 36.5609L40.2989 36.3734ZM34.3705 39.5203L34.5779 39.3659L34.3705 39.5203ZM35.6552 40.5221L35.537 40.7522L35.6552 40.5221ZM37.9535 41.3707L37.8835 41.6197L37.8838 41.6198L37.9535 41.3707ZM41.1593 42.6436L41.0284 42.8667L41.0294 42.8673L41.1593 42.6436ZM42.9861 44.3408L42.7646 44.4743L42.7665 44.4774L42.9861 44.3408ZM42.8447 49.0671L42.6336 48.9177L42.6333 48.9181L42.8447 49.0671ZM34.4648 50.6346L34.3661 50.8737L34.3684 50.8746L34.4648 50.6346ZM31.1175 46.0263V45.7676H30.8589V46.0263H31.1175ZM33.404 46.0263H33.6626V45.7676H33.404V46.0263ZM33.9697 47.912L33.7628 48.0672L33.7644 48.0693L33.9697 47.912ZM35.4902 49.0317L35.3967 49.2729L35.3977 49.2733L35.4902 49.0317ZM40.9353 45.2719L40.7139 45.4057L40.7173 45.4111L40.9353 45.2719ZM39.7214 44.2583L39.6008 44.4871L39.6032 44.4884L39.7214 44.2583ZM37.283 43.0788C35.4856 42.5575 34.1443 41.9142 33.2396 41.1603L32.9084 41.5576C33.8895 42.3752 35.3062 43.0441 37.1389 43.5756L37.283 43.0788ZM33.2405 41.1611C32.3578 40.4181 31.9183 39.462 31.9183 38.271H31.401C31.401 39.61 31.9044 40.7126 32.9075 41.5568L33.2405 41.1611ZM31.9183 38.271C31.9183 37.4327 32.1436 36.6861 32.5927 36.0235L32.1645 35.7333C31.655 36.485 31.401 37.3335 31.401 38.271H31.9183ZM32.5916 36.0251C33.0489 35.3612 33.6937 34.8357 34.5366 34.4519L34.3222 33.9812C33.4051 34.3988 32.6826 34.9812 32.1656 35.7317L32.5916 36.0251ZM34.5375 34.4515C35.3861 34.061 36.3657 33.8623 37.482 33.8623V33.3451C36.3039 33.3451 35.2485 33.555 34.3213 33.9816L34.5375 34.4515ZM37.482 33.8623C38.6982 33.8623 39.7356 34.0955 40.6028 34.5515L40.8436 34.0937C39.8879 33.5912 38.7644 33.3451 37.482 33.3451V33.8623ZM40.6036 34.552C41.486 35.012 42.1478 35.6174 42.5997 36.3657L43.0425 36.0983C42.5359 35.2594 41.799 34.5919 40.8428 34.0933L40.6036 34.552ZM42.6007 36.3673C43.0635 37.1211 43.2932 37.927 43.2932 38.7896H43.8105C43.8105 37.8293 43.5531 36.9301 43.0415 36.0967L42.6007 36.3673ZM43.5519 38.531H41.2536V39.0482H43.5519V38.531ZM41.5122 38.7896C41.5122 37.7242 41.1725 36.8471 40.4771 36.186L40.1207 36.5609C40.6982 37.1098 40.9949 37.8434 40.9949 38.7896H41.5122ZM40.4783 36.1871C39.777 35.5118 38.7631 35.1955 37.482 35.1955V35.7127C38.6839 35.7127 39.5479 36.0092 40.1195 36.5597L40.4783 36.1871ZM37.482 35.1955C36.2935 35.1955 35.3473 35.4577 34.6856 36.0237L35.0218 36.4167C35.5544 35.9612 36.3604 35.7127 37.482 35.7127V35.1955ZM34.6856 36.0237C34.0272 36.5868 33.6993 37.3323 33.6993 38.2356H34.2166C34.2166 37.4732 34.4859 36.8751 35.0218 36.4167L34.6856 36.0237ZM33.6993 38.2356C33.6993 38.775 33.8528 39.2582 34.163 39.6748L34.5779 39.3659C34.3381 39.0439 34.2166 38.6706 34.2166 38.2356H33.6993ZM34.163 39.6748C34.4694 40.0862 34.9342 40.4426 35.537 40.7522L35.7733 40.2921C35.2132 40.0045 34.8215 39.693 34.5779 39.3659L34.163 39.6748ZM35.537 40.7522C36.1395 41.0616 36.9236 41.35 37.8835 41.6197L38.0234 41.1218C37.0818 40.8572 36.3337 40.5798 35.7733 40.2921L35.537 40.7522ZM37.8838 41.6198C39.191 41.9855 40.2369 42.4025 41.0284 42.8667L41.2901 42.4206C40.4473 41.9262 39.356 41.4946 38.0231 41.1217L37.8838 41.6198ZM41.0294 42.8673C41.8261 43.3301 42.3992 43.8677 42.7646 44.4743L43.2077 44.2074C42.7873 43.5096 42.1425 42.9157 41.2892 42.42L41.0294 42.8673ZM42.7665 44.4774C43.1377 45.0742 43.3286 45.7912 43.3286 46.6391H43.8458C43.8458 45.7113 43.636 44.8961 43.2057 44.2043L42.7665 44.4774ZM43.3286 46.6391C43.3286 47.5091 43.0954 48.2653 42.6336 48.9177L43.0558 49.2165C43.584 48.4702 43.8458 47.6079 43.8458 46.6391H43.3286ZM42.6333 48.9181C42.1784 49.5638 41.5248 50.0699 40.6589 50.4313L40.8582 50.9087C41.7995 50.5157 42.5367 49.9533 43.0561 49.216L42.6333 48.9181ZM40.6589 50.4313C39.7932 50.7927 38.7754 50.9771 37.5999 50.9771V51.4943C38.8287 51.4943 39.9167 51.3016 40.8582 50.9087L40.6589 50.4313ZM37.5999 50.9771C36.5402 50.9771 35.5279 50.7829 34.5611 50.3946L34.3684 50.8746C35.3974 51.2879 36.4752 51.4943 37.5999 51.4943V50.9771ZM34.5634 50.3956C33.6114 50.0027 32.8429 49.4314 32.2515 48.6828L31.8457 49.0035C32.4958 49.8264 33.3381 50.4494 34.3661 50.8737L34.5634 50.3956ZM32.2515 48.6828C31.6702 47.947 31.3761 47.0659 31.3761 46.0263H30.8589C30.8589 47.171 31.1855 48.1678 31.8457 49.0035L32.2515 48.6828ZM31.1175 46.2849H33.404V45.7676H31.1175V46.2849ZM33.1454 46.0263C33.1454 46.825 33.3458 47.5112 33.7628 48.0672L34.1766 47.7569C33.8394 47.3072 33.6626 46.7361 33.6626 46.0263H33.1454ZM33.7644 48.0693C34.1802 48.6123 34.7268 49.0133 35.3967 49.2729L35.5836 48.7906C34.9963 48.563 34.5293 48.2175 34.1751 47.7548L33.7644 48.0693ZM35.3977 49.2733C36.0673 49.5295 36.8023 49.6557 37.5999 49.6557V49.1385C36.8574 49.1385 36.186 49.0211 35.5826 48.7902L35.3977 49.2733ZM37.5999 49.6557C38.8025 49.6557 39.773 49.406 40.4784 48.8726L40.1665 48.4601C39.5833 48.901 38.7387 49.1385 37.5999 49.1385V49.6557ZM40.4784 48.8726C41.1911 48.3338 41.5475 47.5876 41.5475 46.6627H41.0303C41.0303 47.435 40.7424 48.0246 40.1665 48.4601L40.4784 48.8726ZM41.5475 46.6627C41.5475 46.0689 41.422 45.5536 41.1533 45.1328L40.7173 45.4111C40.9202 45.7288 41.0303 46.1408 41.0303 46.6627H41.5475ZM41.1567 45.1382C40.8948 44.7047 40.4443 44.3389 39.8395 44.0283L39.6032 44.4884C40.1613 44.775 40.5202 45.0849 40.714 45.4057L41.1567 45.1382ZM39.8419 44.0295C39.2376 43.711 38.3812 43.3949 37.2824 43.0787L37.1394 43.5758C38.225 43.8882 39.0423 44.1928 39.6008 44.4871L39.8419 44.0295ZM45.9209 51H45.6623V51.2586H45.9209V51ZM45.9209 49.4442L45.7285 49.2714L45.6623 49.3451V49.4442H45.9209ZM51.5429 43.1858L51.3505 43.0129L51.3505 43.013L51.5429 43.1858ZM53.1576 41.2293L53.3678 41.3799L53.3688 41.3784L53.1576 41.2293ZM53.9472 39.7914L53.7042 39.703L53.7033 39.7056L53.9472 39.7914ZM53.8294 36.892L53.598 37.0077L53.5988 37.0092L53.8294 36.892ZM52.804 35.7841L52.6686 36.0045L52.6715 36.0062L52.804 35.7841ZM47.7949 38.8839V39.1425H48.0535V38.8839H47.7949ZM45.5909 38.8839H45.3322V39.1425H45.5909V38.8839ZM48.1602 34.3109L48.2842 34.5378L48.2858 34.5369L48.1602 34.3109ZM53.9708 34.1812L53.8561 34.413L53.858 34.4139L53.9708 34.1812ZM55.5148 41.1114L55.2909 40.982L55.2906 40.9826L55.5148 41.1114ZM53.1693 44.223L52.979 44.0479L52.9788 44.0481L53.1693 44.223ZM48.5727 49.2321L48.3822 49.0572L47.9844 49.4907H48.5727V49.2321ZM57.1766 49.2321H57.4352V48.9735H57.1766V49.2321ZM57.1766 51V51.2586H57.4352V51H57.1766ZM46.1795 51V49.4442H45.6623V51H46.1795ZM46.1133 49.6171L51.7352 43.3586L51.3505 43.013L45.7285 49.2714L46.1133 49.6171ZM51.7352 43.3587C52.4375 42.5775 52.9828 41.9173 53.3678 41.3799L52.9473 41.0787C52.578 41.5942 52.0468 42.2384 51.3505 43.0129L51.7352 43.3587ZM53.3688 41.3784C53.7541 40.8326 54.0313 40.3317 54.1912 39.8772L53.7033 39.7056C53.5646 40.0997 53.3153 40.5574 52.9463 41.0802L53.3688 41.3784ZM54.1903 39.8798C54.3578 39.4191 54.4416 38.9413 54.4416 38.4478H53.9243C53.9243 38.8815 53.8509 39.2994 53.7042 39.703L54.1903 39.8798ZM54.4416 38.4478C54.4416 37.8377 54.3159 37.2783 54.0599 36.7748L53.5988 37.0092C53.8142 37.4329 53.9243 37.9107 53.9243 38.4478H54.4416ZM54.0607 36.7764C53.8031 36.2612 53.4272 35.8548 52.9365 35.562L52.6715 36.0062C53.0764 36.2478 53.3842 36.5799 53.598 37.0077L54.0607 36.7764ZM52.9393 35.5637C52.4443 35.2598 51.8654 35.113 51.2128 35.113V35.6302C51.786 35.6302 52.2678 35.7584 52.6686 36.0045L52.9393 35.5637ZM51.2128 35.113C50.0471 35.113 49.12 35.4471 48.4761 36.1518L48.858 36.5007C49.377 35.9326 50.1471 35.6302 51.2128 35.6302V35.113ZM48.4761 36.1518C47.8413 36.8467 47.5362 37.7669 47.5362 38.8839H48.0535C48.0535 37.8637 48.3299 37.0788 48.858 36.5007L48.4761 36.1518ZM47.7949 38.6252H45.5909V39.1425H47.7949V38.6252ZM45.8495 38.8839C45.8495 37.9411 46.0565 37.092 46.4667 36.3312L46.0115 36.0857C45.5574 36.9278 45.3322 37.8623 45.3322 38.8839H45.8495ZM46.4667 36.3312C46.8737 35.5765 47.4767 34.979 48.2842 34.5378L48.0362 34.0839C47.1466 34.5699 46.4689 35.2374 46.0115 36.0857L46.4667 36.3312ZM48.2858 34.5369C49.0884 34.0911 50.0606 33.8623 51.2128 33.8623V33.3451C49.9921 33.3451 48.9293 33.5877 48.0346 34.0848L48.2858 34.5369ZM51.2128 33.8623C52.2425 33.8623 53.1209 34.0491 53.8561 34.413L54.0855 33.9494C53.2649 33.5433 52.3047 33.3451 51.2128 33.3451V33.8623ZM53.858 34.4139C54.5941 34.7708 55.152 35.2721 55.5407 35.9175L55.9838 35.6507C55.5397 34.9132 54.9032 34.3459 54.0836 33.9485L53.858 34.4139ZM55.5407 35.9175C55.9299 36.5637 56.1283 37.3178 56.1283 38.1885H56.6456C56.6456 37.2362 56.4275 36.3874 55.9838 35.6507L55.5407 35.9175ZM56.1283 38.1885C56.1283 39.0765 55.8548 40.0065 55.2909 40.982L55.7387 41.2409C56.3376 40.2049 56.6456 39.1863 56.6456 38.1885H56.1283ZM55.2906 40.9826C54.7287 41.9601 53.9594 42.9819 52.979 44.0479L53.3597 44.3981C54.3594 43.3111 55.1537 42.2586 55.739 41.2403L55.2906 40.9826ZM52.9788 44.0481L48.3822 49.0572L48.7633 49.4069L53.3599 44.3978L52.9788 44.0481ZM48.5727 49.4907H57.1766V48.9735H48.5727V49.4907ZM56.918 49.2321V51H57.4352V49.2321H56.918ZM57.1766 50.7414H45.9209V51.2586H57.1766V50.7414Z" fill="#E77830"/>
</svg>
