<svg width="69" height="83" viewBox="0 0 69 83" fill="none" xmlns="http://www.w3.org/2000/svg">
<path fill-rule="evenodd" clip-rule="evenodd" d="M4.281 62.3392L34.018 77.8502L63.792 62.0892V19.7633L34.053 4.46625L4.281 19.7633V62.3392ZM0 18.8002V63.2663C0.0030164 63.7598 0.140787 64.2432 0.398441 64.6643C0.656095 65.0853 1.02385 65.4279 1.462 65.6552L32.805 82.0252C33.1931 82.2194 33.6211 82.3205 34.055 82.3205C34.4889 82.3205 34.9169 82.2194 35.305 82.0252L66.68 65.4412C67.1139 65.212 67.4765 64.868 67.7282 64.4466C67.9798 64.0253 68.1109 63.543 68.107 63.0522V18.8363C68.104 18.3427 67.9662 17.8593 67.7086 17.4382C67.4509 17.0172 67.0832 16.6746 66.645 16.4473L35.3 0.294249C34.9187 0.10081 34.4971 0 34.0695 0C33.6419 0 33.2203 0.10081 32.839 0.294249L1.462 16.4122C1.024 16.6395 0.656343 16.982 0.398698 17.4028C0.141054 17.8236 0.00319804 18.3068 0 18.8002H0Z" fill="#8985DB"/>
<path d="M19.4886 47.7305H17.9796V43.2817L18.1204 38.5358L14.3909 47.7305H13.2416L9.51989 38.5436L9.66062 43.2817V47.7305H8.15163V36.3466H9.44952H10.1063L13.8201 45.6507L17.534 36.3466H19.4886V47.7305ZM25.5012 42.6405C24.2971 42.2913 23.3823 41.8561 22.7568 41.3348C22.1313 40.8084 21.8186 40.1256 21.8186 39.2864C21.8186 38.6974 21.9776 38.1683 22.2955 37.6992C22.6187 37.2301 23.0722 36.8626 23.656 36.5967C24.245 36.3257 24.92 36.1902 25.681 36.1902C26.5098 36.1902 27.2265 36.3492 27.8311 36.6671C28.441 36.9851 28.9049 37.4073 29.2228 37.9337C29.546 38.4602 29.7076 39.0257 29.7076 39.6304H28.1829C28.1829 38.9632 27.9718 38.4289 27.5496 38.0276C27.1274 37.621 26.5045 37.4177 25.681 37.4177C24.9148 37.4177 24.3336 37.5871 23.9374 37.9259C23.5413 38.2647 23.3432 38.7104 23.3432 39.2629C23.3432 39.5861 23.4344 39.8701 23.6169 40.1151C23.7993 40.3601 24.0834 40.5816 24.4691 40.7797C24.8548 40.9778 25.363 41.1654 25.9937 41.3427C26.8694 41.5876 27.5783 41.8691 28.1204 42.1871C28.6677 42.505 29.0717 42.8803 29.3323 43.3129C29.5981 43.7404 29.731 44.2486 29.731 44.8376C29.731 45.4474 29.5668 45.9843 29.2385 46.4482C28.9153 46.9069 28.454 47.2614 27.8546 47.5115C27.2551 47.7617 26.5567 47.8868 25.7592 47.8868C25.0346 47.8868 24.3414 47.7539 23.6794 47.4881C23.0227 47.217 22.4884 46.8209 22.0766 46.2997C21.6648 45.7784 21.4589 45.1555 21.4589 44.431H22.9757C22.9757 44.9314 23.1008 45.3484 23.351 45.682C23.6064 46.0156 23.9426 46.2632 24.3596 46.4248C24.7818 46.5863 25.2484 46.6671 25.7592 46.6671C26.5358 46.6671 27.1379 46.5056 27.5653 46.1824C27.9927 45.8592 28.2064 45.4162 28.2064 44.8532C28.2064 44.4831 28.1282 44.1756 27.9718 43.9306C27.8207 43.6804 27.5522 43.4563 27.1665 43.2582C26.7808 43.0549 26.2257 42.849 25.5012 42.6405Z" fill="#FC9D68"/>
<path d="M19.4886 47.7305V47.902H19.6602V47.7305H19.4886ZM17.9796 47.7305H17.8081V47.902H17.9796V47.7305ZM17.9796 43.2817L17.8081 43.2766V43.2817H17.9796ZM18.1204 38.5358L18.2919 38.5409L17.9614 38.4713L18.1204 38.5358ZM14.3909 47.7305V47.902H14.5064L14.5499 47.795L14.3909 47.7305ZM13.2416 47.7305L13.0825 47.7949L13.1259 47.902H13.2416V47.7305ZM9.51989 38.5436L9.6789 38.4792L9.3484 38.5487L9.51989 38.5436ZM9.66062 43.2817H9.83226L9.83211 43.2766L9.66062 43.2817ZM9.66062 47.7305V47.902H9.83218V47.7305H9.66062ZM8.15163 47.7305H7.98006V47.902H8.15163V47.7305ZM8.15163 36.3466V36.175H7.98006V36.3466H8.15163ZM10.1063 36.3466L10.2656 36.2829L10.2225 36.175H10.1063V36.3466ZM13.8201 45.6507L13.6608 45.7143L13.8201 46.1135L13.9795 45.7143L13.8201 45.6507ZM17.534 36.3466V36.175H17.4177L17.3746 36.2829L17.534 36.3466ZM19.4886 36.3466H19.6602V36.175H19.4886V36.3466ZM19.4886 47.5589H17.9796V47.902H19.4886V47.5589ZM18.1512 47.7305V43.2817H17.8081V47.7305H18.1512ZM18.1511 43.2868L18.2919 38.5409L17.9489 38.5307L17.8082 43.2766L18.1511 43.2868ZM17.9614 38.4713L14.2319 47.666L14.5499 47.795L18.2794 38.6003L17.9614 38.4713ZM14.3909 47.5589H13.2416V47.902H14.3909V47.5589ZM13.4006 47.6661L9.6789 38.4792L9.36088 38.608L13.0825 47.7949L13.4006 47.6661ZM9.3484 38.5487L9.48913 43.2868L9.83211 43.2766L9.69137 38.5385L9.3484 38.5487ZM9.48906 43.2817V47.7305H9.83218V43.2817H9.48906ZM9.66062 47.5589H8.15163V47.902H9.66062V47.5589ZM8.32319 47.7305V36.3466H7.98006V47.7305H8.32319ZM8.15163 36.5181H9.44952V36.175H8.15163V36.5181ZM9.44952 36.5181H10.1063V36.175H9.44952V36.5181ZM9.94694 36.4102L13.6608 45.7143L13.9795 45.5871L10.2656 36.2829L9.94694 36.4102ZM13.9795 45.7143L17.6933 36.4102L17.3746 36.2829L13.6608 45.5871L13.9795 45.7143ZM17.534 36.5181H19.4886V36.175H17.534V36.5181ZM19.3171 36.3466V47.7305H19.6602V36.3466H19.3171ZM25.5012 42.6405L25.4534 42.8053L25.4537 42.8054L25.5012 42.6405ZM22.7568 41.3348L22.6463 41.4661L22.647 41.4666L22.7568 41.3348ZM22.2955 37.6992L22.1542 37.6018L22.1535 37.6029L22.2955 37.6992ZM23.656 36.5967L23.7271 36.7529L23.7277 36.7526L23.656 36.5967ZM27.8311 36.6671L27.7513 36.819L27.7518 36.8192L27.8311 36.6671ZM29.2228 37.9337L29.076 38.0224L29.0766 38.0235L29.2228 37.9337ZM29.7076 39.6304V39.8019H29.8791V39.6304H29.7076ZM28.1829 39.6304H28.0114V39.8019H28.1829V39.6304ZM27.5496 38.0276L27.4306 38.1511L27.4314 38.1519L27.5496 38.0276ZM25.9937 41.3427L25.9473 41.5078L25.9475 41.5079L25.9937 41.3427ZM28.1204 42.1871L28.0336 42.3351L28.0342 42.3354L28.1204 42.1871ZM29.3323 43.3129L29.1853 43.4015L29.1866 43.4036L29.3323 43.3129ZM29.2385 46.4482L29.0984 46.3491L29.0982 46.3494L29.2385 46.4482ZM23.6794 47.4881L23.614 47.6467L23.6155 47.6473L23.6794 47.4881ZM21.4589 44.431V44.2594H21.2874V44.431H21.4589ZM22.9757 44.431H23.1473V44.2594H22.9757V44.431ZM23.351 45.682L23.2138 45.7849L23.2148 45.7863L23.351 45.682ZM24.3596 46.4248L24.2976 46.5847L24.2983 46.585L24.3596 46.4248ZM27.9718 43.9306L27.825 44.0194L27.8272 44.0229L27.9718 43.9306ZM27.1665 43.2582L27.0865 43.41L27.0882 43.4108L27.1665 43.2582ZM25.5489 42.4758C24.3566 42.1299 23.4668 41.7032 22.8667 41.203L22.647 41.4666C23.2978 42.009 24.2376 42.4527 25.4534 42.8053L25.5489 42.4758ZM22.8673 41.2036C22.2817 40.7107 21.9901 40.0765 21.9901 39.2864H21.647C21.647 40.1746 21.981 40.9061 22.6463 41.4661L22.8673 41.2036ZM21.9901 39.2864C21.9901 38.7302 22.1396 38.235 22.4375 37.7954L22.1535 37.6029C21.8155 38.1016 21.647 38.6645 21.647 39.2864H21.9901ZM22.4368 37.7965C22.7402 37.3561 23.1679 37.0075 23.7271 36.7529L23.5849 36.4406C22.9764 36.7177 22.4972 37.104 22.1542 37.6018L22.4368 37.7965ZM23.7277 36.7526C24.2906 36.4935 24.9405 36.3617 25.681 36.3617V36.0186C24.8995 36.0186 24.1993 36.1579 23.5842 36.4409L23.7277 36.7526ZM25.681 36.3617C26.4878 36.3617 27.176 36.5164 27.7513 36.819L27.911 36.5153C27.277 36.1819 26.5317 36.0186 25.681 36.0186V36.3617ZM27.7518 36.8192C28.3371 37.1244 28.7761 37.526 29.076 38.0224L29.3697 37.845C29.0336 37.2885 28.5448 36.8457 27.9104 36.515L27.7518 36.8192ZM29.0766 38.0235C29.3836 38.5236 29.536 39.0581 29.536 39.6304H29.8791C29.8791 38.9933 29.7084 38.3968 29.369 37.844L29.0766 38.0235ZM29.7076 39.4588H28.1829V39.8019H29.7076V39.4588ZM28.3545 39.6304C28.3545 38.9237 28.1292 38.3418 27.6678 37.9032L27.4314 38.1519C27.8145 38.5161 28.0114 39.0027 28.0114 39.6304H28.3545ZM27.6686 37.904C27.2034 37.456 26.5308 37.2461 25.681 37.2461V37.5893C26.4783 37.5893 27.0514 37.786 27.4306 38.1511L27.6686 37.904ZM25.681 37.2461C24.8926 37.2461 24.2649 37.4201 23.8259 37.7955L24.0489 38.0563C24.4023 37.7541 24.9369 37.5893 25.681 37.5893V37.2461ZM23.8259 37.7955C23.3891 38.1691 23.1717 38.6637 23.1717 39.2629H23.5148C23.5148 38.7571 23.6934 38.3603 24.0489 38.0563L23.8259 37.7955ZM23.1717 39.2629C23.1717 39.6207 23.2735 39.9412 23.4793 40.2176L23.7545 40.0127C23.5954 39.7991 23.5148 39.5514 23.5148 39.2629H23.1717ZM23.4793 40.2176C23.6825 40.4905 23.9908 40.727 24.3907 40.9323L24.5475 40.6271C24.1759 40.4363 23.9161 40.2297 23.7545 40.0127L23.4793 40.2176ZM24.3907 40.9323C24.7904 41.1376 25.3106 41.3289 25.9473 41.5078L26.0401 41.1775C25.4155 41.002 24.9192 40.818 24.5475 40.6271L24.3907 40.9323ZM25.9475 41.5079C26.8147 41.7505 27.5085 42.0271 28.0336 42.335L28.2072 42.0391C27.6481 41.7111 26.9241 41.4248 26.04 41.1774L25.9475 41.5079ZM28.0342 42.3354C28.5628 42.6425 28.9429 42.9991 29.1853 43.4015L29.4792 43.2244C29.2004 42.7615 28.7726 42.3676 28.2066 42.0387L28.0342 42.3354ZM29.1866 43.4036C29.4328 43.7994 29.5595 44.2751 29.5595 44.8376H29.9026C29.9026 44.2221 29.7634 43.6813 29.478 43.2223L29.1866 43.4036ZM29.5595 44.8376C29.5595 45.4147 29.4048 45.9163 29.0984 46.3491L29.3785 46.5473C29.7289 46.0523 29.9026 45.4802 29.9026 44.8376H29.5595ZM29.0982 46.3494C28.7964 46.7777 28.3629 47.1135 27.7885 47.3532L27.9206 47.6699C28.5451 47.4092 29.0341 47.0361 29.3787 46.547L29.0982 46.3494ZM27.7885 47.3532C27.2142 47.5929 26.539 47.7153 25.7592 47.7153V48.0584C26.5743 48.0584 27.2961 47.9306 27.9206 47.6699L27.7885 47.3532ZM25.7592 47.7153C25.0562 47.7153 24.3847 47.5864 23.7433 47.3289L23.6155 47.6473C24.2981 47.9214 25.0131 48.0584 25.7592 48.0584V47.7153ZM23.7449 47.3295C23.1133 47.0689 22.6035 46.6899 22.2112 46.1933L21.942 46.406C22.3732 46.9519 22.932 47.3652 23.614 47.6467L23.7449 47.3295ZM22.2112 46.1933C21.8256 45.7052 21.6305 45.1207 21.6305 44.431H21.2874C21.2874 45.1904 21.5041 45.8517 21.942 46.406L22.2112 46.1933ZM21.4589 44.6026H22.9757V44.2594H21.4589V44.6026ZM22.8042 44.431C22.8042 44.9609 22.9371 45.4161 23.2138 45.7849L23.4883 45.5791C23.2645 45.2807 23.1473 44.9019 23.1473 44.431H22.8042ZM23.2148 45.7863C23.4906 46.1465 23.8532 46.4125 24.2976 46.5847L24.4216 46.2648C24.032 46.1138 23.7223 45.8846 23.4873 45.5777L23.2148 45.7863ZM24.2983 46.585C24.7425 46.755 25.2301 46.8387 25.7592 46.8387V46.4956C25.2666 46.4956 24.8212 46.4177 24.421 46.2645L24.2983 46.585ZM25.7592 46.8387C26.557 46.8387 27.2008 46.673 27.6687 46.3192L27.4618 46.0455C27.0749 46.3381 26.5147 46.4956 25.7592 46.4956V46.8387ZM27.6687 46.3192C28.1415 45.9618 28.378 45.4667 28.378 44.8532H28.0348C28.0348 45.3656 27.8439 45.7567 27.4618 46.0455L27.6687 46.3192ZM28.378 44.8532C28.378 44.4593 28.2947 44.1175 28.1165 43.8383L27.8272 44.0229C27.9618 44.2337 28.0348 44.507 28.0348 44.8532H28.378ZM28.1187 43.8419C27.9449 43.5543 27.6461 43.3116 27.2449 43.1056L27.0882 43.4108C27.4584 43.6009 27.6964 43.8065 27.825 44.0193L28.1187 43.8419ZM27.2465 43.1064C26.8456 42.8951 26.2775 42.6854 25.5486 42.4757L25.4537 42.8054C26.1738 43.0126 26.716 43.2147 27.0865 43.41L27.2465 43.1064Z" fill="#FC9D68"/>
<path d="M18.9164 47.2891H17.4074V42.8403L17.5481 38.0944L13.8186 47.2891H12.6693L8.94762 38.1022L9.08836 42.8403V47.2891H7.57936V35.9051H8.87725H9.53402L13.2479 45.2093L16.9617 35.9051H18.9164V47.2891ZM24.9289 42.1991C23.7248 41.8499 22.81 41.4147 22.1846 40.8934C21.5591 40.367 21.2463 39.6841 21.2463 38.8449C21.2463 38.2559 21.4053 37.7269 21.7233 37.2578C22.0464 36.7886 22.4999 36.4212 23.0837 36.1553C23.6727 35.8843 24.3477 35.7488 25.1087 35.7488C25.9375 35.7488 26.6542 35.9078 27.2588 36.2257C27.8687 36.5437 28.3326 36.9659 28.6506 37.4923C28.9737 38.0188 29.1353 38.5843 29.1353 39.189H27.6107C27.6107 38.5218 27.3996 37.9875 26.9774 37.5861C26.5552 37.1796 25.9323 36.9763 25.1087 36.9763C24.3425 36.9763 23.7613 37.1457 23.3652 37.4845C22.969 37.8233 22.771 38.269 22.771 38.8215C22.771 39.1447 22.8622 39.4287 23.0446 39.6737C23.227 39.9187 23.5111 40.1402 23.8968 40.3383C24.2826 40.5364 24.7908 40.724 25.4215 40.9012C26.2972 41.1462 27.006 41.4277 27.5481 41.7457C28.0954 42.0636 28.4994 42.4389 28.76 42.8715C29.0259 43.299 29.1588 43.8072 29.1588 44.3962C29.1588 45.006 28.9946 45.5429 28.6662 46.0068C28.343 46.4655 27.8817 46.8199 27.2823 47.0701C26.6829 47.3203 25.9844 47.4454 25.1869 47.4454C24.4624 47.4454 23.7691 47.3125 23.1072 47.0467C22.4504 46.7756 21.9161 46.3795 21.5043 45.8583C21.0926 45.337 20.8867 44.7141 20.8867 43.9896H22.4035C22.4035 44.49 22.5286 44.907 22.7788 45.2406C23.0342 45.5742 23.3704 45.8218 23.7874 45.9834C24.2096 46.1449 24.6761 46.2257 25.1869 46.2257C25.9636 46.2257 26.5656 46.0641 26.993 45.741C27.4204 45.4178 27.6341 44.9747 27.6341 44.4118C27.6341 44.0417 27.5559 43.7342 27.3996 43.4892C27.2484 43.239 26.98 43.0149 26.5943 42.8168C26.2085 42.6135 25.6534 42.4076 24.9289 42.1991Z" fill="#E77830"/>
<path d="M18.9164 47.2891V47.4606H19.0879V47.2891H18.9164ZM17.4074 47.2891H17.2358V47.4606H17.4074V47.2891ZM17.4074 42.8403L17.2358 42.8352V42.8403H17.4074ZM17.5481 38.0944L17.7196 38.0994L17.3891 38.0299L17.5481 38.0944ZM13.8186 47.2891V47.4606H13.9342L13.9776 47.3535L13.8186 47.2891ZM12.6693 47.2891L12.5103 47.3535L12.5537 47.4606H12.6693V47.2891ZM8.94762 38.1022L9.10663 38.0378L8.77613 38.1073L8.94762 38.1022ZM9.08836 42.8403H9.25999L9.25984 42.8352L9.08836 42.8403ZM9.08836 47.2891V47.4606H9.25992V47.2891H9.08836ZM7.57936 47.2891H7.4078V47.4606H7.57936V47.2891ZM7.57936 35.9051V35.7336H7.4078V35.9051H7.57936ZM9.53402 35.9051L9.69336 35.8415L9.65026 35.7336H9.53402V35.9051ZM13.2479 45.2093L13.0885 45.2729L13.2479 45.6721L13.4072 45.2729L13.2479 45.2093ZM16.9617 35.9051V35.7336H16.8455L16.8024 35.8415L16.9617 35.9051ZM18.9164 35.9051H19.0879V35.7336H18.9164V35.9051ZM18.9164 47.1175H17.4074V47.4606H18.9164V47.1175ZM17.5789 47.2891V42.8403H17.2358V47.2891H17.5789ZM17.5789 42.8453L17.7196 38.0994L17.3766 38.0893L17.2359 42.8352L17.5789 42.8453ZM17.3891 38.0299L13.6596 47.2246L13.9776 47.3535L17.7071 38.1588L17.3891 38.0299ZM13.8186 47.1175H12.6693V47.4606H13.8186V47.1175ZM12.8283 47.2246L9.10663 38.0378L8.78861 38.1666L12.5103 47.3535L12.8283 47.2246ZM8.77613 38.1073L8.91687 42.8454L9.25984 42.8352L9.11911 38.0971L8.77613 38.1073ZM8.91679 42.8403V47.2891H9.25992V42.8403H8.91679ZM9.08836 47.1175H7.57936V47.4606H9.08836V47.1175ZM7.75092 47.2891V35.9051H7.4078V47.2891H7.75092ZM7.57936 36.0767H8.87725V35.7336H7.57936V36.0767ZM8.87725 36.0767H9.53402V35.7336H8.87725V36.0767ZM9.37468 35.9687L13.0885 45.2729L13.4072 45.1457L9.69336 35.8415L9.37468 35.9687ZM13.4072 45.2729L17.1211 35.9687L16.8024 35.8415L13.0885 45.1457L13.4072 45.2729ZM16.9617 36.0767H18.9164V35.7336H16.9617V36.0767ZM18.7448 35.9051V47.2891H19.0879V35.9051H18.7448ZM24.9289 42.1991L24.8811 42.3639L24.8814 42.364L24.9289 42.1991ZM22.1846 40.8934L22.0741 41.0247L22.0747 41.0252L22.1846 40.8934ZM21.7233 37.2578L21.582 37.1604L21.5812 37.1615L21.7233 37.2578ZM23.0837 36.1553L23.1548 36.3115L23.1554 36.3112L23.0837 36.1553ZM27.2588 36.2257L27.179 36.3776L27.1795 36.3778L27.2588 36.2257ZM28.6506 37.4923L28.5037 37.581L28.5043 37.5821L28.6506 37.4923ZM29.1353 39.189V39.3605H29.3069V39.189H29.1353ZM27.6107 39.189H27.4391V39.3605H27.6107V39.189ZM26.9774 37.5861L26.8584 37.7097L26.8592 37.7105L26.9774 37.5861ZM25.4215 40.9012L25.3751 41.0664L25.3752 41.0665L25.4215 40.9012ZM27.5481 41.7457L27.4613 41.8936L27.4619 41.894L27.5481 41.7457ZM28.76 42.8715L28.613 42.9601L28.6143 42.9621L28.76 42.8715ZM28.6662 46.0068L28.5262 45.9077L28.5259 45.908L28.6662 46.0068ZM23.1072 47.0467L23.0417 47.2053L23.0432 47.2059L23.1072 47.0467ZM20.8867 43.9896V43.818H20.7151V43.9896H20.8867ZM22.4035 43.9896H22.575V43.818H22.4035V43.9896ZM22.7788 45.2406L22.6415 45.3435L22.6425 45.3449L22.7788 45.2406ZM23.7874 45.9834L23.7254 46.1433L23.726 46.1436L23.7874 45.9834ZM27.3996 43.4892L27.2527 43.578L27.255 43.5815L27.3996 43.4892ZM26.5943 42.8168L26.5143 42.9686L26.5159 42.9694L26.5943 42.8168ZM24.9767 42.0344C23.7843 41.6885 22.8946 41.2618 22.2944 40.7616L22.0747 41.0252C22.7255 41.5676 23.6653 42.0113 24.8811 42.3639L24.9767 42.0344ZM22.295 40.7622C21.7094 40.2693 21.4179 39.6351 21.4179 38.8449H21.0748C21.0748 39.7332 21.4087 40.4647 22.0741 41.0247L22.295 40.7622ZM21.4179 38.8449C21.4179 38.2888 21.5674 37.7936 21.8653 37.354L21.5812 37.1615C21.2432 37.6602 21.0748 38.2231 21.0748 38.8449H21.4179ZM21.8645 37.3551C22.1679 36.9147 22.5956 36.5661 23.1548 36.3115L23.0126 35.9992C22.4042 36.2763 21.9249 36.6626 21.582 37.1604L21.8645 37.3551ZM23.1554 36.3112C23.7184 36.0521 24.3682 35.9203 25.1087 35.9203V35.5772C24.3272 35.5772 23.627 35.7164 23.012 35.9995L23.1554 36.3112ZM25.1087 35.9203C25.9155 35.9203 26.6037 36.075 27.179 36.3776L27.3387 36.0739C26.7047 35.7405 25.9594 35.5772 25.1087 35.5772V35.9203ZM27.1795 36.3778C27.7649 36.683 28.2039 37.0846 28.5037 37.581L28.7974 37.4036C28.4613 36.8471 27.9725 36.4043 27.3382 36.0736L27.1795 36.3778ZM28.5043 37.5821C28.8113 38.0821 28.9637 38.6167 28.9637 39.189H29.3069C29.3069 38.5519 29.1361 37.9554 28.7968 37.4026L28.5043 37.5821ZM29.1353 39.0174H27.6107V39.3605H29.1353V39.0174ZM27.7822 39.189C27.7822 38.4822 27.5569 37.9004 27.0956 37.4618L26.8592 37.7105C27.2422 38.0746 27.4391 38.5613 27.4391 39.189H27.7822ZM27.0964 37.4626C26.6312 37.0146 25.9585 36.8047 25.1087 36.8047V37.1479C25.906 37.1479 26.4792 37.3446 26.8584 37.7097L27.0964 37.4626ZM25.1087 36.8047C24.3203 36.8047 23.6926 36.9787 23.2537 37.3541L23.4767 37.6149C23.83 37.3127 24.3647 37.1479 25.1087 37.1479V36.8047ZM23.2537 37.3541C22.8169 37.7277 22.5994 38.2223 22.5994 38.8215H22.9425C22.9425 38.3157 23.1212 37.9189 23.4767 37.6149L23.2537 37.3541ZM22.5994 38.8215C22.5994 39.1793 22.7012 39.4998 22.907 39.7762L23.1822 39.5713C23.0231 39.3577 22.9425 39.11 22.9425 38.8215H22.5994ZM22.907 39.7762C23.1102 40.0491 23.4186 40.2856 23.8185 40.4909L23.9752 40.1857C23.6037 39.9949 23.3438 39.7883 23.1822 39.5713L22.907 39.7762ZM23.8185 40.4909C24.2181 40.6962 24.7383 40.8875 25.3751 41.0664L25.4679 40.7361C24.8432 40.5606 24.347 40.3766 23.9752 40.1857L23.8185 40.4909ZM25.3752 41.0665C26.2425 41.3091 26.9362 41.5857 27.4613 41.8936L27.6349 41.5977C27.0758 41.2697 26.3518 40.9834 25.4677 40.736L25.3752 41.0665ZM27.4619 41.894C27.9905 42.2011 28.3707 42.5577 28.6131 42.9601L28.907 42.783C28.6281 42.3201 28.2004 41.9262 27.6343 41.5973L27.4619 41.894ZM28.6143 42.9621C28.8605 43.358 28.9872 43.8337 28.9872 44.3962H29.3303C29.3303 43.7807 29.1912 43.2399 28.9057 42.7809L28.6143 42.9621ZM28.9872 44.3962C28.9872 44.9733 28.8325 45.4749 28.5262 45.9077L28.8062 46.1059C29.1566 45.6109 29.3303 45.0388 29.3303 44.3962H28.9872ZM28.5259 45.908C28.2242 46.3363 27.7906 46.6721 27.2162 46.9118L27.3484 47.2285C27.9728 46.9678 28.4619 46.5947 28.8064 46.1056L28.5259 45.908ZM27.2162 46.9118C26.6419 47.1515 25.9667 47.2739 25.1869 47.2739V47.617C26.0021 47.617 26.7238 47.4891 27.3484 47.2285L27.2162 46.9118ZM25.1869 47.2739C24.4839 47.2739 23.8124 47.145 23.1711 46.8875L23.0432 47.2059C23.7258 47.48 24.4408 47.617 25.1869 47.617V47.2739ZM23.1726 46.8881C22.541 46.6275 22.0313 46.2485 21.639 45.7519L21.3697 45.9646C21.801 46.5105 22.3597 46.9238 23.0417 47.2053L23.1726 46.8881ZM21.639 45.7519C21.2533 45.2637 21.0582 44.6793 21.0582 43.9896H20.7151C20.7151 44.749 20.9318 45.4103 21.3697 45.9646L21.639 45.7519ZM20.8867 44.1612H22.4035V43.818H20.8867V44.1612ZM22.2319 43.9896C22.2319 44.5195 22.3649 44.9747 22.6415 45.3435L22.916 45.1376C22.6923 44.8393 22.575 44.4605 22.575 43.9896H22.2319ZM22.6425 45.3449C22.9184 45.7051 23.281 45.9711 23.7254 46.1433L23.8494 45.8234C23.4598 45.6724 23.15 45.4432 22.915 45.1363L22.6425 45.3449ZM23.726 46.1436C24.1702 46.3136 24.6578 46.3973 25.1869 46.3973V46.0542C24.6943 46.0542 24.2489 45.9763 23.8487 45.8231L23.726 46.1436ZM25.1869 46.3973C25.9847 46.3973 26.6285 46.2316 27.0965 45.8778L26.8895 45.6041C26.5027 45.8966 25.9424 46.0542 25.1869 46.0542V46.3973ZM27.0965 45.8778C27.5693 45.5204 27.8057 45.0253 27.8057 44.4118H27.4626C27.4626 44.9242 27.2716 45.3153 26.8895 45.6041L27.0965 45.8778ZM27.8057 44.4118C27.8057 44.0179 27.7224 43.6761 27.5442 43.3969L27.255 43.5815C27.3895 43.7923 27.4626 44.0656 27.4626 44.4118H27.8057ZM27.5464 43.4005C27.3727 43.1129 27.0739 42.8702 26.6726 42.6642L26.5159 42.9694C26.8861 43.1595 27.1241 43.3651 27.2527 43.5779L27.5464 43.4005ZM26.6742 42.665C26.2733 42.4537 25.7053 42.244 24.9763 42.0343L24.8814 42.364C25.6016 42.5712 26.1438 42.7733 26.5143 42.9686L26.6742 42.665Z" fill="#E77830"/>
<path d="M50.8978 47.7305H49.3888V43.2817L49.5296 38.5358L45.8001 47.7305H44.6507L40.9291 38.5436L41.0698 43.2817V47.7305H39.5608V36.3466H40.8587H41.5155L45.2293 45.6507L48.9432 36.3466H50.8978V47.7305ZM56.9103 42.6405C55.7063 42.2913 54.7915 41.8561 54.166 41.3348C53.5405 40.8084 53.2278 40.1256 53.2278 39.2864C53.2278 38.6974 53.3867 38.1683 53.7047 37.6992C54.0279 37.2301 54.4814 36.8626 55.0651 36.5967C55.6541 36.3257 56.3292 36.1902 57.0902 36.1902C57.9189 36.1902 58.6356 36.3492 59.2403 36.6671C59.8501 36.9851 60.314 37.4073 60.632 37.9337C60.9552 38.4602 61.1168 39.0257 61.1168 39.6304H59.5921C59.5921 38.9632 59.381 38.4289 58.9588 38.0276C58.5366 37.621 57.9137 37.4177 57.0902 37.4177C56.3239 37.4177 55.7428 37.5871 55.3466 37.9259C54.9505 38.2647 54.7524 38.7104 54.7524 39.2629C54.7524 39.5861 54.8436 39.8701 55.026 40.1151C55.2085 40.3601 55.4926 40.5816 55.8783 40.7797C56.264 40.9778 56.7722 41.1654 57.4029 41.3427C58.2786 41.5876 58.9875 41.8691 59.5296 42.1871C60.0769 42.505 60.4808 42.8803 60.7415 43.3129C61.0073 43.7404 61.1402 44.2486 61.1402 44.8376C61.1402 45.4474 60.976 45.9843 60.6476 46.4482C60.3245 46.9069 59.8632 47.2614 59.2637 47.5115C58.6643 47.7617 57.9659 47.8868 57.1684 47.8868C56.4438 47.8868 55.7506 47.7539 55.0886 47.4881C54.4318 47.217 53.8976 46.8209 53.4858 46.2997C53.074 45.7784 52.8681 45.1555 52.8681 44.431H54.3849C54.3849 44.9314 54.51 45.3484 54.7602 45.682C55.0156 46.0156 55.3518 46.2632 55.7688 46.4248C56.191 46.5863 56.6575 46.6671 57.1684 46.6671C57.945 46.6671 58.547 46.5056 58.9745 46.1824C59.4019 45.8592 59.6156 45.4162 59.6156 44.8532C59.6156 44.4831 59.5374 44.1756 59.381 43.9306C59.2299 43.6804 58.9614 43.4563 58.5757 43.2582C58.19 43.0549 57.6349 42.849 56.9103 42.6405Z" fill="#FC9D68"/>
<path d="M50.8978 47.7305V47.902H51.0694V47.7305H50.8978ZM49.3888 47.7305H49.2173V47.902H49.3888V47.7305ZM49.3888 43.2817L49.2173 43.2766V43.2817H49.3888ZM49.5296 38.5358L49.701 38.5409L49.3706 38.4713L49.5296 38.5358ZM45.8001 47.7305V47.902H45.9156L45.9591 47.795L45.8001 47.7305ZM44.6507 47.7305L44.4917 47.7949L44.5351 47.902H44.6507V47.7305ZM40.9291 38.5436L41.0881 38.4792L40.7576 38.5487L40.9291 38.5436ZM41.0698 43.2817H41.2414L41.2413 43.2766L41.0698 43.2817ZM41.0698 47.7305V47.902H41.2414V47.7305H41.0698ZM39.5608 47.7305H39.3892V47.902H39.5608V47.7305ZM39.5608 36.3466V36.175H39.3892V36.3466H39.5608ZM41.5155 36.3466L41.6748 36.2829L41.6317 36.175H41.5155V36.3466ZM45.2293 45.6507L45.07 45.7143L45.2293 46.1135L45.3886 45.7143L45.2293 45.6507ZM48.9432 36.3466V36.175H48.8269L48.7838 36.2829L48.9432 36.3466ZM50.8978 36.3466H51.0694V36.175H50.8978V36.3466ZM50.8978 47.5589H49.3888V47.902H50.8978V47.5589ZM49.5604 47.7305V43.2817H49.2173V47.7305H49.5604ZM49.5603 43.2868L49.701 38.5409L49.3581 38.5307L49.2173 43.2766L49.5603 43.2868ZM49.3706 38.4713L45.6411 47.666L45.9591 47.795L49.6885 38.6003L49.3706 38.4713ZM45.8001 47.5589H44.6507V47.902H45.8001V47.5589ZM44.8097 47.6661L41.0881 38.4792L40.7701 38.608L44.4917 47.7949L44.8097 47.6661ZM40.7576 38.5487L40.8983 43.2868L41.2413 43.2766L41.1006 38.5385L40.7576 38.5487ZM40.8982 43.2817V47.7305H41.2414V43.2817H40.8982ZM41.0698 47.5589H39.5608V47.902H41.0698V47.5589ZM39.7324 47.7305V36.3466H39.3892V47.7305H39.7324ZM39.5608 36.5181H40.8587V36.175H39.5608V36.5181ZM40.8587 36.5181H41.5155V36.175H40.8587V36.5181ZM41.3561 36.4102L45.07 45.7143L45.3886 45.5871L41.6748 36.2829L41.3561 36.4102ZM45.3886 45.7143L49.1025 36.4102L48.7838 36.2829L45.07 45.5871L45.3886 45.7143ZM48.9432 36.5181H50.8978V36.175H48.9432V36.5181ZM50.7263 36.3466V47.7305H51.0694V36.3466H50.7263ZM56.9103 42.6405L56.8625 42.8053L56.8629 42.8054L56.9103 42.6405ZM54.166 41.3348L54.0555 41.4661L54.0562 41.4666L54.166 41.3348ZM53.7047 37.6992L53.5634 37.6018L53.5627 37.6029L53.7047 37.6992ZM55.0651 36.5967L55.1362 36.7529L55.1369 36.7526L55.0651 36.5967ZM59.2403 36.6671L59.1604 36.819L59.161 36.8192L59.2403 36.6671ZM60.632 37.9337L60.4851 38.0224L60.4858 38.0235L60.632 37.9337ZM61.1168 39.6304V39.8019H61.2883V39.6304H61.1168ZM59.5921 39.6304H59.4206V39.8019H59.5921V39.6304ZM58.9588 38.0276L58.8398 38.1511L58.8406 38.1519L58.9588 38.0276ZM57.4029 41.3427L57.3565 41.5078L57.3567 41.5079L57.4029 41.3427ZM59.5296 42.1871L59.4428 42.3351L59.4434 42.3354L59.5296 42.1871ZM60.7415 43.3129L60.5945 43.4015L60.5958 43.4036L60.7415 43.3129ZM60.6476 46.4482L60.5076 46.3491L60.5074 46.3494L60.6476 46.4482ZM55.0886 47.4881L55.0231 47.6467L55.0247 47.6473L55.0886 47.4881ZM52.8681 44.431V44.2594H52.6965V44.431H52.8681ZM54.3849 44.431H54.5565V44.2594H54.3849V44.431ZM54.7602 45.682L54.623 45.7849L54.624 45.7863L54.7602 45.682ZM55.7688 46.4248L55.7068 46.5847L55.7075 46.585L55.7688 46.4248ZM59.381 43.9306L59.2341 44.0194L59.2364 44.0229L59.381 43.9306ZM58.5757 43.2582L58.4957 43.41L58.4973 43.4108L58.5757 43.2582ZM56.9581 42.4758C55.7658 42.1299 54.876 41.7032 54.2758 41.203L54.0562 41.4666C54.707 42.009 55.6468 42.4527 56.8625 42.8053L56.9581 42.4758ZM54.2765 41.2036C53.6909 40.7107 53.3993 40.0765 53.3993 39.2864H53.0562C53.0562 40.1746 53.3901 40.9061 54.0555 41.4661L54.2765 41.2036ZM53.3993 39.2864C53.3993 38.7302 53.5488 38.235 53.8467 37.7954L53.5627 37.6029C53.2247 38.1016 53.0562 38.6645 53.0562 39.2864H53.3993ZM53.846 37.7965C54.1494 37.3561 54.5771 37.0075 55.1362 36.7529L54.994 36.4406C54.3856 36.7177 53.9064 37.104 53.5634 37.6018L53.846 37.7965ZM55.1369 36.7526C55.6998 36.4935 56.3496 36.3617 57.0902 36.3617V36.0186C56.3087 36.0186 55.6085 36.1579 54.9934 36.4409L55.1369 36.7526ZM57.0902 36.3617C57.897 36.3617 58.5851 36.5164 59.1604 36.819L59.3201 36.5153C58.6862 36.1819 57.9409 36.0186 57.0902 36.0186V36.3617ZM59.161 36.8192C59.7463 37.1244 60.1853 37.526 60.4851 38.0224L60.7789 37.845C60.4428 37.2885 59.954 36.8457 59.3196 36.515L59.161 36.8192ZM60.4858 38.0235C60.7928 38.5236 60.9452 39.0581 60.9452 39.6304H61.2883C61.2883 38.9933 61.1176 38.3968 60.7782 37.844L60.4858 38.0235ZM61.1168 39.4588H59.5921V39.8019H61.1168V39.4588ZM59.7637 39.6304C59.7637 38.9237 59.5384 38.3418 59.077 37.9032L58.8406 38.1519C59.2237 38.5161 59.4206 39.0027 59.4206 39.6304H59.7637ZM59.0778 37.904C58.6126 37.456 57.94 37.2461 57.0902 37.2461V37.5893C57.8875 37.5893 58.4606 37.786 58.8398 38.1511L59.0778 37.904ZM57.0902 37.2461C56.3018 37.2461 55.6741 37.4201 55.2351 37.7955L55.4581 38.0563C55.8114 37.7541 56.3461 37.5893 57.0902 37.5893V37.2461ZM55.2351 37.7955C54.7983 38.1691 54.5808 38.6637 54.5808 39.2629H54.924C54.924 38.7571 55.1026 38.3603 55.4581 38.0563L55.2351 37.7955ZM54.5808 39.2629C54.5808 39.6207 54.6826 39.9412 54.8884 40.2176L55.1636 40.0127C55.0046 39.7991 54.924 39.5514 54.924 39.2629H54.5808ZM54.8884 40.2176C55.0917 40.4905 55.4 40.727 55.7999 40.9323L55.9566 40.6271C55.5851 40.4363 55.3253 40.2297 55.1636 40.0127L54.8884 40.2176ZM55.7999 40.9323C56.1996 41.1376 56.7197 41.3289 57.3565 41.5078L57.4493 41.1775C56.8247 41.002 56.3284 40.818 55.9566 40.6271L55.7999 40.9323ZM57.3567 41.5079C58.2239 41.7505 58.9177 42.0271 59.4428 42.335L59.6164 42.0391C59.0573 41.7111 58.3333 41.4248 57.4491 41.1774L57.3567 41.5079ZM59.4434 42.3354C59.9719 42.6425 60.3521 42.9991 60.5945 43.4015L60.8884 43.2244C60.6096 42.7615 60.1818 42.3676 59.6158 42.0387L59.4434 42.3354ZM60.5958 43.4036C60.842 43.7994 60.9686 44.2751 60.9686 44.8376H61.3118C61.3118 44.2221 61.1726 43.6813 60.8871 43.2223L60.5958 43.4036ZM60.9686 44.8376C60.9686 45.4147 60.8139 45.9163 60.5076 46.3491L60.7877 46.5473C61.1381 46.0523 61.3118 45.4802 61.3118 44.8376H60.9686ZM60.5074 46.3494C60.2056 46.7777 59.772 47.1135 59.1977 47.3532L59.3298 47.6699C59.9543 47.4092 60.4433 47.0361 60.7879 46.547L60.5074 46.3494ZM59.1977 47.3532C58.6234 47.5929 57.9482 47.7153 57.1684 47.7153V48.0584C57.9835 48.0584 58.7053 47.9306 59.3298 47.6699L59.1977 47.3532ZM57.1684 47.7153C56.4654 47.7153 55.7939 47.5864 55.1525 47.3289L55.0247 47.6473C55.7073 47.9214 56.4223 48.0584 57.1684 48.0584V47.7153ZM55.154 47.3295C54.5225 47.0689 54.0127 46.6899 53.6204 46.1933L53.3512 46.406C53.7824 46.9519 54.3412 47.3652 55.0231 47.6467L55.154 47.3295ZM53.6204 46.1933C53.2348 45.7052 53.0397 45.1207 53.0397 44.431H52.6965C52.6965 45.1904 52.9132 45.8517 53.3512 46.406L53.6204 46.1933ZM52.8681 44.6026H54.3849V44.2594H52.8681V44.6026ZM54.2134 44.431C54.2134 44.9609 54.3463 45.4161 54.623 45.7849L54.8975 45.5791C54.6737 45.2807 54.5565 44.9019 54.5565 44.431H54.2134ZM54.624 45.7863C54.8998 46.1465 55.2624 46.4125 55.7068 46.5847L55.8308 46.2648C55.4412 46.1138 55.1314 45.8846 54.8964 45.5777L54.624 45.7863ZM55.7075 46.585C56.1517 46.755 56.6393 46.8387 57.1684 46.8387V46.4956C56.6758 46.4956 56.2304 46.4177 55.8301 46.2645L55.7075 46.585ZM57.1684 46.8387C57.9662 46.8387 58.61 46.673 59.0779 46.3192L58.871 46.0455C58.4841 46.3381 57.9238 46.4956 57.1684 46.4956V46.8387ZM59.0779 46.3192C59.5507 45.9618 59.7871 45.4667 59.7871 44.8532H59.444C59.444 45.3656 59.253 45.7567 58.871 46.0455L59.0779 46.3192ZM59.7871 44.8532C59.7871 44.4593 59.7038 44.1175 59.5256 43.8383L59.2364 44.0229C59.371 44.2337 59.444 44.507 59.444 44.8532H59.7871ZM59.5279 43.8419C59.3541 43.5543 59.0553 43.3116 58.6541 43.1056L58.4973 43.4108C58.8675 43.6009 59.1056 43.8065 59.2342 44.0193L59.5279 43.8419ZM58.6557 43.1064C58.2548 42.8951 57.6867 42.6854 56.9578 42.4757L56.8629 42.8054C57.583 43.0126 58.1252 43.2147 58.4957 43.41L58.6557 43.1064Z" fill="#FC9D68"/>
<path d="M50.3255 47.2891H48.8166V42.8403L48.9573 38.0944L45.2278 47.2891H44.0785L40.3568 38.1022L40.4975 42.8403V47.2891H38.9885V35.9051H40.2864H40.9432L44.657 45.2093L48.3709 35.9051H50.3255V47.2891ZM56.3381 42.1991C55.134 41.8499 54.2192 41.4147 53.5937 40.8934C52.9682 40.367 52.6555 39.6841 52.6555 38.8449C52.6555 38.2559 52.8145 37.7269 53.1324 37.2578C53.4556 36.7886 53.9091 36.4212 54.4929 36.1553C55.0819 35.8843 55.7569 35.7488 56.5179 35.7488C57.3467 35.7488 58.0634 35.9078 58.668 36.2257C59.2779 36.5437 59.7418 36.9659 60.0597 37.4923C60.3829 38.0188 60.5445 38.5843 60.5445 39.189H59.0199C59.0199 38.5218 58.8088 37.9875 58.3866 37.5861C57.9643 37.1796 57.3415 36.9763 56.5179 36.9763C55.7517 36.9763 55.1705 37.1457 54.7743 37.4845C54.3782 37.8233 54.1801 38.269 54.1801 38.8215C54.1801 39.1447 54.2713 39.4287 54.4538 39.6737C54.6362 39.9187 54.9203 40.1402 55.306 40.3383C55.6917 40.5364 56.1999 40.724 56.8306 40.9012C57.7063 41.1462 58.4152 41.4277 58.9573 41.7457C59.5046 42.0636 59.9086 42.4389 60.1692 42.8715C60.435 43.299 60.5679 43.8072 60.5679 44.3962C60.5679 45.006 60.4038 45.5429 60.0754 46.0068C59.7522 46.4655 59.2909 46.8199 58.6915 47.0701C58.092 47.3203 57.3936 47.4454 56.5961 47.4454C55.8716 47.4454 55.1783 47.3125 54.5163 47.0467C53.8596 46.7756 53.3253 46.3795 52.9135 45.8583C52.5017 45.337 52.2958 44.7141 52.2958 43.9896H53.8127C53.8127 44.49 53.9378 44.907 54.1879 45.2406C54.4434 45.5742 54.7796 45.8218 55.1966 45.9834C55.6188 46.1449 56.0853 46.2257 56.5961 46.2257C57.3727 46.2257 57.9748 46.0641 58.4022 45.741C58.8296 45.4178 59.0433 44.9747 59.0433 44.4118C59.0433 44.0417 58.9651 43.7342 58.8088 43.4892C58.6576 43.239 58.3892 43.0149 58.0034 42.8168C57.6177 42.6135 57.0626 42.4076 56.3381 42.1991Z" fill="#E77830"/>
<path d="M50.3255 47.2891V47.4606H50.4971V47.2891H50.3255ZM48.8166 47.2891H48.645V47.4606H48.8166V47.2891ZM48.8166 42.8403L48.645 42.8352V42.8403H48.8166ZM48.9573 38.0944L49.1288 38.0994L48.7983 38.0299L48.9573 38.0944ZM45.2278 47.2891V47.4606H45.3434L45.3868 47.3535L45.2278 47.2891ZM44.0785 47.2891L43.9195 47.3535L43.9629 47.4606H44.0785V47.2891ZM40.3568 38.1022L40.5158 38.0378L40.1853 38.1073L40.3568 38.1022ZM40.4975 42.8403H40.6692L40.669 42.8352L40.4975 42.8403ZM40.4975 47.2891V47.4606H40.6691V47.2891H40.4975ZM38.9885 47.2891H38.817V47.4606H38.9885V47.2891ZM38.9885 35.9051V35.7336H38.817V35.9051H38.9885ZM40.9432 35.9051L41.1025 35.8415L41.0594 35.7336H40.9432V35.9051ZM44.657 45.2093L44.4977 45.2729L44.657 45.6721L44.8164 45.2729L44.657 45.2093ZM48.3709 35.9051V35.7336H48.2546L48.2116 35.8415L48.3709 35.9051ZM50.3255 35.9051H50.4971V35.7336H50.3255V35.9051ZM50.3255 47.1175H48.8166V47.4606H50.3255V47.1175ZM48.9881 47.2891V42.8403H48.645V47.2891H48.9881ZM48.988 42.8453L49.1288 38.0994L48.7858 38.0893L48.6451 42.8352L48.988 42.8453ZM48.7983 38.0299L45.0688 47.2246L45.3868 47.3535L49.1163 38.1588L48.7983 38.0299ZM45.2278 47.1175H44.0785V47.4606H45.2278V47.1175ZM44.2375 47.2246L40.5158 38.0378L40.1978 38.1666L43.9195 47.3535L44.2375 47.2246ZM40.1853 38.1073L40.326 42.8454L40.669 42.8352L40.5283 38.0971L40.1853 38.1073ZM40.326 42.8403V47.2891H40.6691V42.8403H40.326ZM40.4975 47.1175H38.9885V47.4606H40.4975V47.1175ZM39.1601 47.2891V35.9051H38.817V47.2891H39.1601ZM38.9885 36.0767H40.2864V35.7336H38.9885V36.0767ZM40.2864 36.0767H40.9432V35.7336H40.2864V36.0767ZM40.7839 35.9687L44.4977 45.2729L44.8164 45.1457L41.1025 35.8415L40.7839 35.9687ZM44.8164 45.2729L48.5302 35.9687L48.2116 35.8415L44.4977 45.1457L44.8164 45.2729ZM48.3709 36.0767H50.3255V35.7336H48.3709V36.0767ZM50.154 35.9051V47.2891H50.4971V35.9051H50.154ZM56.3381 42.1991L56.2903 42.3639L56.2906 42.364L56.3381 42.1991ZM53.5937 40.8934L53.4833 41.0247L53.4839 41.0252L53.5937 40.8934ZM53.1324 37.2578L52.9911 37.1604L52.9904 37.1615L53.1324 37.2578ZM54.4929 36.1553L54.564 36.3115L54.5646 36.3112L54.4929 36.1553ZM58.668 36.2257L58.5882 36.3776L58.5887 36.3778L58.668 36.2257ZM60.0597 37.4923L59.9129 37.581L59.9135 37.5821L60.0597 37.4923ZM60.5445 39.189V39.3605H60.7161V39.189H60.5445ZM59.0199 39.189H58.8483V39.3605H59.0199V39.189ZM58.3866 37.5861L58.2675 37.7097L58.2683 37.7105L58.3866 37.5861ZM56.8306 40.9012L56.7842 41.0664L56.7844 41.0665L56.8306 40.9012ZM58.9573 41.7457L58.8705 41.8936L58.8711 41.894L58.9573 41.7457ZM60.1692 42.8715L60.0222 42.9601L60.0235 42.9621L60.1692 42.8715ZM60.0754 46.0068L59.9353 45.9077L59.9351 45.908L60.0754 46.0068ZM54.5163 47.0467L54.4509 47.2053L54.4524 47.2059L54.5163 47.0467ZM52.2958 43.9896V43.818H52.1243V43.9896H52.2958ZM53.8127 43.9896H53.9842V43.818H53.8127V43.9896ZM54.1879 45.2406L54.0507 45.3435L54.0517 45.3449L54.1879 45.2406ZM55.1966 45.9834L55.1346 46.1433L55.1352 46.1436L55.1966 45.9834ZM58.8088 43.4892L58.6619 43.578L58.6641 43.5815L58.8088 43.4892ZM58.0034 42.8168L57.9234 42.9686L57.9251 42.9694L58.0034 42.8168ZM56.3859 42.0344C55.1935 41.6885 54.3037 41.2618 53.7036 40.7616L53.4839 41.0252C54.1347 41.5676 55.0745 42.0113 56.2903 42.3639L56.3859 42.0344ZM53.7042 40.7622C53.1186 40.2693 52.8271 39.6351 52.8271 38.8449H52.4839C52.4839 39.7332 52.8179 40.4647 53.4833 41.0247L53.7042 40.7622ZM52.8271 38.8449C52.8271 38.2888 52.9765 37.7936 53.2745 37.354L52.9904 37.1615C52.6524 37.6602 52.4839 38.2231 52.4839 38.8449H52.8271ZM53.2737 37.3551C53.5771 36.9147 54.0048 36.5661 54.564 36.3115L54.4218 35.9992C53.8133 36.2763 53.3341 36.6626 52.9912 37.1604L53.2737 37.3551ZM54.5646 36.3112C55.1275 36.0521 55.7774 35.9203 56.5179 35.9203V35.5772C55.7364 35.5772 55.0362 35.7164 54.4212 35.9995L54.5646 36.3112ZM56.5179 35.9203C57.3247 35.9203 58.0129 36.075 58.5882 36.3776L58.7479 36.0739C58.1139 35.7405 57.3686 35.5772 56.5179 35.5772V35.9203ZM58.5887 36.3778C59.174 36.683 59.6131 37.0846 59.9129 37.581L60.2066 37.4036C59.8705 36.8471 59.3817 36.4043 58.7473 36.0736L58.5887 36.3778ZM59.9135 37.5821C60.2205 38.0821 60.3729 38.6167 60.3729 39.189H60.7161C60.7161 38.5519 60.5453 37.9554 60.2059 37.4026L59.9135 37.5821ZM60.5445 39.0174H59.0199V39.3605H60.5445V39.0174ZM59.1914 39.189C59.1914 38.4822 58.9661 37.9004 58.5048 37.4618L58.2683 37.7105C58.6514 38.0746 58.8483 38.5613 58.8483 39.189H59.1914ZM58.5056 37.4626C58.0404 37.0146 57.3677 36.8047 56.5179 36.8047V37.1479C57.3152 37.1479 57.8883 37.3446 58.2675 37.7097L58.5056 37.4626ZM56.5179 36.8047C55.7295 36.8047 55.1018 36.9787 54.6628 37.3541L54.8859 37.6149C55.2392 37.3127 55.7738 37.1479 56.5179 37.1479V36.8047ZM54.6628 37.3541C54.2261 37.7277 54.0086 38.2223 54.0086 38.8215H54.3517C54.3517 38.3157 54.5304 37.9189 54.8859 37.6149L54.6628 37.3541ZM54.0086 38.8215C54.0086 39.1793 54.1104 39.4998 54.3162 39.7762L54.5914 39.5713C54.4323 39.3577 54.3517 39.11 54.3517 38.8215H54.0086ZM54.3162 39.7762C54.5194 40.0491 54.8277 40.2856 55.2276 40.4909L55.3844 40.1857C55.0128 39.9949 54.753 39.7883 54.5914 39.5713L54.3162 39.7762ZM55.2276 40.4909C55.6273 40.6962 56.1475 40.8875 56.7842 41.0664L56.8771 40.7361C56.2524 40.5606 55.7561 40.3766 55.3844 40.1857L55.2276 40.4909ZM56.7844 41.0665C57.6516 41.3091 58.3454 41.5857 58.8705 41.8936L59.0441 41.5977C58.485 41.2697 57.761 40.9834 56.8769 40.736L56.7844 41.0665ZM58.8711 41.894C59.3997 42.2011 59.7798 42.5577 60.0222 42.9601L60.3162 42.783C60.0373 42.3201 59.6095 41.9262 59.0435 41.5973L58.8711 41.894ZM60.0235 42.9621C60.2697 43.358 60.3964 43.8337 60.3964 44.3962H60.7395C60.7395 43.7807 60.6003 43.2399 60.3149 42.7809L60.0235 42.9621ZM60.3964 44.3962C60.3964 44.9733 60.2417 45.4749 59.9353 45.9077L60.2154 46.1059C60.5658 45.6109 60.7395 45.0388 60.7395 44.3962H60.3964ZM59.9351 45.908C59.6334 46.3363 59.1998 46.6721 58.6254 46.9118L58.7576 47.2285C59.382 46.9678 59.871 46.5947 60.2156 46.1056L59.9351 45.908ZM58.6254 46.9118C58.0511 47.1515 57.3759 47.2739 56.5961 47.2739V47.617C57.4113 47.617 58.133 47.4891 58.7576 47.2285L58.6254 46.9118ZM56.5961 47.2739C55.8931 47.2739 55.2216 47.145 54.5803 46.8875L54.4524 47.2059C55.135 47.48 55.85 47.617 56.5961 47.617V47.2739ZM54.5818 46.8881C53.9502 46.6275 53.4404 46.2485 53.0481 45.7519L52.7789 45.9646C53.2101 46.5105 53.7689 46.9238 54.4509 47.2053L54.5818 46.8881ZM53.0481 45.7519C52.6625 45.2637 52.4674 44.6793 52.4674 43.9896H52.1243C52.1243 44.749 52.341 45.4103 52.7789 45.9646L53.0481 45.7519ZM52.2958 44.1612H53.8127V43.818H52.2958V44.1612ZM53.6411 43.9896C53.6411 44.5195 53.774 44.9747 54.0507 45.3435L54.3252 45.1376C54.1015 44.8393 53.9842 44.4605 53.9842 43.9896H53.6411ZM54.0517 45.3449C54.3275 45.7051 54.6902 45.9711 55.1346 46.1433L55.2585 45.8234C54.869 45.6724 54.5592 45.4432 54.3242 45.1363L54.0517 45.3449ZM55.1352 46.1436C55.5794 46.3136 56.067 46.3973 56.5961 46.3973V46.0542C56.1035 46.0542 55.6581 45.9763 55.2579 45.8231L55.1352 46.1436ZM56.5961 46.3973C57.3939 46.3973 58.0377 46.2316 58.5057 45.8778L58.2987 45.6041C57.9118 45.8966 57.3516 46.0542 56.5961 46.0542V46.3973ZM58.5057 45.8778C58.9784 45.5204 59.2149 45.0253 59.2149 44.4118H58.8718C58.8718 44.9242 58.6808 45.3153 58.2987 45.6041L58.5057 45.8778ZM59.2149 44.4118C59.2149 44.0179 59.1316 43.6761 58.9534 43.3969L58.6641 43.5815C58.7987 43.7923 58.8718 44.0656 58.8718 44.4118H59.2149ZM58.9556 43.4005C58.7819 43.1129 58.483 42.8702 58.0818 42.6642L57.9251 42.9694C58.2953 43.1595 58.5333 43.3651 58.6619 43.5779L58.9556 43.4005ZM58.0834 42.665C57.6825 42.4537 57.1144 42.244 56.3855 42.0343L56.2906 42.364C57.0108 42.5712 57.5529 42.7733 57.9234 42.9686L58.0834 42.665Z" fill="#E77830"/>
<path d="M31.6549 46.9208L36.1337 35.2745H37.3049L32.8335 46.9208H31.6549Z" fill="#FC9D68"/>
<path d="M30.6088 47.2476L35.2711 35.1241H36.4904L31.8357 47.2476H30.6088Z" fill="#E77830"/>
<path d="M30.6088 47.2476L30.4579 47.1896L30.3735 47.4092H30.6088V47.2476ZM35.2711 35.1241V34.9624H35.1601L35.1202 35.066L35.2711 35.1241ZM36.4904 35.1241L36.6413 35.182L36.7256 34.9624H36.4904V35.1241ZM31.8357 47.2476V47.4092H31.9468L31.9866 47.3055L31.8357 47.2476ZM30.7597 47.3056L35.422 35.1821L35.1202 35.066L30.4579 47.1896L30.7597 47.3056ZM35.2711 35.2857H36.4904V34.9624H35.2711V35.2857ZM36.3395 35.0661L31.6848 47.1897L31.9866 47.3055L36.6413 35.182L36.3395 35.0661ZM31.8357 47.086H30.6088V47.4092H31.8357V47.086Z" fill="#E77830"/>
</svg>
