<svg width="126" height="28" viewBox="0 0 126 28" fill="none" xmlns="http://www.w3.org/2000/svg">
<rect x="0.5" y="0.5" width="125" height="27" rx="3.5" fill="white" stroke="#6A53B3"/>
<path d="M0.5 4C0.5 2.067 2.067 0.5 4 0.5H28.5V27.5H4C2.067 27.5 0.5 25.933 0.5 24V4Z" fill="#6A53B3" stroke="#6A53B3"/>
<path d="M42.488 9.96C43.24 9.96 43.888 10.128 44.432 10.464C44.984 10.792 45.408 11.26 45.704 11.868C46.008 12.476 46.16 13.2 46.16 14.04C46.16 14.88 46.008 15.604 45.704 16.212C45.408 16.82 44.984 17.292 44.432 17.628C43.888 17.956 43.24 18.12 42.488 18.12C41.736 18.12 41.084 17.956 40.532 17.628C39.988 17.292 39.564 16.82 39.26 16.212C38.964 15.604 38.816 14.88 38.816 14.04C38.816 13.2 38.964 12.476 39.26 11.868C39.564 11.26 39.988 10.792 40.532 10.464C41.084 10.128 41.736 9.96 42.488 9.96ZM42.488 10.86C41.944 10.86 41.472 10.988 41.072 11.244C40.672 11.492 40.364 11.856 40.148 12.336C39.932 12.808 39.824 13.376 39.824 14.04C39.824 14.704 39.932 15.276 40.148 15.756C40.364 16.228 40.672 16.592 41.072 16.848C41.472 17.096 41.944 17.22 42.488 17.22C43.04 17.22 43.512 17.096 43.904 16.848C44.304 16.592 44.612 16.228 44.828 15.756C45.044 15.276 45.152 14.704 45.152 14.04C45.152 13.376 45.044 12.808 44.828 12.336C44.612 11.856 44.304 11.492 43.904 11.244C43.512 10.988 43.04 10.86 42.488 10.86ZM48.034 20.52V12H48.874L48.958 13.464L48.826 13.296C48.93 13.016 49.086 12.772 49.294 12.564C49.502 12.348 49.754 12.18 50.05 12.06C50.346 11.94 50.666 11.88 51.01 11.88C51.498 11.88 51.946 12.004 52.354 12.252C52.77 12.5 53.102 12.856 53.35 13.32C53.598 13.784 53.722 14.344 53.722 15C53.722 15.648 53.594 16.208 53.338 16.68C53.09 17.144 52.758 17.5 52.342 17.748C51.926 17.996 51.47 18.12 50.974 18.12C50.478 18.12 50.042 18 49.666 17.76C49.298 17.512 49.034 17.2 48.874 16.824L48.994 16.644V20.52H48.034ZM50.878 17.28C51.47 17.28 51.93 17.072 52.258 16.656C52.594 16.24 52.762 15.688 52.762 15C52.762 14.312 52.598 13.76 52.27 13.344C51.95 12.928 51.498 12.72 50.914 12.72C50.53 12.72 50.194 12.816 49.906 13.008C49.618 13.192 49.394 13.456 49.234 13.8C49.074 14.136 48.994 14.536 48.994 15C48.994 15.456 49.07 15.856 49.222 16.2C49.382 16.544 49.602 16.812 49.882 17.004C50.17 17.188 50.502 17.28 50.878 17.28ZM58.0654 18.12C57.4974 18.12 56.9894 17.996 56.5414 17.748C56.1014 17.5 55.7574 17.144 55.5094 16.68C55.2614 16.208 55.1374 15.648 55.1374 15C55.1374 14.352 55.2614 13.796 55.5094 13.332C55.7574 12.86 56.0974 12.5 56.5294 12.252C56.9614 12.004 57.4534 11.88 58.0054 11.88C58.5654 11.88 59.0414 12 59.4334 12.24C59.8334 12.48 60.1374 12.808 60.3454 13.224C60.5534 13.632 60.6574 14.092 60.6574 14.604C60.6574 14.74 60.6534 14.864 60.6454 14.976C60.6374 15.088 60.6254 15.188 60.6094 15.276H55.7614V14.424H60.1894L59.6974 14.52C59.6974 13.944 59.5374 13.5 59.2174 13.188C58.9054 12.876 58.4934 12.72 57.9814 12.72C57.5894 12.72 57.2494 12.812 56.9614 12.996C56.6814 13.172 56.4614 13.432 56.3014 13.776C56.1494 14.112 56.0734 14.52 56.0734 15C56.0734 15.472 56.1534 15.88 56.3134 16.224C56.4734 16.568 56.6974 16.832 56.9854 17.016C57.2814 17.192 57.6334 17.28 58.0414 17.28C58.4814 17.28 58.8374 17.196 59.1094 17.028C59.3894 16.86 59.6134 16.632 59.7814 16.344L60.5374 16.788C60.3854 17.06 60.1894 17.296 59.9494 17.496C59.7174 17.696 59.4414 17.852 59.1214 17.964C58.8094 18.068 58.4574 18.12 58.0654 18.12ZM62.4832 18V12H63.3232L63.4072 13.344L63.2512 13.212C63.3792 12.892 63.5512 12.636 63.7672 12.444C63.9832 12.244 64.2312 12.1 64.5112 12.012C64.7992 11.924 65.0952 11.88 65.3992 11.88C65.8312 11.88 66.2232 11.964 66.5752 12.132C66.9272 12.292 67.2072 12.54 67.4152 12.876C67.6312 13.212 67.7392 13.64 67.7392 14.16V18H66.7792V14.496C66.7792 13.832 66.6352 13.372 66.3472 13.116C66.0672 12.852 65.7192 12.72 65.3032 12.72C65.0152 12.72 64.7272 12.788 64.4392 12.924C64.1512 13.06 63.9112 13.28 63.7192 13.584C63.5352 13.888 63.4432 14.296 63.4432 14.808V18H62.4832ZM74.4827 10.848C74.2667 10.848 74.0907 10.784 73.9547 10.656C73.8267 10.52 73.7627 10.344 73.7627 10.128C73.7627 9.912 73.8267 9.74 73.9547 9.612C74.0907 9.476 74.2667 9.408 74.4827 9.408C74.6987 9.408 74.8707 9.476 74.9987 9.612C75.1347 9.74 75.2027 9.912 75.2027 10.128C75.2027 10.344 75.1347 10.52 74.9987 10.656C74.8707 10.784 74.6987 10.848 74.4827 10.848ZM74.9627 12V18H74.0027V12H74.9627ZM77.1902 18V12H78.0302L78.1142 13.344L77.9582 13.212C78.0862 12.892 78.2582 12.636 78.4742 12.444C78.6902 12.244 78.9382 12.1 79.2182 12.012C79.5062 11.924 79.8022 11.88 80.1062 11.88C80.5382 11.88 80.9302 11.964 81.2822 12.132C81.6342 12.292 81.9142 12.54 82.1222 12.876C82.3382 13.212 82.4462 13.64 82.4462 14.16V18H81.4862V14.496C81.4862 13.832 81.3422 13.372 81.0542 13.116C80.7742 12.852 80.4262 12.72 80.0102 12.72C79.7222 12.72 79.4342 12.788 79.1462 12.924C78.8582 13.06 78.6182 13.28 78.4262 13.584C78.2422 13.888 78.1502 14.296 78.1502 14.808V18H77.1902ZM91.6858 10.08C92.2218 10.08 92.6858 10.18 93.0778 10.38C93.4778 10.572 93.7898 10.848 94.0138 11.208C94.2378 11.568 94.3498 11.996 94.3498 12.492C94.3498 12.988 94.2378 13.416 94.0138 13.776C93.7898 14.136 93.4778 14.416 93.0778 14.616C92.6858 14.808 92.2218 14.904 91.6858 14.904H89.8498V18H88.8898V10.08H91.6858ZM91.5418 14.004C92.1658 14.004 92.6218 13.876 92.9098 13.62C93.1978 13.356 93.3418 12.98 93.3418 12.492C93.3418 11.996 93.1978 11.62 92.9098 11.364C92.6218 11.108 92.1658 10.98 91.5418 10.98H89.8498V14.004H91.5418ZM98.4125 11.88C98.9805 11.88 99.4805 12.004 99.9125 12.252C100.353 12.5 100.697 12.86 100.945 13.332C101.193 13.796 101.317 14.352 101.317 15C101.317 15.648 101.193 16.208 100.945 16.68C100.697 17.144 100.353 17.5 99.9125 17.748C99.4805 17.996 98.9805 18.12 98.4125 18.12C97.8525 18.12 97.3525 17.996 96.9125 17.748C96.4725 17.5 96.1285 17.144 95.8805 16.68C95.6325 16.208 95.5085 15.648 95.5085 15C95.5085 14.352 95.6325 13.796 95.8805 13.332C96.1285 12.86 96.4725 12.5 96.9125 12.252C97.3525 12.004 97.8525 11.88 98.4125 11.88ZM98.4125 12.708C98.0045 12.708 97.6565 12.8 97.3685 12.984C97.0805 13.168 96.8565 13.432 96.6965 13.776C96.5445 14.112 96.4685 14.52 96.4685 15C96.4685 15.472 96.5445 15.88 96.6965 16.224C96.8565 16.568 97.0805 16.832 97.3685 17.016C97.6565 17.2 98.0045 17.292 98.4125 17.292C98.8205 17.292 99.1685 17.2 99.4565 17.016C99.7445 16.832 99.9645 16.568 100.117 16.224C100.277 15.88 100.357 15.472 100.357 15C100.357 14.52 100.277 14.112 100.117 13.776C99.9645 13.432 99.7445 13.168 99.4565 12.984C99.1685 12.8 98.8205 12.708 98.4125 12.708ZM104.036 9.24V16.476C104.036 16.78 104.092 16.992 104.204 17.112C104.316 17.224 104.496 17.28 104.744 17.28C104.904 17.28 105.036 17.268 105.14 17.244C105.244 17.22 105.384 17.176 105.56 17.112L105.404 17.952C105.276 18.008 105.136 18.048 104.984 18.072C104.832 18.104 104.676 18.12 104.516 18.12C104.028 18.12 103.664 17.988 103.424 17.724C103.192 17.46 103.076 17.056 103.076 16.512V9.24H104.036ZM107.704 9.24V16.476C107.704 16.78 107.76 16.992 107.872 17.112C107.984 17.224 108.164 17.28 108.412 17.28C108.572 17.28 108.704 17.268 108.808 17.244C108.912 17.22 109.052 17.176 109.228 17.112L109.072 17.952C108.944 18.008 108.804 18.048 108.652 18.072C108.5 18.104 108.344 18.12 108.184 18.12C107.696 18.12 107.332 17.988 107.092 17.724C106.86 17.46 106.744 17.056 106.744 16.512V9.24H107.704ZM115.087 12L112.267 19.008C112.115 19.4 111.947 19.708 111.763 19.932C111.587 20.164 111.387 20.328 111.163 20.424C110.947 20.528 110.695 20.58 110.407 20.58C110.135 20.58 109.883 20.54 109.651 20.46C109.427 20.388 109.227 20.288 109.051 20.16L109.315 19.32C109.475 19.464 109.643 19.568 109.819 19.632C110.003 19.704 110.183 19.74 110.359 19.74C110.567 19.74 110.763 19.676 110.947 19.548C111.131 19.42 111.299 19.16 111.451 18.768L111.763 17.988L111.163 16.56L109.255 12H110.347L111.847 15.912L112.219 16.98L112.651 15.792L114.055 12H115.087Z" fill="#6A53B3"/>
<path d="M19.222 18.4639C18.9386 18.641 18.5711 18.546 18.4 18.2513C18.23 17.956 18.3212 17.573 18.604 17.3948L21.6635 15.4796C21.8724 15.3489 22 15.1152 22 14.8632V13.237C22 13.1245 21.8808 13.0553 21.7876 13.1137L19.222 14.7188C18.937 14.8949 18.569 14.7969 18.4 14.5C18.23 14.2047 18.3212 13.8217 18.604 13.6435L21.7308 11.6862C21.898 11.5816 22 11.3946 22 11.1931V11.0613C21.9991 10.3514 21.6136 9.70286 21.004 9.38576L16.804 7.1975C16.2978 6.93417 15.7022 6.93417 15.196 7.1975L10.996 9.38576C10.3864 9.70286 10.0009 10.3514 10 11.0613V17.9387C10.0009 18.6486 10.3864 19.2972 10.996 19.6143L15.196 21.8026C15.7022 22.0658 16.2978 22.0658 16.804 21.8026L21.004 19.6143C21.6136 19.2972 21.9991 18.6486 22 17.9387V17.2435C22 17.0189 21.7619 16.8805 21.5755 16.9967L19.222 18.4639Z" fill="white"/>
</svg>
