<?xml version="1.0" encoding="UTF-8"?>
<svg width="18px" height="11px" viewBox="0 0 18 11" version="1.1" xmlns="http://www.w3.org/2000/svg" xmlns:xlink="http://www.w3.org/1999/xlink">
    <!-- Generator: sketchtool 63.1 (101010) - https://sketch.com -->
    <title>42C31922-A651-40D6-9674-20EE7AEEC4CA@1.00x</title>
    <desc>Created with sketchtool.</desc>
    <g id="Final-Version" stroke="none" stroke-width="1" fill="none" fill-rule="evenodd">
        <g id="00_login-b_main" transform="translate(-1323.000000, -463.000000)" fill="#5B55C8" fill-rule="nonzero">
            <path d="M1332,463 C1328.56091,463 1325.44216,464.881559 1323.14084,467.937711 C1322.95305,468.188095 1322.95305,468.537895 1323.14084,468.788279 C1325.44216,471.848113 1328.56091,473.729672 1332,473.729672 C1335.43909,473.729672 1338.55784,471.848113 1340.85916,468.791961 C1341.04695,468.541577 1341.04695,468.191777 1340.85916,467.941393 C1338.55784,464.881559 1335.43909,463 1332,463 Z M1332.2467,472.142682 C1329.96379,472.286284 1328.07855,470.404725 1328.22215,468.118134 C1328.33998,466.232894 1329.86806,464.704817 1331.7533,464.58699 C1334.03621,464.443388 1335.92145,466.324946 1335.77785,468.611537 C1335.65634,470.493096 1334.12826,472.021172 1332.2467,472.142682 Z M1332.13256,470.397361 C1330.90273,470.474685 1329.88647,469.462105 1329.96747,468.23228 C1330.03007,467.216017 1330.85486,466.394906 1331.87113,466.328628 C1333.10095,466.251304 1334.11721,467.263885 1334.03621,468.49371 C1333.96993,469.513654 1333.14514,470.334765 1332.13256,470.397361 Z" id="Shape-Copy-18"></path>
        </g>
    </g>
</svg>