<?xml version="1.0" encoding="UTF-8"?>
<svg width="61px" height="61px" viewBox="0 0 61 61" version="1.1" xmlns="http://www.w3.org/2000/svg" xmlns:xlink="http://www.w3.org/1999/xlink">
    <!-- Generator: sketchtool 61.2 (101010) - https://sketch.com -->
    <title>6059EDF0-E73A-41FC-89B4-CD21B7D4E9D2@1.00x</title>
    <desc>Created with sketchtool.</desc>
    <g id="Page-2" stroke="none" stroke-width="1" fill="none" fill-rule="evenodd">
        <g id="Artboard" transform="translate(-387.000000, -29.000000)" fill="#FF7600" fill-rule="nonzero">
            <g id="Group-5" transform="translate(387.000000, 29.000000)">
                <path d="M23.2338569,4.09680776 C12.6647566,4.09680776 4.09680776,12.6647566 4.09680776,23.2338569 C4.09680776,33.8029573 12.6647566,42.3709061 23.2338569,42.3709061 C33.8029573,42.3709061 42.3709061,33.8029573 42.3709061,23.2338569 C42.3592491,12.6695888 33.7981251,4.10846474 23.2338569,4.09680776 Z M23.2338569,40.3564799 C13.7772935,40.3564799 6.11123399,32.6904204 6.11123399,23.2338569 C6.11123399,13.7772935 13.7772935,6.11123399 23.2338569,6.11123399 C32.6904204,6.11123399 40.3564799,13.7772935 40.3564799,23.2338569 C40.3459334,32.6860485 32.6860485,40.3459334 23.2338569,40.3564799 Z" id="Shape"></path>
                <path d="M35.3204143,30.2843487 L35.3204143,19.2050045 C35.3204143,18.0924676 34.418525,17.1905783 33.3059881,17.1905783 L31.2915619,17.1905783 C30.179025,17.1905783 29.2771356,18.0924676 29.2771356,19.2050045 L29.2771356,30.2843487 L26.2554963,30.2843487 L26.2554963,22.2266438 C26.2554963,21.1141069 25.3536069,20.2122176 24.2410701,20.2122176 L22.2266438,20.2122176 C21.1141069,20.2122176 20.2122176,21.1141069 20.2122176,22.2266438 L20.2122176,30.2843487 L17.1905783,30.2843487 L17.1905783,25.2482832 C17.1905783,24.1357463 16.2886889,23.2338569 15.176152,23.2338569 L13.1617258,23.2338569 C12.0491889,23.2338569 11.1472996,24.1357463 11.1472996,25.2482832 L11.1472996,30.2843487 C10.5910312,30.2843487 10.1400865,30.7352935 10.1400865,31.2915619 C10.1400865,31.8478303 10.5910312,32.298775 11.1472996,32.298775 L35.3204143,32.298775 C35.8766827,32.298775 36.3276274,31.8478303 36.3276274,31.2915619 C36.3276274,30.7352935 35.8766827,30.2843487 35.3204143,30.2843487 Z M13.1617258,30.2843487 L13.1617258,25.2482832 L15.176152,25.2482832 L15.176152,30.2843487 L13.1617258,30.2843487 Z M22.2266438,30.2843487 L22.2266438,22.2266438 L24.2410701,22.2266438 L24.2410701,30.2843487 L22.2266438,30.2843487 Z M31.2915619,30.2843487 L31.2915619,19.2050045 L33.3059881,19.2050045 L33.3059881,30.2843487 L31.2915619,30.2843487 Z" id="Shape"></path>
                <path d="M11.1472996,22.2266438 C11.4144072,22.2266438 11.6705541,22.1204326 11.8593992,21.9315304 L19.2050045,14.5859251 L21.5145442,16.8954648 C21.9078608,17.2886626 22.5454269,17.2886626 22.9387435,16.8954648 L27.2627094,12.5714989 L27.2627094,14.2313861 C27.2627094,14.7876545 27.7136541,15.2385992 28.2699225,15.2385992 C28.8261909,15.2385992 29.2771356,14.7876545 29.2771356,14.2313861 L29.2771356,10.2025337 C29.2771356,10.185411 29.2680707,10.1703028 29.2670635,10.1531802 C29.2730508,10.0157303 29.2504137,9.87853567 29.2005874,9.75029498 C29.0433231,9.37558934 28.6762915,9.1320933 28.2699225,9.13287147 L24.2410701,9.13287147 C23.6848017,9.13287147 23.2338569,9.58381806 23.2338569,10.1400865 C23.2338569,10.6963548 23.6848017,11.1472996 24.2410701,11.1472996 L25.8385101,11.1472996 L22.2266438,14.7591658 L19.9171042,12.4496261 C19.5237875,12.0564284 18.8862214,12.0564284 18.4929048,12.4496261 L10.4351999,20.507331 C10.1472297,20.7953883 10.0610989,21.2285325 10.216959,21.6048454 C10.3728191,21.9811583 10.7399867,22.2266438 11.1472996,22.2266438 L11.1472996,22.2266438 Z" id="Shape"></path>
                <path d="M58.2244405,51.1024366 C58.7739118,49.9528198 58.5412566,48.5818882 57.6432786,47.677912 L47.6718687,37.7065022 C46.7548259,36.8334185 45.398684,36.6064642 44.2473442,37.1333979 L42.7737914,35.6507802 C49.1242923,25.6674029 46.944132,12.5044547 37.7139871,5.10167747 C28.4838422,-2.30109975 15.1615321,-1.57147037 6.79503087,6.79503087 C-1.57147037,15.1615321 -2.30109975,28.4838422 5.10167747,37.7139871 C12.5044547,46.944132 25.6674029,49.1242923 35.6507802,42.7737914 L37.1172825,44.2413009 C36.5594117,45.3902471 36.7942369,46.7668081 37.7014661,47.6658255 L39.8377651,49.8021245 L45.5335553,55.4989219 L47.6708615,57.6352209 C48.5701419,58.5422853 49.9472046,58.7759809 51.0953861,58.2163828 L51.9384235,59.0594202 C53.9076094,61.0114332 57.0842478,61.0044771 59.044866,59.0438588 C61.0054843,57.0832406 61.0124404,53.9066022 59.0604274,51.9374163 L58.2244405,51.1024366 Z M2.08238153,23.2338569 C2.08238153,11.5522197 11.5522197,2.08238153 23.2338569,2.08238153 C34.9154942,2.08238153 44.3853324,11.5522197 44.3853324,23.2338569 C44.3853324,34.9154942 34.9154942,44.3853324 23.2338569,44.3853324 C11.5575122,44.3725649 2.09514895,34.9102017 2.08238153,23.2338569 Z M41.6024025,37.3257756 L42.6891855,38.4125586 L38.4115514,42.6881783 L37.3257756,41.6024025 C38.9306214,40.3682103 40.3682103,38.9306214 41.6024025,37.3257756 L41.6024025,37.3257756 Z M49.0970753,56.2190792 L47.6718687,54.7938727 L49.0970753,53.3696733 C49.358907,53.1167878 49.463915,52.7423025 49.3717395,52.3901512 C49.2795639,52.0379998 49.0045495,51.7629854 48.6523981,51.6708098 C48.3002467,51.5786343 47.9257615,51.6836423 47.672876,51.945474 L46.2476694,53.3696733 L44.8234701,51.945474 L46.2476694,50.5212746 C46.6293752,50.1260655 46.6239163,49.4978607 46.2354001,49.1093446 C45.846884,48.7208284 45.2186792,48.7153695 44.8234701,49.0970753 L43.3992707,50.5212746 L41.9750714,49.0960681 L43.3992707,47.6718687 C43.6536795,47.4172801 43.7529414,47.0463051 43.6596655,46.6986863 C43.5663896,46.3510676 43.2947468,46.0796168 42.9470622,45.9865867 C42.5993776,45.8935566 42.2284729,45.9930808 41.9740642,46.2476694 L40.550872,47.6718687 L39.1256655,46.2476694 C38.7324677,45.8543528 38.7324677,45.2167867 39.1256655,44.8234701 L44.8244773,39.1256655 C45.2176783,38.7331385 45.8544684,38.7331385 46.2476694,39.1256655 L47.6718687,40.550872 L46.2476694,41.9740642 C45.8541095,42.3673459 45.853884,43.0052071 46.2471658,43.3987671 C46.6404476,43.792327 47.2783088,43.7925525 47.6718687,43.3992707 L49.0960681,41.9750714 L50.5212746,43.3992707 L49.0970753,44.8234701 C48.8352436,45.0763556 48.7302356,45.4508408 48.8224111,45.8029922 C48.9145867,46.1551436 49.1896011,46.430158 49.5417525,46.5223336 C49.8939039,46.6145091 50.2683891,46.5095011 50.5212746,46.2476694 L51.945474,44.8234701 L53.3696733,46.2476694 L51.945474,47.672876 C51.6836423,47.9257615 51.5786343,48.3002467 51.6708098,48.6523981 C51.7629854,49.0045495 52.0379998,49.2795639 52.3901512,49.3717395 C52.7423025,49.463915 53.1167878,49.358907 53.3696733,49.0970753 L54.7948799,47.6718687 L56.2190792,49.0970753 C56.612277,49.4903919 56.612277,50.127958 56.2190792,50.5212746 L50.5212746,56.2190792 C50.1225296,56.5989425 49.4958204,56.5989425 49.0970753,56.2190792 L49.0970753,56.2190792 Z M57.6432786,57.6432786 C56.4620657,58.8207691 54.5508862,58.8207691 53.3696733,57.6432786 L52.6575737,56.9311789 L56.9311789,52.6575737 L57.6432786,53.3696733 C58.2100565,53.9363553 58.5284772,54.7049987 58.5284772,55.506476 C58.5284772,56.3079532 58.2100565,57.0765966 57.6432786,57.6432786 L57.6432786,57.6432786 Z" id="Shape"></path>
            </g>
        </g>
    </g>
</svg>