<?xml version="1.0" encoding="UTF-8"?> <svg xmlns="http://www.w3.org/2000/svg" width="185" height="56" viewBox="0 0 185 56" fill="none"><path d="M35.2759 42.7984C34.1918 43.4597 32.7859 43.1049 32.1316 42.0048C31.4813 40.9022 31.8302 39.4724 32.9119 38.807L45.9023 30.871V22.328L35.2759 28.817C34.1858 29.4742 32.7782 29.1084 32.1316 28C31.4813 26.8974 31.8302 25.4677 32.9119 24.8023L45.9023 16.8662V15.1623C45.8987 12.5119 44.4241 10.0906 42.0924 8.9068L26.0266 0.737351C24.0902 -0.245784 21.8121 -0.245784 19.8757 0.737351L3.80989 8.9068C1.47821 10.0906 0.00356405 12.5119 0 15.1623V40.8377C0.00356405 43.4881 1.47821 45.9094 3.80989 47.0932L19.8757 55.2626C21.8121 56.2458 24.0902 56.2458 26.0266 55.2626L42.0924 47.0932C44.4241 45.9094 45.8987 43.4881 45.9023 40.8377V36.3329L35.2759 42.7984Z" fill="#8985DB"></path><path d="M50.7705 16.9451V40.7882H54.9027V16.9451H50.7705Z" fill="#8985DB"></path><path d="M60.0098 23.9717V32.8062C60.0098 38.0251 62.9466 41.0609 66.9763 41.0609C69.3327 41.0609 70.9378 40.2423 72.6794 38.5367L72.9526 40.8221H76.6749V23.9717H72.5428V32.5675C72.5428 35.1258 70.8012 37.2747 68.2399 37.2747C65.5762 37.2747 64.176 35.3304 64.176 32.7721V23.9717H60.0098Z" fill="#8985DB"></path><path d="M93.3611 35.9103C92.3366 36.9336 91.0047 37.3088 89.6728 37.3088C87.0775 37.3088 84.8918 35.6033 84.8918 32.3969C84.8918 29.4634 86.9409 27.4168 89.7411 27.4168C90.9023 27.4168 92.1317 27.8603 93.122 28.7471L95.7516 25.9842C93.9075 24.1763 92.0634 23.4941 89.6728 23.4941C84.7894 23.4941 80.7256 26.4277 80.7256 32.3969C80.7256 38.3662 84.7894 41.2997 89.6728 41.2997C92.1658 41.2997 94.2148 40.5493 96.1614 38.6391L93.3611 35.9103Z" fill="#8985DB"></path><path d="M103.523 23.9035V40.7881H99.3571V23.9035H103.523ZM98.9814 19.2304C98.9814 22.4709 103.899 22.4709 103.899 19.2304C103.899 15.9899 98.9814 15.9899 98.9814 19.2304Z" fill="#8985DB"></path><path d="M116.822 27.451C119.452 27.451 121.706 29.4294 121.706 32.3629C121.706 35.3987 119.452 37.3089 116.822 37.3089C114.159 37.3089 112.041 35.2964 112.041 32.3629C112.041 29.3271 114.159 27.451 116.822 27.451ZM121.979 16.9451V26.2572C120.989 24.5175 118.222 23.5625 116.447 23.5625C111.529 23.5625 107.875 26.5642 107.875 32.3629C107.875 37.8888 111.597 41.1634 116.549 41.1634C118.598 41.1634 120.681 40.4812 121.979 38.4687L122.252 40.7882H126.145V16.9451H121.979Z" fill="#8985DB"></path><path d="M144.352 26.2913C143.396 24.6199 141.244 23.5625 138.991 23.5625C134.073 23.5284 130.214 26.5643 130.214 32.363C130.214 38.2641 133.902 41.334 138.888 41.2999C140.767 41.2658 143.396 40.3107 144.352 38.3323L144.557 40.7883H148.484V23.9719H144.489L144.352 26.2913ZM139.367 27.2806C145.923 27.2806 145.923 37.4796 139.367 37.4796C136.601 37.4796 134.381 35.5693 134.381 32.363C134.381 29.1566 136.601 27.2806 139.367 27.2806Z" fill="#8985DB"></path><path d="M154.353 19.6739V24.0059H151.212V27.5875H154.353V34.853C154.353 39.0486 156.744 41.1293 160.398 40.9928C161.662 40.9587 162.652 40.754 163.847 40.2765L162.686 36.729C162.071 37.0361 161.32 37.2407 160.671 37.2407C159.373 37.2407 158.485 36.4562 158.485 34.853V27.5875H163.164V24.0059H158.519V19.2305L154.353 19.6739Z" fill="#8985DB"></path><path d="M180.868 26.2913C179.912 24.6199 177.76 23.5625 175.507 23.5625C170.589 23.5284 166.729 26.5643 166.729 32.363C166.729 38.2641 170.418 41.334 175.404 41.2999C177.282 41.2658 179.912 40.3107 180.868 38.3323L181.073 40.7883H185V23.9719H181.004L180.868 26.2913ZM175.882 27.2806C182.438 27.2806 182.438 37.4796 175.882 37.4796C173.115 37.4796 170.896 35.5693 170.896 32.363C170.896 29.1566 173.115 27.2806 175.882 27.2806Z" fill="#8985DB"></path></svg> 