<?xml version="1.0" encoding="UTF-8"?>
<svg width="62px" height="62px" viewBox="0 0 62 62" version="1.1" xmlns="http://www.w3.org/2000/svg" xmlns:xlink="http://www.w3.org/1999/xlink">
    <!-- Generator: sketchtool 61.2 (101010) - https://sketch.com -->
    <title>EC4F17E7-642E-4F8F-8FC8-7C8116E5BD1B@1.00x</title>
    <desc>Created with sketchtool.</desc>
    <g id="Page-2" stroke="none" stroke-width="1" fill="none" fill-rule="evenodd">
        <g id="Artboard" transform="translate(-37.000000, -28.000000)" fill="#FF7600" fill-rule="nonzero">
            <g id="Group-8" transform="translate(37.000000, 28.000000)">
                <path d="M58.36936,16.384 L51.20136,16.384 L51.20136,12.288 C51.20136,10.5913813 49.8259787,9.216 48.12936,9.216 L37.460304,9.216 C37.0037371,9.01095638 36.5306762,8.84481987 36.04616,8.71936 C35.0743127,3.74048118 30.7651438,0.111146476 25.69352,-1.98951966e-13 C22.2985757,0.0117196902 19.1241784,1.6838239 17.19432,4.476928 C16.6715181,4.37393132 16.1399706,4.32180536 15.60712,4.32128 C11.5351813,4.41294968 8.04804566,7.26387302 7.14887998,11.236352 C3.01570958,11.7254672 -0.0743033835,15.2670293 0.00135997652,19.428352 C-0.0724073963,23.5952045 3.02923434,27.1372794 7.16935998,27.614208 L7.16935998,34.816 C7.16935998,36.5126187 8.54474122,37.888 10.24136,37.888 L14.33736,37.888 L14.33736,48.965632 C14.2902586,50.7120534 15.6631925,52.1682784 17.40936,52.224 L31.502672,52.224 L30.069072,55.296 L27.64936,55.296 C25.9527413,55.296 24.57736,56.6713813 24.57736,58.368 C24.57736,60.0646187 25.9527413,61.44 27.64936,61.44 L48.12936,61.44 C49.8259787,61.44 51.20136,60.0646187 51.20136,58.368 C51.20136,56.6713813 49.8259787,55.296 48.12936,55.296 L45.709648,55.296 L44.276048,52.224 L58.36936,52.224 C60.1155275,52.1682784 61.4884613,50.7120534 61.44136,48.965632 L61.44136,19.642368 C61.4884613,17.8959466 60.1155275,16.4397216 58.36936,16.384 Z M59.39336,19.642368 L59.39336,24.576 L16.38536,24.576 L16.38536,19.642368 C16.3463702,19.0294207 16.7984232,18.495094 17.40936,18.432 L58.36936,18.432 C58.9802967,18.495094 59.4323498,19.0294207 59.39336,19.642368 L59.39336,19.642368 Z M48.12936,11.264 C48.6948995,11.264 49.15336,11.7224605 49.15336,12.288 L49.15336,16.384 L42.870096,16.384 C42.5609024,14.4631236 41.6818821,12.6793974 40.34696,11.264 L48.12936,11.264 Z M2.04935998,19.42528 C1.95961607,16.1222277 4.55111079,13.3652212 7.85339198,13.25056 C8.41260275,13.3310084 8.93131198,12.9433512 9.01255998,12.384256 C9.42783888,9.02797738 12.2268977,6.47492279 15.60712,6.36928 C16.2034046,6.37035933 16.7964813,6.45656235 17.3684,6.62528 C17.8125815,6.7550219 18.2885782,6.57075158 18.529616,6.175744 C20.0266103,3.63683771 22.7462229,2.06983396 25.69352,2.048 C29.8232463,2.15957845 33.3091747,5.15105797 34.046288,9.216 L29.097296,9.216 L30.421328,7.891968 C30.6875235,7.63486774 30.7942817,7.25414104 30.7005699,6.8961205 C30.606858,6.53809996 30.3272601,6.25850192 29.9692395,6.16479011 C29.6112189,6.0710783 29.2304923,6.17783646 28.973392,6.444032 L25.901392,9.516032 C25.5016409,9.91590385 25.5016409,10.5640961 25.901392,10.963968 L28.973392,14.035968 C29.375188,14.4240355 30.0138628,14.4184857 30.4088542,14.0234942 C30.8038456,13.6285028 30.8093955,12.989828 30.421328,12.588032 L29.097296,11.264 L36.949328,11.264 C38.9328957,12.3055761 40.3402021,14.1870018 40.779088,16.384 L17.40936,16.384 C15.6631925,16.4397216 14.2902586,17.8959466 14.33736,19.642368 L14.33736,25.6 L9.21735998,25.6 L9.21735998,19.879936 L10.541392,21.203968 C10.943188,21.5920355 11.5818628,21.5864857 11.9768542,21.1914942 C12.3718456,20.7965028 12.3773955,20.157828 11.989328,19.756032 L8.91732798,16.684032 C8.51745613,16.2842809 7.86926382,16.2842809 7.46939198,16.684032 L4.39739198,19.756032 C4.00932443,20.157828 4.01487435,20.7965028 4.40986575,21.1914942 C4.80485716,21.5864857 5.44353199,21.5920355 5.84532798,21.203968 L7.16935998,19.879936 L7.16935998,25.551872 C4.16936688,25.0798201 1.98116627,22.4614192 2.04935998,19.42528 L2.04935998,19.42528 Z M10.24136,35.84 C9.67582044,35.84 9.21735998,35.3815395 9.21735998,34.816 L9.21735998,27.648 L14.33736,27.648 L14.33736,35.84 L10.24136,35.84 Z M49.15336,58.368 C49.15336,58.9335395 48.6948995,59.392 48.12936,59.392 L27.64936,59.392 C27.0838204,59.392 26.62536,58.9335395 26.62536,58.368 C26.62536,57.8024605 27.0838204,57.344 27.64936,57.344 L48.12936,57.344 C48.6948995,57.344 49.15336,57.8024605 49.15336,58.368 Z M43.44968,55.296 L32.32904,55.296 L33.76264,52.224 L42.01608,52.224 L43.44968,55.296 Z M58.36936,50.176 L17.40936,50.176 C16.7984232,50.112906 16.3463702,49.5785793 16.38536,48.965632 L16.38536,46.08 L20.48136,46.08 C21.0468995,46.08 21.50536,45.6215395 21.50536,45.056 C21.50536,44.4904605 21.0468995,44.032 20.48136,44.032 L16.38536,44.032 L16.38536,26.624 L59.39336,26.624 L59.39336,44.032 L24.57736,44.032 C24.0118204,44.032 23.55336,44.4904605 23.55336,45.056 C23.55336,45.6215395 24.0118204,46.08 24.57736,46.08 L59.39336,46.08 L59.39336,48.965632 C59.4323498,49.5785793 58.9802967,50.112906 58.36936,50.176 Z" id="Shape"></path>
                <circle id="Oval" cx="19.45736" cy="21.504" r="1.024"></circle>
                <circle id="Oval" cx="23.55336" cy="21.504" r="1.024"></circle>
                <circle id="Oval" cx="27.64936" cy="21.504" r="1.024"></circle>
                <path d="M54.27336,22.528 L56.32136,22.528 C56.8868995,22.528 57.34536,22.0695395 57.34536,21.504 C57.34536,20.9384605 56.8868995,20.48 56.32136,20.48 L54.27336,20.48 C53.7078204,20.48 53.24936,20.9384605 53.24936,21.504 C53.24936,22.0695395 53.7078204,22.528 54.27336,22.528 Z" id="Shape"></path>
                <path d="M56.32136,35.84 L56.32136,31.744 C56.32136,30.6129208 55.4044391,29.696 54.27336,29.696 L21.50536,29.696 C20.3742808,29.696 19.45736,30.6129208 19.45736,31.744 L19.45736,35.84 C19.45736,36.9710792 20.3742808,37.888 21.50536,37.888 L54.27336,37.888 C55.4044391,37.888 56.32136,36.9710792 56.32136,35.84 Z M21.50536,31.744 L54.27336,31.744 L54.27336,35.84 L21.50536,35.84 L21.50536,31.744 Z" id="Shape"></path>
            </g>
        </g>
    </g>
</svg>